<?xml version="1.0" encoding="utf-8"?>
<!-- Generator: Adobe Illustrator 21.1.0, SVG Export Plug-In . SVG Version: 6.00 Build 0)  -->
<svg version="1.1" id="Layer_1" xmlns="http://www.w3.org/2000/svg" xmlns:xlink="http://www.w3.org/1999/xlink" x="0px" y="0px"
	 width="696px" height="489.75px" viewBox="0 0 696 489.75" style="enable-background:new 0 0 696 489.75;" xml:space="preserve">
<style type="text/css">
	.st0{opacity:0.3;}
	.st1{fill:#A53F5B;}
	.st2{opacity:0.15;}
	.st3{fill:#AAAAAA;}
	.st4{opacity:0.25;}
	.st5{fill:#592651;}
	.st6{fill:#302144;}
	.st7{fill:#FFFFFF;}
</style>
<g>
	<g class="st0">
		<path class="st1" d="M153.75,107.5h-38.5c-1.24,0-2.25-1.01-2.25-2.25l0,0c0-1.24,1.01-2.25,2.25-2.25h38.5
			c1.24,0,2.25,1.01,2.25,2.25l0,0C156,106.49,154.99,107.5,153.75,107.5z"/>
	</g>
	<g class="st0">
		<path class="st1" d="M164.75,176.61h-38.5c-1.24,0-2.25-1.01-2.25-2.25l0,0c0-1.24,1.01-2.25,2.25-2.25h38.5
			c1.24,0,2.25,1.01,2.25,2.25l0,0C167,175.59,165.99,176.61,164.75,176.61z"/>
	</g>
	<g class="st0">
		<path class="st1" d="M133.75,158.48h-28.5c-1.24,0-2.25-1.01-2.25-2.25l0,0c0-1.24,1.01-2.25,2.25-2.25h28.5
			c1.24,0,2.25,1.01,2.25,2.25l0,0C136,157.47,134.99,158.48,133.75,158.48z"/>
	</g>
	<g class="st0">
		<path class="st1" d="M79.75,141.17h-28.5c-1.24,0-2.25-1.01-2.25-2.25l0,0c0-1.24,1.01-2.25,2.25-2.25h28.5
			c1.24,0,2.25,1.01,2.25,2.25l0,0C82,140.16,80.99,141.17,79.75,141.17z"/>
	</g>
	<g class="st0">
		<path class="st1" d="M93.75,108.5h-28.5c-1.24,0-2.25-1.01-2.25-2.25l0,0c0-1.24,1.01-2.25,2.25-2.25h28.5
			c1.24,0,2.25,1.01,2.25,2.25l0,0C96,107.49,94.99,108.5,93.75,108.5z"/>
	</g>
	<g class="st0">
		<path class="st1" d="M102.75,72.95h-28.5c-1.24,0-2.25-1.01-2.25-2.25l0,0c0-1.24,1.01-2.25,2.25-2.25h28.5
			c1.24,0,2.25,1.01,2.25,2.25v0C105,71.94,103.99,72.95,102.75,72.95z"/>
	</g>
	<g class="st0">
		<path class="st1" d="M39.75,90.66h-28.5c-1.24,0-2.25-1.01-2.25-2.25v0c0-1.24,1.01-2.25,2.25-2.25h28.5
			c1.24,0,2.25,1.01,2.25,2.25l0,0C42,89.65,40.99,90.66,39.75,90.66z"/>
	</g>
	<g class="st0">
		<path class="st1" d="M80.75,227.25h-28.5c-1.24,0-2.25-1.01-2.25-2.25l0,0c0-1.24,1.01-2.25,2.25-2.25h28.5
			c1.24,0,2.25,1.01,2.25,2.25l0,0C83,226.24,81.99,227.25,80.75,227.25z"/>
	</g>
	<g class="st0">
		<path class="st1" d="M50.75,209.3h-28.5c-1.24,0-2.25-1.01-2.25-2.25l0,0c0-1.24,1.01-2.25,2.25-2.25h28.5
			c1.24,0,2.25,1.01,2.25,2.25l0,0C53,208.29,51.99,209.3,50.75,209.3z"/>
	</g>
	<g class="st0">
		<path class="st1" d="M55.75,158.48h-28.5c-1.24,0-2.25-1.01-2.25-2.25l0,0c0-1.24,1.01-2.25,2.25-2.25h28.5
			c1.24,0,2.25,1.01,2.25,2.25l0,0C58,157.47,56.99,158.48,55.75,158.48z"/>
	</g>
	<g class="st0">
		<path class="st1" d="M163.75,55.41h-28.5c-1.24,0-2.25-1.01-2.25-2.25v0c0-1.24,1.01-2.25,2.25-2.25h28.5
			c1.24,0,2.25,1.01,2.25,2.25v0C166,54.4,164.99,55.41,163.75,55.41z"/>
	</g>
	<g class="st0">
		<path class="st1" d="M91.75,55.41h-28.5c-1.24,0-2.25-1.01-2.25-2.25v0c0-1.24,1.01-2.25,2.25-2.25h28.5
			c1.24,0,2.25,1.01,2.25,2.25v0C94,54.4,92.99,55.41,91.75,55.41z"/>
	</g>
	<g class="st0">
		<path class="st1" d="M132.75,39.75h-28.5c-1.24,0-2.25-1.01-2.25-2.25v0c0-1.24,1.01-2.25,2.25-2.25h28.5
			c1.24,0,2.25,1.01,2.25,2.25v0C135,38.74,133.99,39.75,132.75,39.75z"/>
	</g>
	<g class="st0">
		<path class="st1" d="M245.75,124.94h-28.5c-1.24,0-2.25-1.01-2.25-2.25l0,0c0-1.24,1.01-2.25,2.25-2.25h28.5
			c1.24,0,2.25,1.01,2.25,2.25l0,0C248,123.92,246.99,124.94,245.75,124.94z"/>
	</g>
	<g class="st0">
		<path class="st1" d="M205.75,107.5h-28.5c-1.24,0-2.25-1.01-2.25-2.25l0,0c0-1.24,1.01-2.25,2.25-2.25h28.5
			c1.24,0,2.25,1.01,2.25,2.25l0,0C208,106.49,206.99,107.5,205.75,107.5z"/>
	</g>
	<g class="st0">
		<path class="st1" d="M384.75,72.95h-28.5c-1.24,0-2.25-1.01-2.25-2.25l0,0c0-1.24,1.01-2.25,2.25-2.25h28.5
			c1.24,0,2.25,1.01,2.25,2.25l0,0C387,71.94,385.99,72.95,384.75,72.95z"/>
	</g>
	<g class="st0">
		<path class="st1" d="M196.75,72.95h-20.5c-1.24,0-2.25-1.01-2.25-2.25l0,0c0-1.24,1.01-2.25,2.25-2.25h20.5
			c1.24,0,2.25,1.01,2.25,2.25v0C199,71.94,197.99,72.95,196.75,72.95z"/>
	</g>
	<g class="st0">
		<path class="st1" d="M60.75,124.94h-20.5c-1.24,0-2.25-1.01-2.25-2.25l0,0c0-1.24,1.01-2.25,2.25-2.25h20.5
			c1.24,0,2.25,1.01,2.25,2.25l0,0C63,123.92,61.99,124.94,60.75,124.94z"/>
	</g>
	<g class="st0">
		<path class="st1" d="M39.75,4.5h-20.5C18.01,4.5,17,3.49,17,2.25v0C17,1.01,18.01,0,19.25,0l20.5,0C40.99,0,42,1.01,42,2.25v0
			C42,3.49,40.99,4.5,39.75,4.5z"/>
	</g>
	<g class="st0">
		<path class="st1" d="M144.75,124.94h-20.5c-1.24,0-2.25-1.01-2.25-2.25l0,0c0-1.24,1.01-2.25,2.25-2.25h20.5
			c1.24,0,2.25,1.01,2.25,2.25l0,0C147,123.92,145.99,124.94,144.75,124.94z"/>
	</g>
	<g class="st0">
		<path class="st1" d="M269.75,176.61h-20.5c-1.24,0-2.25-1.01-2.25-2.25l0,0c0-1.24,1.01-2.25,2.25-2.25h20.5
			c1.24,0,2.25,1.01,2.25,2.25l0,0C272,175.59,270.99,176.61,269.75,176.61z"/>
	</g>
	<g class="st0">
		<path class="st1" d="M152.75,141.17h-20.5c-1.24,0-2.25-1.01-2.25-2.25l0,0c0-1.24,1.01-2.25,2.25-2.25h20.5
			c1.24,0,2.25,1.01,2.25,2.25l0,0C155,140.16,153.99,141.17,152.75,141.17z"/>
	</g>
	<g class="st0">
		<path class="st1" d="M195.75,141.17h-20.5c-1.24,0-2.25-1.01-2.25-2.25l0,0c0-1.24,1.01-2.25,2.25-2.25h20.5
			c1.24,0,2.25,1.01,2.25,2.25l0,0C198,140.16,196.99,141.17,195.75,141.17z"/>
	</g>
	<g class="st0">
		<path class="st1" d="M208.75,192.28h-20.5c-1.24,0-2.25-1.01-2.25-2.25v0c0-1.24,1.01-2.25,2.25-2.25h20.5
			c1.24,0,2.25,1.01,2.25,2.25v0C211,191.27,209.99,192.28,208.75,192.28z"/>
	</g>
	<g class="st0">
		<path class="st1" d="M92.75,209.3h-20.5c-1.24,0-2.25-1.01-2.25-2.25l0,0c0-1.24,1.01-2.25,2.25-2.25h20.5
			c1.24,0,2.25,1.01,2.25,2.25l0,0C95,208.29,93.99,209.3,92.75,209.3z"/>
	</g>
	<g class="st0">
		<path class="st1" d="M60.75,243.5h-20.5c-1.24,0-2.25-1.01-2.25-2.25l0,0c0-1.24,1.01-2.25,2.25-2.25h20.5
			c1.24,0,2.25,1.01,2.25,2.25l0,0C63,242.49,61.99,243.5,60.75,243.5z"/>
	</g>
	<g class="st0">
		<path class="st1" d="M247.75,21.5h-20.5c-1.24,0-2.25-1.01-2.25-2.25v0c0-1.24,1.01-2.25,2.25-2.25h20.5
			c1.24,0,2.25,1.01,2.25,2.25v0C250,20.49,248.99,21.5,247.75,21.5z"/>
	</g>
	<g class="st0">
		<path class="st1" d="M194.75,158.48h-38.5c-1.24,0-2.25-1.01-2.25-2.25l0,0c0-1.24,1.01-2.25,2.25-2.25h38.5
			c1.24,0,2.25,1.01,2.25,2.25l0,0C197,157.47,195.99,158.48,194.75,158.48z"/>
	</g>
	<g class="st0">
		<path class="st1" d="M307.75,72.95h-38.5c-1.24,0-2.25-1.01-2.25-2.25l0,0c0-1.24,1.01-2.25,2.25-2.25h38.5
			c1.24,0,2.25,1.01,2.25,2.25l0,0C310,71.94,308.99,72.95,307.75,72.95z"/>
	</g>
	<g class="st2">
		<path class="st1" d="M245.75,55.41h-38.5c-1.24,0-2.25-1.01-2.25-2.25v0c0-1.24,1.01-2.25,2.25-2.25h38.5
			c1.24,0,2.25,1.01,2.25,2.25v0C248,54.4,246.99,55.41,245.75,55.41z"/>
	</g>
	<g class="st0">
		<path class="st1" d="M327.75,39.75h-38.5c-1.24,0-2.25-1.01-2.25-2.25v0c0-1.24,1.01-2.25,2.25-2.25h38.5
			c1.24,0,2.25,1.01,2.25,2.25v0C330,38.74,328.99,39.75,327.75,39.75z"/>
	</g>
	<g class="st0">
		<path class="st1" d="M193.75,209.3h-38.5c-1.24,0-2.25-1.01-2.25-2.25l0,0c0-1.24,1.01-2.25,2.25-2.25h38.5
			c1.24,0,2.25,1.01,2.25,2.25l0,0C196,208.29,194.99,209.3,193.75,209.3z"/>
	</g>
	<g class="st0">
		<path class="st1" d="M80.75,192.28h-38.5c-1.24,0-2.25-1.01-2.25-2.25v0c0-1.24,1.01-2.25,2.25-2.25h38.5
			c1.24,0,2.25,1.01,2.25,2.25v0C83,191.27,81.99,192.28,80.75,192.28z"/>
	</g>
	<g class="st0">
		<path class="st1" d="M60.75,176.61h-38.5c-1.24,0-2.25-1.01-2.25-2.25l0,0c0-1.24,1.01-2.25,2.25-2.25h38.5
			c1.24,0,2.25,1.01,2.25,2.25l0,0C63,175.59,61.99,176.61,60.75,176.61z"/>
	</g>
	<g class="st0">
		<path class="st1" d="M101.75,21.5h-38.5c-1.24,0-2.25-1.01-2.25-2.25v0c0-1.24,1.01-2.25,2.25-2.25h38.5
			c1.24,0,2.25,1.01,2.25,2.25v0C104,20.49,102.99,21.5,101.75,21.5z"/>
	</g>
	<g class="st0">
		<path class="st1" d="M41.75,39.75H3.25C2.01,39.75,1,38.74,1,37.5v0c0-1.24,1.01-2.25,2.25-2.25h38.5c1.24,0,2.25,1.01,2.25,2.25
			v0C44,38.74,42.99,39.75,41.75,39.75z"/>
	</g>
	<g class="st0">
		<path class="st1" d="M134.5,21.5h-10c-1.38,0-2.5-1.01-2.5-2.25v0c0-1.24,1.12-2.25,2.5-2.25h10c1.38,0,2.5,1.01,2.5,2.25v0
			C137,20.49,135.88,21.5,134.5,21.5z"/>
	</g>
	<g class="st0">
		<path class="st1" d="M186.5,39.75h-10c-1.38,0-2.5-1.01-2.5-2.25v0c0-1.24,1.12-2.25,2.5-2.25h10c1.38,0,2.5,1.01,2.5,2.25v0
			C189,38.74,187.88,39.75,186.5,39.75z"/>
	</g>
	<g class="st0">
		<path class="st1" d="M216.5,39.75h-10c-1.38,0-2.5-1.01-2.5-2.25v0c0-1.24,1.12-2.25,2.5-2.25h10c1.38,0,2.5,1.01,2.5,2.25v0
			C219,38.74,217.88,39.75,216.5,39.75z"/>
	</g>
	<g class="st0">
		<path class="st1" d="M155.5,72.95h-10c-1.38,0-2.5-1.01-2.5-2.25l0,0c0-1.24,1.12-2.25,2.5-2.25h10c1.38,0,2.5,1.01,2.5,2.25l0,0
			C158,71.94,156.88,72.95,155.5,72.95z"/>
	</g>
	<g class="st0">
		<path class="st1" d="M41.5,55.41h-10c-1.38,0-2.5-1.01-2.5-2.25v0c0-1.24,1.12-2.25,2.5-2.25h10c1.38,0,2.5,1.01,2.5,2.25v0
			C44,54.4,42.88,55.41,41.5,55.41z"/>
	</g>
	<g class="st0">
		<path class="st1" d="M268.5,39.75h-10c-1.38,0-2.5-1.01-2.5-2.25v0c0-1.24,1.12-2.25,2.5-2.25h10c1.38,0,2.5,1.01,2.5,2.25v0
			C271,38.74,269.88,39.75,268.5,39.75z"/>
	</g>
	<g class="st0">
		<path class="st1" d="M145.5,90.66h-10c-1.38,0-2.5-1.01-2.5-2.25v0c0-1.24,1.12-2.25,2.5-2.25h10c1.38,0,2.5,1.01,2.5,2.25l0,0
			C148,89.65,146.88,90.66,145.5,90.66z"/>
	</g>
	<g class="st0">
		<path class="st1" d="M176.5,124.94h-10c-1.38,0-2.5-1.01-2.5-2.25l0,0c0-1.24,1.12-2.25,2.5-2.25h10c1.38,0,2.5,1.01,2.5,2.25l0,0
			C179,123.92,177.88,124.94,176.5,124.94z"/>
	</g>
	<g class="st0">
		<path class="st1" d="M251.5,90.66h-10c-1.38,0-2.5-1.01-2.5-2.25v0c0-1.24,1.12-2.25,2.5-2.25h10c1.38,0,2.5,1.01,2.5,2.25l0,0
			C254,89.65,252.88,90.66,251.5,90.66z"/>
	</g>
	<g class="st0">
		<path class="st1" d="M410.5,90.66h-10c-1.38,0-2.5-1.01-2.5-2.25v0c0-1.24,1.12-2.25,2.5-2.25h10c1.38,0,2.5,1.01,2.5,2.25l0,0
			C413,89.65,411.88,90.66,410.5,90.66z"/>
	</g>
	<g class="st0">
		<path class="st1" d="M112.5,141.17h-10c-1.38,0-2.5-1.01-2.5-2.25l0,0c0-1.24,1.12-2.25,2.5-2.25h10c1.38,0,2.5,1.01,2.5,2.25l0,0
			C115,140.16,113.88,141.17,112.5,141.17z"/>
	</g>
	<g class="st0">
		<path class="st1" d="M263.5,141.17h-10c-1.38,0-2.5-1.01-2.5-2.25l0,0c0-1.24,1.12-2.25,2.5-2.25h10c1.38,0,2.5,1.01,2.5,2.25l0,0
			C266,140.16,264.88,141.17,263.5,141.17z"/>
	</g>
	<g class="st0">
		<path class="st1" d="M82.5,158.48h-10c-1.38,0-2.5-1.01-2.5-2.25l0,0c0-1.24,1.12-2.25,2.5-2.25h10c1.38,0,2.5,1.01,2.5,2.25l0,0
			C85,157.47,83.88,158.48,82.5,158.48z"/>
	</g>
	<g class="st0">
		<path class="st1" d="M12.5,176.61h-10c-1.37,0-2.5-1.01-2.5-2.25l0,0c0-1.24,1.12-2.25,2.5-2.25h10c1.37,0,2.5,1.01,2.5,2.25l0,0
			C15,175.59,13.87,176.61,12.5,176.61z"/>
	</g>
	<g class="st0">
		<path class="st1" d="M113.5,227.25h-10c-1.38,0-2.5-1.01-2.5-2.25l0,0c0-1.24,1.12-2.25,2.5-2.25h10c1.38,0,2.5,1.01,2.5,2.25l0,0
			C116,226.24,114.88,227.25,113.5,227.25z"/>
	</g>
	<g class="st0">
		<path class="st1" d="M39.5,107.5h-10c-1.38,0-2.5-1.01-2.5-2.25l0,0c0-1.24,1.12-2.25,2.5-2.25h10c1.38,0,2.5,1.01,2.5,2.25l0,0
			C42,106.49,40.88,107.5,39.5,107.5z"/>
	</g>
	<g class="st0">
		<path class="st1" d="M134.5,192.28h-10c-1.38,0-2.5-1.01-2.5-2.25v0c0-1.24,1.12-2.25,2.5-2.25h10c1.38,0,2.5,1.01,2.5,2.25v0
			C137,191.27,135.88,192.28,134.5,192.28z"/>
	</g>
	<g class="st0">
		<path class="st1" d="M35.5,227.25h-10c-1.38,0-2.5-1.01-2.5-2.25l0,0c0-1.24,1.12-2.25,2.5-2.25h10c1.38,0,2.5,1.01,2.5,2.25l0,0
			C38,226.24,36.88,227.25,35.5,227.25z"/>
	</g>
	<g class="st0">
		<path class="st1" d="M166.5,192.28h-10c-1.38,0-2.5-1.01-2.5-2.25v0c0-1.24,1.12-2.25,2.5-2.25h10c1.38,0,2.5,1.01,2.5,2.25v0
			C169,191.27,167.88,192.28,166.5,192.28z"/>
	</g>
	<g class="st0">
		<path class="st1" d="M274.5,192.28h-10c-1.38,0-2.5-1.01-2.5-2.25v0c0-1.24,1.12-2.25,2.5-2.25h10c1.38,0,2.5,1.01,2.5,2.25v0
			C277,191.27,275.88,192.28,274.5,192.28z"/>
	</g>
	<g class="st0">
		<path class="st1" d="M196.5,176.61h-10c-1.38,0-2.5-1.01-2.5-2.25l0,0c0-1.24,1.12-2.25,2.5-2.25h10c1.38,0,2.5,1.01,2.5,2.25l0,0
			C199,175.59,197.88,176.61,196.5,176.61z"/>
	</g>
	<g class="st0">
		<path class="st1" d="M227.5,176.61h-10c-1.38,0-2.5-1.01-2.5-2.25l0,0c0-1.24,1.12-2.25,2.5-2.25h10c1.38,0,2.5,1.01,2.5,2.25l0,0
			C230,175.59,228.88,176.61,227.5,176.61z"/>
	</g>
	<g class="st0">
		<path class="st1" d="M249.5,72.95h-10c-1.38,0-2.5-1.01-2.5-2.25l0,0c0-1.24,1.12-2.25,2.5-2.25h10c1.38,0,2.5,1.01,2.5,2.25l0,0
			C252,71.94,250.88,72.95,249.5,72.95z"/>
	</g>
	<g class="st0">
		<path class="st1" d="M323.5,55.41h-10c-1.38,0-2.5-1.01-2.5-2.25v0c0-1.24,1.12-2.25,2.5-2.25h10c1.38,0,2.5,1.01,2.5,2.25v0
			C326,54.4,324.88,55.41,323.5,55.41z"/>
	</g>
	<g class="st0">
		<path class="st1" d="M352.5,55.41h-10c-1.38,0-2.5-1.01-2.5-2.25v0c0-1.24,1.12-2.25,2.5-2.25h10c1.38,0,2.5,1.01,2.5,2.25v0
			C355,54.4,353.88,55.41,352.5,55.41z"/>
	</g>
	<g class="st0">
		<path class="st1" d="M113.5,90.66h-10c-1.38,0-2.5-1.01-2.5-2.25v0c0-1.24,1.12-2.25,2.5-2.25h10c1.38,0,2.5,1.01,2.5,2.25l0,0
			C116,89.65,114.88,90.66,113.5,90.66z"/>
	</g>
	<g class="st0">
		<ellipse class="st1" cx="82.5" cy="88.41" rx="2.5" ry="2.25"/>
	</g>
	<g class="st0">
		<ellipse class="st1" cx="82.5" cy="122.69" rx="2.5" ry="2.25"/>
	</g>
	<g class="st0">
		<ellipse class="st1" cx="82.5" cy="174.36" rx="2.5" ry="2.25"/>
	</g>
	<g class="st0">
		<ellipse class="st1" cx="103.5" cy="174.36" rx="2.5" ry="2.25"/>
	</g>
	<g class="st0">
		<ellipse class="st1" cx="103.5" cy="190.03" rx="2.5" ry="2.25"/>
	</g>
	<g class="st0">
		<ellipse class="st1" cx="228.5" cy="190.03" rx="2.5" ry="2.25"/>
	</g>
	<g class="st0">
		<ellipse class="st1" cx="248.5" cy="190.03" rx="2.5" ry="2.25"/>
	</g>
	<g class="st0">
		<ellipse class="st1" cx="113.5" cy="207.05" rx="2.5" ry="2.25"/>
	</g>
	<g class="st0">
		<ellipse class="st1" cx="21.5" cy="241.25" rx="2.5" ry="2.25"/>
	</g>
	<g class="st0">
		<ellipse class="st1" cx="11.5" cy="225" rx="2.5" ry="2.25"/>
	</g>
	<g class="st0">
		<ellipse class="st1" cx="28.5" cy="190.03" rx="2.5" ry="2.25"/>
	</g>
	<g class="st0">
		<ellipse class="st1" cx="134.5" cy="207.05" rx="2.5" ry="2.25"/>
	</g>
	<g class="st0">
		<ellipse class="st1" cx="103.5" cy="122.69" rx="2.5" ry="2.25"/>
	</g>
	<g class="st0">
		<ellipse class="st1" cx="196.5" cy="122.69" rx="2.5" ry="2.25"/>
	</g>
	<g class="st0">
		<ellipse class="st1" cx="228.5" cy="105.25" rx="2.5" ry="2.25"/>
	</g>
	<g class="st0">
		<ellipse class="st1" cx="270.5" cy="105.25" rx="2.5" ry="2.25"/>
	</g>
	<g class="st0">
		<ellipse class="st1" cx="364.5" cy="105.25" rx="2.5" ry="2.25"/>
	</g>
	<g class="st0">
		<ellipse class="st1" cx="332.5" cy="70.7" rx="2.5" ry="2.25"/>
	</g>
	<g class="st0">
		<ellipse class="st1" cx="405.5" cy="70.7" rx="2.5" ry="2.25"/>
	</g>
	<g class="st0">
		<ellipse class="st1" cx="373.5" cy="53.16" rx="2.5" ry="2.25"/>
	</g>
	<g class="st0">
		<ellipse class="st1" cx="270.5" cy="53.16" rx="2.5" ry="2.25"/>
	</g>
	<g class="st0">
		<ellipse class="st1" cx="221.5" cy="88.41" rx="2.5" ry="2.25"/>
	</g>
	<g class="st0">
		<ellipse class="st1" cx="290.5" cy="53.16" rx="2.5" ry="2.25"/>
	</g>
	<g class="st0">
		<ellipse class="st1" cx="301.5" cy="122.69" rx="2.5" ry="2.25"/>
	</g>
	<g class="st0">
		<ellipse class="st1" cx="216.5" cy="138.92" rx="2.5" ry="2.25"/>
	</g>
	<g class="st0">
		<ellipse class="st1" cx="34.5" cy="138.92" rx="2.5" ry="2.25"/>
	</g>
	<g class="st0">
		<ellipse class="st1" cx="235.5" cy="138.92" rx="2.5" ry="2.25"/>
	</g>
	<g class="st0">
		<ellipse class="st1" cx="21.5" cy="122.69" rx="2.5" ry="2.25"/>
	</g>
	<g class="st0">
		<ellipse class="st1" cx="50.5" cy="70.7" rx="2.5" ry="2.25"/>
	</g>
	<g class="st0">
		<ellipse class="st1" cx="124.5" cy="70.7" rx="2.5" ry="2.25"/>
	</g>
	<g class="st0">
		<ellipse class="st1" cx="165.5" cy="88.41" rx="2.5" ry="2.25"/>
	</g>
	<g class="st0">
		<ellipse class="st1" cx="186.5" cy="88.41" rx="2.5" ry="2.25"/>
	</g>
	<g class="st0">
		<ellipse class="st1" cx="186.5" cy="53.16" rx="2.5" ry="2.25"/>
	</g>
	<g class="st0">
		<ellipse class="st1" cx="218.5" cy="70.7" rx="2.5" ry="2.25"/>
	</g>
	<g class="st0">
		<ellipse class="st1" cx="113.5" cy="53.16" rx="2.5" ry="2.25"/>
	</g>
	<g class="st0">
		<ellipse class="st1" cx="155.5" cy="37.5" rx="2.5" ry="2.25"/>
	</g>
	<g class="st0">
		<ellipse class="st1" cx="61.5" cy="37.5" rx="2.5" ry="2.25"/>
	</g>
	<g class="st0">
		<ellipse class="st1" cx="40.5" cy="19.25" rx="2.5" ry="2.25"/>
	</g>
	<g class="st0">
		<ellipse class="st1" cx="61.5" cy="2.25" rx="2.5" ry="2.25"/>
	</g>
	<g class="st0">
		<ellipse class="st1" cx="114.5" cy="2.25" rx="2.5" ry="2.25"/>
	</g>
	<g class="st0">
		<ellipse class="st1" cx="155.5" cy="19.25" rx="2.5" ry="2.25"/>
	</g>
	<g class="st0">
		<path class="st3" d="M607.75,55.3h-28.5c-1.24,0-2.25-1.01-2.25-2.25v0c0-1.24,1.01-2.25,2.25-2.25h28.5
			c1.24,0,2.25,1.01,2.25,2.25v0C610,54.29,608.99,55.3,607.75,55.3z"/>
	</g>
	<g class="st0">
		<path class="st3" d="M587.75,72.5h-20.5c-1.24,0-2.25-1.01-2.25-2.25l0,0c0-1.24,1.01-2.25,2.25-2.25h20.5
			c1.24,0,2.25,1.01,2.25,2.25l0,0C590,71.49,588.99,72.5,587.75,72.5z"/>
	</g>
	<g class="st0">
		<path class="st3" d="M577.75,106.9h-20.5c-1.24,0-2.25-1.01-2.25-2.25l0,0c0-1.24,1.01-2.25,2.25-2.25h20.5
			c1.24,0,2.25,1.01,2.25,2.25v0C580,105.89,578.99,106.9,577.75,106.9z"/>
	</g>
	<g class="st0">
		<path class="st3" d="M519.75,106.5h-20.5c-1.24,0-2.25-1.01-2.25-2.25l0,0c0-1.24,1.01-2.25,2.25-2.25h20.5
			c1.24,0,2.25,1.01,2.25,2.25l0,0C522,105.49,520.99,106.5,519.75,106.5z"/>
	</g>
	<g class="st0">
		<path class="st3" d="M673.75,88.5h-20.5c-1.24,0-2.25-1.01-2.25-2.25l0,0c0-1.24,1.01-2.25,2.25-2.25h20.5
			c1.24,0,2.25,1.01,2.25,2.25l0,0C676,87.49,674.99,88.5,673.75,88.5z"/>
	</g>
	<g class="st0">
		<path class="st3" d="M603.75,88.5h-38.5c-1.24,0-2.25-1.01-2.25-2.25l0,0c0-1.24,1.01-2.25,2.25-2.25h38.5
			c1.24,0,2.25,1.01,2.25,2.25l0,0C606,87.49,604.99,88.5,603.75,88.5z"/>
	</g>
	<g class="st0">
		<path class="st3" d="M608.5,106.9h-10c-1.38,0-2.5-1.01-2.5-2.25l0,0c0-1.24,1.12-2.25,2.5-2.25h10c1.38,0,2.5,1.01,2.5,2.25v0
			C611,105.89,609.88,106.9,608.5,106.9z"/>
	</g>
	<g class="st0">
		<path class="st3" d="M630.5,88.5h-10c-1.38,0-2.5-1.01-2.5-2.25l0,0c0-1.24,1.12-2.25,2.5-2.25h10c1.38,0,2.5,1.01,2.5,2.25l0,0
			C633,87.49,631.88,88.5,630.5,88.5z"/>
	</g>
	<g class="st0">
		<path class="st3" d="M632.5,55.3h-10c-1.38,0-2.5-1.01-2.5-2.25v0c0-1.24,1.12-2.25,2.5-2.25h10c1.38,0,2.5,1.01,2.5,2.25v0
			C635,54.29,633.88,55.3,632.5,55.3z"/>
	</g>
	<g class="st0">
		<path class="st3" d="M545.5,72.5h-10c-1.38,0-2.5-1.01-2.5-2.25l0,0c0-1.24,1.12-2.25,2.5-2.25h10c1.38,0,2.5,1.01,2.5,2.25l0,0
			C548,71.49,546.88,72.5,545.5,72.5z"/>
	</g>
	<g class="st0">
		<path class="st3" d="M519.5,72.5h-10c-1.38,0-2.5-1.01-2.5-2.25l0,0c0-1.24,1.12-2.25,2.5-2.25h10c1.38,0,2.5,1.01,2.5,2.25l0,0
			C522,71.49,520.88,72.5,519.5,72.5z"/>
	</g>
	<g class="st0">
		<path class="st3" d="M529.5,88.5h-10c-1.38,0-2.5-1.01-2.5-2.25l0,0c0-1.24,1.12-2.25,2.5-2.25h10c1.38,0,2.5,1.01,2.5,2.25l0,0
			C532,87.49,530.88,88.5,529.5,88.5z"/>
	</g>
	<g class="st0">
		<path class="st3" d="M557.5,55.3h-10c-1.38,0-2.5-1.01-2.5-2.25v0c0-1.24,1.12-2.25,2.5-2.25h10c1.38,0,2.5,1.01,2.5,2.25v0
			C560,54.29,558.88,55.3,557.5,55.3z"/>
	</g>
	<g class="st0">
		<path class="st3" d="M580.5,122.5h-10c-1.38,0-2.5-1.01-2.5-2.25l0,0c0-1.24,1.12-2.25,2.5-2.25h10c1.38,0,2.5,1.01,2.5,2.25l0,0
			C583,121.49,581.88,122.5,580.5,122.5z"/>
	</g>
	<g class="st0">
		<path class="st3" d="M552.5,122.5h-10c-1.38,0-2.5-1.01-2.5-2.25l0,0c0-1.24,1.12-2.25,2.5-2.25h10c1.38,0,2.5,1.01,2.5,2.25l0,0
			C555,121.49,553.88,122.5,552.5,122.5z"/>
	</g>
	<g class="st0">
		<path class="st3" d="M639.5,122.5h-10c-1.38,0-2.5-1.01-2.5-2.25l0,0c0-1.24,1.12-2.25,2.5-2.25h10c1.38,0,2.5,1.01,2.5,2.25l0,0
			C642,121.49,640.88,122.5,639.5,122.5z"/>
	</g>
	<g class="st0">
		<ellipse class="st3" cx="598.5" cy="120.25" rx="2.5" ry="2.25"/>
	</g>
	<g class="st0">
		<ellipse class="st3" cx="693.5" cy="104.25" rx="2.5" ry="2.25"/>
	</g>
	<g class="st0">
		<ellipse class="st3" cx="536.5" cy="104.65" rx="2.5" ry="2.25"/>
	</g>
	<g class="st0">
		<ellipse class="st3" cx="547.5" cy="86.25" rx="2.5" ry="2.25"/>
	</g>
	<g class="st0">
		<ellipse class="st3" cx="607.5" cy="70.25" rx="2.5" ry="2.25"/>
	</g>
	<g class="st0">
		<ellipse class="st3" cx="650.5" cy="53.05" rx="2.5" ry="2.25"/>
	</g>
	<g class="st0">
		<ellipse class="st3" cx="526.5" cy="53.05" rx="2.5" ry="2.25"/>
	</g>
	<g class="st0">
		<ellipse class="st3" cx="629.5" cy="70.25" rx="2.5" ry="2.25"/>
	</g>
	<g class="st4">
		<path class="st3" d="M668.75,106.9h-38.5c-1.24,0-2.25-1.01-2.25-2.25l0,0c0-1.24,1.01-2.25,2.25-2.25h38.5
			c1.24,0,2.25,1.01,2.25,2.25v0C671,105.89,669.99,106.9,668.75,106.9z"/>
	</g>
	<g>
		<g>
			
				<ellipse transform="matrix(0.9937 -0.112 0.112 0.9937 -30.9446 53.5591)" class="st1" cx="461.27" cy="302.22" rx="187.51" ry="187.51"/>
		</g>
		<g>
			
				<ellipse transform="matrix(0.9937 -0.112 0.112 0.9937 -30.9446 53.5591)" class="st5" cx="461.27" cy="302.22" rx="140.08" ry="140.08"/>
		</g>
		<g>
			
				<ellipse transform="matrix(0.9937 -0.112 0.112 0.9937 -30.9446 53.5591)" class="st6" cx="461.27" cy="302.22" rx="74.86" ry="74.86"/>
		</g>
	</g>
	<g>
		<path class="st7" d="M439.21,289.85v3.99h-1.27v-9.95h3.23c0.45,0.01,0.87,0.08,1.27,0.21c0.4,0.13,0.75,0.32,1.05,0.57
			c0.3,0.25,0.54,0.56,0.71,0.93s0.26,0.79,0.26,1.27s-0.09,0.9-0.26,1.27s-0.41,0.68-0.71,0.93c-0.3,0.25-0.65,0.44-1.05,0.57
			c-0.4,0.13-0.82,0.2-1.27,0.21H439.21z M439.21,288.81h1.96c0.29,0,0.56-0.05,0.81-0.14s0.46-0.21,0.64-0.38
			c0.18-0.16,0.33-0.36,0.43-0.6s0.15-0.5,0.15-0.8s-0.05-0.57-0.15-0.81c-0.1-0.24-0.24-0.45-0.42-0.62
			c-0.18-0.17-0.39-0.3-0.64-0.39c-0.25-0.09-0.52-0.14-0.81-0.14h-1.96V288.81z"/>
		<path class="st7" d="M450.86,291.88c0-0.15-0.03-0.29-0.09-0.41s-0.16-0.23-0.3-0.33c-0.14-0.1-0.33-0.19-0.56-0.28
			s-0.52-0.16-0.87-0.23c-0.42-0.09-0.81-0.19-1.16-0.31c-0.35-0.12-0.65-0.27-0.89-0.44c-0.25-0.17-0.44-0.37-0.58-0.6
			s-0.21-0.5-0.21-0.8c0-0.3,0.07-0.58,0.21-0.84s0.34-0.49,0.59-0.69c0.26-0.2,0.56-0.35,0.91-0.46c0.35-0.11,0.74-0.17,1.17-0.17
			c0.46,0,0.87,0.06,1.23,0.18c0.37,0.12,0.67,0.28,0.93,0.49c0.26,0.21,0.45,0.45,0.59,0.73c0.14,0.28,0.21,0.58,0.21,0.91h-1.26
			c0-0.16-0.04-0.32-0.12-0.47s-0.2-0.29-0.34-0.41c-0.15-0.12-0.32-0.21-0.53-0.29c-0.21-0.07-0.44-0.11-0.7-0.11
			c-0.27,0-0.5,0.03-0.71,0.09c-0.2,0.06-0.37,0.14-0.51,0.24c-0.13,0.1-0.24,0.22-0.3,0.35c-0.07,0.13-0.1,0.27-0.1,0.41
			c0,0.15,0.03,0.28,0.08,0.39c0.05,0.11,0.15,0.22,0.28,0.31c0.13,0.09,0.31,0.17,0.54,0.25c0.23,0.07,0.51,0.14,0.86,0.21
			c0.46,0.1,0.86,0.21,1.22,0.33s0.66,0.28,0.91,0.45s0.43,0.38,0.56,0.61c0.13,0.23,0.2,0.5,0.2,0.81c0,0.33-0.07,0.63-0.22,0.89
			c-0.15,0.27-0.35,0.5-0.62,0.69s-0.58,0.34-0.95,0.44c-0.37,0.11-0.77,0.16-1.21,0.16c-0.5,0-0.95-0.07-1.34-0.2
			s-0.72-0.31-1-0.53c-0.27-0.22-0.48-0.48-0.62-0.77c-0.14-0.29-0.22-0.6-0.22-0.91h1.26c0.02,0.26,0.09,0.48,0.21,0.66
			c0.12,0.18,0.27,0.32,0.45,0.43c0.18,0.11,0.38,0.19,0.6,0.23c0.22,0.04,0.44,0.07,0.65,0.07c0.53,0,0.95-0.1,1.26-0.29
			C450.7,292.46,450.86,292.2,450.86,291.88z"/>
		<path class="st7" d="M456.79,291.22l0.33,0.89l2.26-5.67h1.42l-3.75,8.54c-0.09,0.19-0.2,0.39-0.33,0.61
			c-0.13,0.21-0.3,0.41-0.49,0.59c-0.19,0.18-0.41,0.34-0.67,0.46s-0.55,0.18-0.88,0.18c-0.06,0-0.13,0-0.2-0.01
			s-0.15-0.02-0.22-0.03s-0.14-0.02-0.21-0.04s-0.12-0.03-0.16-0.04l0.21-1.03c0.03,0,0.08,0,0.13,0.01c0.05,0,0.11,0.01,0.17,0.01
			c0.06,0,0.12,0.01,0.17,0.01s0.1,0,0.13,0c0.17,0,0.33-0.05,0.48-0.14c0.14-0.1,0.27-0.21,0.38-0.34
			c0.11-0.13,0.21-0.27,0.29-0.41c0.08-0.14,0.14-0.26,0.19-0.35l0.51-0.98l-3.19-7.05h1.42L456.79,291.22z"/>
		<path class="st7" d="M465.34,292.95c0.23,0,0.45-0.04,0.67-0.11c0.22-0.07,0.41-0.17,0.58-0.3c0.17-0.13,0.3-0.28,0.41-0.46
			s0.16-0.37,0.16-0.57h1.2c0,0.33-0.09,0.64-0.26,0.94s-0.39,0.56-0.67,0.79c-0.28,0.23-0.6,0.41-0.96,0.54
			c-0.36,0.13-0.74,0.2-1.13,0.2c-0.56,0-1.05-0.1-1.47-0.3c-0.42-0.2-0.77-0.47-1.05-0.81s-0.49-0.73-0.63-1.18
			c-0.14-0.44-0.21-0.91-0.21-1.4V290c0-0.49,0.07-0.96,0.21-1.4c0.14-0.45,0.35-0.84,0.63-1.18s0.63-0.61,1.05-0.81
			c0.42-0.2,0.91-0.3,1.47-0.3c0.44,0,0.84,0.07,1.21,0.21s0.68,0.33,0.95,0.57s0.47,0.52,0.62,0.85s0.23,0.68,0.23,1.05h-1.2
			c0-0.22-0.05-0.43-0.15-0.63s-0.22-0.37-0.38-0.52c-0.16-0.15-0.35-0.27-0.57-0.36c-0.22-0.09-0.46-0.13-0.71-0.13
			c-0.39,0-0.72,0.08-0.99,0.24s-0.48,0.36-0.65,0.62s-0.28,0.54-0.35,0.85s-0.11,0.63-0.11,0.95v0.29c0,0.32,0.04,0.64,0.11,0.96
			s0.19,0.6,0.35,0.85s0.38,0.46,0.64,0.62S464.95,292.95,465.34,292.95z"/>
		<path class="st7" d="M471.58,287.54c0.26-0.39,0.59-0.69,0.98-0.91c0.39-0.22,0.82-0.33,1.31-0.33c0.39,0,0.74,0.05,1.06,0.17
			s0.59,0.29,0.81,0.52c0.22,0.24,0.4,0.54,0.52,0.9s0.18,0.79,0.18,1.29v4.66h-1.26v-4.67c0-0.61-0.14-1.06-0.43-1.35
			c-0.29-0.3-0.7-0.44-1.24-0.44c-0.41,0-0.77,0.1-1.1,0.3s-0.6,0.46-0.8,0.79v5.37h-1.27v-10.5h1.27V287.54z"/>
		<path class="st7" d="M481.7,293.98c-0.52,0-1-0.09-1.43-0.27c-0.43-0.18-0.81-0.43-1.12-0.74c-0.31-0.32-0.55-0.7-0.72-1.13
			s-0.26-0.91-0.26-1.43v-0.29c0-0.6,0.1-1.13,0.29-1.6s0.45-0.87,0.76-1.2c0.32-0.33,0.68-0.58,1.08-0.75
			c0.4-0.17,0.82-0.26,1.24-0.26c0.53,0,1,0.09,1.4,0.28c0.4,0.18,0.73,0.44,1,0.77s0.46,0.71,0.59,1.15
			c0.13,0.44,0.2,0.92,0.2,1.44v0.57h-5.28c0.01,0.34,0.08,0.65,0.19,0.95c0.12,0.3,0.28,0.55,0.48,0.78
			c0.2,0.22,0.45,0.4,0.73,0.52c0.28,0.13,0.59,0.19,0.94,0.19c0.45,0,0.85-0.09,1.2-0.27c0.35-0.18,0.64-0.42,0.88-0.72l0.77,0.6
			c-0.12,0.19-0.28,0.37-0.46,0.54c-0.19,0.17-0.4,0.32-0.64,0.46c-0.24,0.13-0.51,0.24-0.82,0.32S482.06,293.98,481.7,293.98z
			 M481.54,287.35c-0.25,0-0.5,0.05-0.72,0.14s-0.43,0.23-0.62,0.41s-0.34,0.4-0.46,0.66c-0.12,0.26-0.21,0.56-0.26,0.91h3.98v-0.1
			c-0.01-0.25-0.06-0.49-0.14-0.73c-0.08-0.24-0.2-0.46-0.35-0.65s-0.35-0.35-0.58-0.46C482.14,287.41,481.86,287.35,481.54,287.35z
			"/>
		<path class="st7" d="M434.46,313.26h-3.32l-0.8,2.58h-1.26l3.21-9.95h1.06l3.16,9.95h-1.26L434.46,313.26z M431.47,312.16h2.65
			l-1.31-4.32L431.47,312.16z"/>
		<path class="st7" d="M442.74,313.88c0-0.15-0.03-0.29-0.09-0.41c-0.06-0.12-0.16-0.23-0.3-0.33c-0.14-0.1-0.33-0.19-0.56-0.28
			s-0.52-0.16-0.87-0.23c-0.42-0.09-0.81-0.19-1.16-0.31s-0.65-0.27-0.9-0.44s-0.44-0.37-0.58-0.6s-0.21-0.5-0.21-0.8
			c0-0.3,0.07-0.58,0.21-0.84c0.14-0.26,0.34-0.49,0.6-0.69c0.25-0.2,0.56-0.35,0.91-0.46c0.35-0.11,0.74-0.17,1.17-0.17
			c0.46,0,0.87,0.06,1.23,0.18c0.36,0.12,0.67,0.28,0.93,0.49c0.25,0.21,0.45,0.45,0.59,0.73s0.21,0.58,0.21,0.91h-1.26
			c0-0.16-0.04-0.32-0.12-0.47s-0.2-0.29-0.34-0.41c-0.15-0.12-0.32-0.21-0.53-0.29c-0.21-0.07-0.44-0.11-0.7-0.11
			c-0.27,0-0.51,0.03-0.71,0.09c-0.2,0.06-0.37,0.14-0.51,0.24c-0.13,0.1-0.24,0.22-0.3,0.35c-0.07,0.13-0.1,0.27-0.1,0.41
			c0,0.15,0.03,0.28,0.08,0.39c0.05,0.11,0.15,0.22,0.28,0.31c0.13,0.09,0.31,0.17,0.54,0.25c0.23,0.07,0.51,0.14,0.86,0.21
			c0.46,0.1,0.86,0.21,1.22,0.33c0.36,0.13,0.66,0.28,0.91,0.45s0.43,0.38,0.56,0.61s0.2,0.5,0.2,0.81c0,0.33-0.07,0.63-0.22,0.89
			c-0.15,0.27-0.35,0.5-0.62,0.69c-0.26,0.19-0.58,0.34-0.95,0.44c-0.37,0.11-0.77,0.16-1.21,0.16c-0.5,0-0.95-0.07-1.34-0.2
			c-0.39-0.13-0.72-0.31-0.99-0.53s-0.48-0.48-0.62-0.77c-0.14-0.29-0.22-0.6-0.22-0.91h1.27c0.02,0.26,0.09,0.48,0.21,0.66
			s0.27,0.32,0.45,0.43s0.38,0.19,0.6,0.23c0.22,0.04,0.43,0.07,0.65,0.07c0.53,0,0.96-0.1,1.27-0.29
			C442.58,314.46,442.74,314.2,442.74,313.88z"/>
		<path class="st7" d="M448.94,306.65v1.79h2.82v0.98h-2.82v4.02c0,0.29,0.04,0.52,0.11,0.71c0.07,0.19,0.17,0.34,0.3,0.45
			c0.13,0.11,0.27,0.19,0.44,0.24c0.17,0.05,0.34,0.07,0.53,0.07c0.14,0,0.28-0.01,0.42-0.02c0.15-0.02,0.29-0.04,0.43-0.06
			c0.14-0.02,0.27-0.05,0.39-0.07s0.22-0.05,0.3-0.07l0.18,0.9c-0.1,0.06-0.23,0.12-0.38,0.17s-0.31,0.09-0.49,0.12
			s-0.37,0.06-0.56,0.08c-0.2,0.02-0.4,0.03-0.59,0.03c-0.33,0-0.63-0.05-0.92-0.14s-0.53-0.24-0.74-0.44
			c-0.21-0.2-0.38-0.46-0.5-0.79s-0.18-0.71-0.18-1.17v-4.02h-1.94v-0.98h1.94v-1.79H448.94z"/>
		<path class="st7" d="M457.34,315.98c-0.52,0-1-0.09-1.43-0.27c-0.44-0.18-0.81-0.43-1.12-0.74c-0.31-0.32-0.55-0.7-0.72-1.13
			s-0.26-0.91-0.26-1.43v-0.29c0-0.6,0.1-1.13,0.29-1.6s0.45-0.87,0.76-1.2c0.32-0.33,0.68-0.58,1.08-0.75
			c0.4-0.17,0.82-0.26,1.24-0.26c0.53,0,1,0.09,1.4,0.28c0.4,0.18,0.73,0.44,0.99,0.77s0.46,0.71,0.59,1.15
			c0.13,0.44,0.19,0.92,0.19,1.44v0.57h-5.28c0.01,0.34,0.08,0.65,0.2,0.95c0.12,0.3,0.28,0.55,0.48,0.78
			c0.2,0.22,0.45,0.4,0.73,0.52c0.28,0.13,0.59,0.19,0.94,0.19c0.45,0,0.85-0.09,1.2-0.27c0.35-0.18,0.64-0.42,0.88-0.72l0.77,0.6
			c-0.12,0.19-0.28,0.37-0.46,0.54c-0.18,0.17-0.4,0.32-0.64,0.46c-0.24,0.13-0.52,0.24-0.82,0.32S457.7,315.98,457.34,315.98z
			 M457.17,309.35c-0.26,0-0.5,0.05-0.72,0.14s-0.43,0.23-0.62,0.41s-0.34,0.4-0.46,0.66c-0.13,0.26-0.21,0.56-0.26,0.91h3.98v-0.1
			c-0.01-0.25-0.06-0.49-0.14-0.73c-0.08-0.24-0.2-0.46-0.35-0.65s-0.35-0.35-0.58-0.46C457.77,309.41,457.5,309.35,457.17,309.35z"
			/>
		<path class="st7" d="M467.04,308.31c0.12,0,0.24,0,0.37,0.01s0.25,0.02,0.37,0.03c0.12,0.02,0.22,0.04,0.32,0.06
			c0.1,0.02,0.18,0.05,0.24,0.08l-0.17,1.24c-0.25-0.05-0.48-0.09-0.7-0.12c-0.22-0.03-0.45-0.04-0.69-0.04
			c-0.59,0-1.07,0.13-1.44,0.4c-0.37,0.27-0.64,0.65-0.81,1.13v4.74h-1.27v-7.4h1.2l0.06,1.18c0.3-0.41,0.66-0.73,1.08-0.96
			C466.02,308.43,466.5,308.31,467.04,308.31z"/>
		<path class="st7" d="M469.96,312.07c0-0.53,0.08-1.03,0.23-1.49c0.16-0.46,0.38-0.86,0.67-1.19c0.29-0.34,0.64-0.6,1.06-0.8
			c0.42-0.19,0.88-0.29,1.4-0.29c0.52,0,0.99,0.1,1.41,0.29s0.77,0.46,1.06,0.8c0.29,0.34,0.51,0.74,0.67,1.19
			c0.16,0.46,0.23,0.95,0.23,1.49v0.15c0,0.53-0.08,1.03-0.23,1.48c-0.15,0.46-0.38,0.85-0.67,1.19c-0.29,0.34-0.64,0.6-1.06,0.79
			c-0.41,0.19-0.88,0.29-1.4,0.29c-0.52,0-1-0.1-1.41-0.29s-0.77-0.46-1.06-0.79c-0.29-0.34-0.51-0.73-0.67-1.19
			c-0.15-0.46-0.23-0.95-0.23-1.48V312.07z M471.22,312.22c0,0.37,0.04,0.71,0.13,1.04c0.09,0.33,0.22,0.62,0.39,0.87
			c0.17,0.25,0.4,0.45,0.66,0.6c0.26,0.15,0.57,0.22,0.92,0.22c0.35,0,0.65-0.07,0.91-0.22c0.26-0.15,0.48-0.34,0.66-0.6
			c0.18-0.25,0.31-0.54,0.39-0.87c0.09-0.33,0.13-0.68,0.13-1.04v-0.15c0-0.36-0.04-0.71-0.13-1.04s-0.22-0.62-0.4-0.87
			c-0.17-0.25-0.39-0.45-0.66-0.6s-0.57-0.22-0.92-0.22c-0.35,0-0.66,0.07-0.92,0.22s-0.48,0.35-0.65,0.6
			c-0.17,0.25-0.31,0.54-0.39,0.87c-0.09,0.33-0.13,0.68-0.13,1.04V312.22z"/>
		<path class="st7" d="M478.63,308.45h3.78v6.3h2.41v1.09h-6.19v-1.09h2.52v-5.2h-2.52V308.45z M480.98,306.5
			c0-0.21,0.06-0.39,0.19-0.53s0.32-0.22,0.57-0.22c0.25,0,0.44,0.07,0.57,0.22c0.13,0.14,0.19,0.32,0.19,0.53
			c0,0.21-0.06,0.38-0.19,0.51c-0.13,0.14-0.32,0.21-0.57,0.21c-0.25,0-0.45-0.07-0.57-0.21S480.98,306.71,480.98,306.5z"/>
		<path class="st7" d="M486.31,312.08c0-0.55,0.07-1.06,0.21-1.52c0.14-0.46,0.34-0.86,0.59-1.19c0.26-0.33,0.57-0.59,0.93-0.78
			c0.37-0.19,0.77-0.28,1.22-0.28c0.44,0,0.83,0.07,1.16,0.22c0.33,0.15,0.62,0.36,0.86,0.65v-3.83h1.26v10.5h-1.16l-0.05-0.78
			c-0.25,0.3-0.54,0.53-0.88,0.68c-0.34,0.15-0.74,0.23-1.2,0.23c-0.45,0-0.85-0.1-1.21-0.29c-0.36-0.19-0.67-0.46-0.93-0.79
			c-0.26-0.34-0.45-0.74-0.59-1.19s-0.21-0.95-0.21-1.48V312.08z M487.58,312.22c0,0.36,0.04,0.7,0.12,1.03
			c0.08,0.32,0.2,0.61,0.36,0.86c0.16,0.25,0.37,0.44,0.62,0.58s0.55,0.21,0.9,0.21c0.21,0,0.41-0.02,0.58-0.07
			c0.17-0.05,0.33-0.12,0.47-0.22s0.27-0.21,0.38-0.33s0.21-0.27,0.29-0.43v-3.43c-0.16-0.3-0.38-0.55-0.66-0.74
			s-0.62-0.29-1.04-0.29c-0.36,0-0.66,0.07-0.91,0.22c-0.25,0.15-0.46,0.34-0.62,0.59c-0.16,0.25-0.28,0.54-0.36,0.86
			s-0.12,0.67-0.12,1.03V312.22z"/>
	</g>
	<g>
		<path class="st1" d="M430.55,126.13h-50.19c-1.9,0-3.45-1.55-3.45-3.45v0c0-1.9,1.55-3.45,3.45-3.45h50.19
			c1.9,0,3.45,1.55,3.45,3.45v0C434,124.58,432.45,126.13,430.55,126.13z"/>
	</g>
	<g>
		<path class="st1" d="M349.55,109.27h-50.19c-1.9,0-3.45-1.55-3.45-3.45v0c0-1.9,1.55-3.45,3.45-3.45h50.19
			c1.9,0,3.45,1.55,3.45,3.45v0C353,107.72,351.45,109.27,349.55,109.27z"/>
	</g>
	<g>
		<path class="st1" d="M288.55,159.68h-50.19c-1.9,0-3.45-1.55-3.45-3.45l0,0c0-1.9,1.55-3.45,3.45-3.45h50.19
			c1.9,0,3.45,1.55,3.45,3.45l0,0C292,158.13,290.45,159.68,288.55,159.68z"/>
	</g>
	<g>
		<path class="st1" d="M367.69,125.99h-36.5c-1.82,0-3.3-1.49-3.3-3.3v0c0-1.82,1.49-3.3,3.3-3.3h36.5c1.82,0,3.3,1.49,3.3,3.3l0,0
			C371,124.5,369.51,125.99,367.69,125.99z"/>
	</g>
	<g>
		<path class="st1" d="M321.2,142.23H295c-1.82,0-3.3-1.49-3.3-3.3l0,0c0-1.82,1.49-3.3,3.3-3.3h26.2c1.82,0,3.3,1.49,3.3,3.3l0,0
			C324.5,140.74,323.02,142.23,321.2,142.23z"/>
	</g>
	<g>
		<path class="st1" d="M377.2,91.71H351c-1.82,0-3.3-1.49-3.3-3.3v0c0-1.82,1.49-3.3,3.3-3.3h26.2c1.82,0,3.3,1.49,3.3,3.3v0
			C380.5,90.23,379.02,91.71,377.2,91.71z"/>
	</g>
	<g>
		<path class="st1" d="M356.94,159.54h-26.2c-1.82,0-3.3-1.49-3.3-3.3l0,0c0-1.82,1.49-3.3,3.3-3.3h26.2c1.82,0,3.3,1.49,3.3,3.3
			l0,0C360.24,158.05,358.76,159.54,356.94,159.54z"/>
	</g>
	<g>
		<path class="st1" d="M301.94,91.71h-26.2c-1.82,0-3.3-1.49-3.3-3.3v0c0-1.82,1.49-3.3,3.3-3.3h26.2c1.82,0,3.3,1.49,3.3,3.3v0
			C305.24,90.23,303.76,91.71,301.94,91.71z"/>
	</g>
	<g>
		<path class="st1" d="M391.59,142.23h-36.5c-1.82,0-3.3-1.49-3.3-3.3l0,0c0-1.82,1.49-3.3,3.3-3.3h36.5c1.82,0,3.3,1.49,3.3,3.3
			l0,0C394.89,140.74,393.41,142.23,391.59,142.23z"/>
	</g>
	<g>
		<path class="st1" d="M342.95,142.23h-7.88c-1.82,0-3.3-1.49-3.3-3.3l0,0c0-1.82,1.49-3.3,3.3-3.3h7.88c1.82,0,3.3,1.49,3.3,3.3
			l0,0C346.25,140.74,344.76,142.23,342.95,142.23z"/>
	</g>
	<g>
		<path class="st1" d="M299.95,177.66h-7.88c-1.82,0-3.3-1.49-3.3-3.3l0,0c0-1.82,1.49-3.3,3.3-3.3h7.88c1.82,0,3.3,1.49,3.3,3.3
			l0,0C303.25,176.17,301.76,177.66,299.95,177.66z"/>
	</g>
	<g>
		<path class="st1" d="M315.43,125.99h-3.12c-1.82,0-3.3-1.49-3.3-3.3v0c0-1.82,1.49-3.3,3.3-3.3h3.12c1.82,0,3.3,1.49,3.3,3.3v0
			C318.73,124.5,317.25,125.99,315.43,125.99z"/>
	</g>
	<g>
		<path class="st1" d="M329.43,91.71h-3.12c-1.82,0-3.3-1.49-3.3-3.3v0c0-1.82,1.49-3.3,3.3-3.3h3.12c1.82,0,3.3,1.49,3.3,3.3v0
			C332.73,90.23,331.25,91.71,329.43,91.71z"/>
	</g>
	<g>
		<path class="st1" d="M418.57,109.78h-3.12c-1.82,0-3.3-1.49-3.3-3.3v0c0-1.82,1.49-3.3,3.3-3.3h3.12c1.82,0,3.3,1.49,3.3,3.3v0
			C421.88,108.29,420.39,109.78,418.57,109.78z"/>
	</g>
	<g>
		<path class="st1" d="M254.57,109.78h-3.12c-1.82,0-3.3-1.49-3.3-3.3l0,0c0-1.82,1.49-3.3,3.3-3.3h3.12c1.82,0,3.3,1.49,3.3,3.3v0
			C257.88,108.29,256.39,109.78,254.57,109.78z"/>
	</g>
	<g>
		<path class="st1" d="M281.42,142.23h-3.12c-1.82,0-3.3-1.49-3.3-3.3l0,0c0-1.82,1.49-3.3,3.3-3.3h3.12c1.82,0,3.3,1.49,3.3,3.3
			l0,0C284.73,140.74,283.24,142.23,281.42,142.23z"/>
	</g>
	<g>
		<path class="st1" d="M226.42,159.54h-3.12c-1.82,0-3.3-1.49-3.3-3.3l0,0c0-1.82,1.49-3.3,3.3-3.3h3.12c1.82,0,3.3,1.49,3.3,3.3
			l0,0C229.73,158.05,228.24,159.54,226.42,159.54z"/>
	</g>
	<g>
		<path class="st1" d="M314.96,159.54h-7.88c-1.82,0-3.3-1.49-3.3-3.3l0,0c0-1.82,1.49-3.3,3.3-3.3h7.88c1.82,0,3.3,1.49,3.3,3.3
			l0,0C318.27,158.05,316.78,159.54,314.96,159.54z"/>
	</g>
	<g>
		<path class="st1" d="M401.64,109.99h-20.9c-1.87,0-3.39-1.53-3.39-3.39v0c0-1.87,1.53-3.39,3.39-3.39h20.9
			c1.87,0,3.39,1.53,3.39,3.39v0C405.03,108.46,403.5,109.99,401.64,109.99z"/>
	</g>
	<g>
		<path class="st1" d="M290.64,126.08h-20.9c-1.87,0-3.39-1.53-3.39-3.39v0c0-1.87,1.53-3.39,3.39-3.39h20.9
			c1.87,0,3.39,1.53,3.39,3.39v0C294.03,124.55,292.5,126.08,290.64,126.08z"/>
	</g>
	<g>
		
			<ellipse transform="matrix(0.3325 -0.9431 0.9431 0.3325 231.977 500.6541)" class="st6" cx="469.68" cy="86.45" rx="43.62" ry="43.62"/>
	</g>
</g>
</svg>
