<?xml version="1.0" encoding="UTF-8"?> <svg xmlns="http://www.w3.org/2000/svg" xmlns:xlink="http://www.w3.org/1999/xlink" version="1.1" id="collision_graphic" x="0px" y="0px" viewBox="0 0 332.5 580.4" style="enable-background:new 0 0 332.5 580.4;" xml:space="preserve"> <style type="text/css"> .st0{fill:#825E7B;} .st1{fill:none;stroke:#5A2751;stroke-width:3;stroke-miterlimit:10;} .st2{fill:none;stroke:#5A2751;stroke-width:3;stroke-linecap:round;stroke-linejoin:round;stroke-miterlimit:10;} .st3{fill:#825E7B;stroke:#5A2751;stroke-width:3;stroke-linecap:round;stroke-linejoin:round;stroke-miterlimit:10;} .st4{fill:#B5677D;stroke:#A53F5B;stroke-width:3;stroke-linecap:round;stroke-linejoin:round;stroke-miterlimit:10;} .st5{fill:#825E7B;stroke:#5A2751;stroke-width:3;stroke-miterlimit:10;} </style> <path class="st0" d="M87.8,389.5l-2.1,21l4.3,1.4l-13.3,7.3l0.3,16.2l16.8,3.8l1.5,13.8l-4.9-0.5l-8.1-5l-6.4,2l-5.3,9.6l9.6,7.2 c0,0-2.8,20.1,10.6,26.2v8.3c0,0-13.5,7.8-12.3,20.2c1.1,12.4,8.5,23.1,18.8,24s32.5-3,33.7-19.5c1.2-16.4-7.6-21.1-7.6-21.1 l-0.8-12.2c0,0,9.6-3.8,9.7-18.9s-5.9-18.7-10.6-21.7l0.4-32.3l21.4-5.5c0,0,1.2-1.6,1.7-5.4c0.5-3.8-9.8-1.2-9.8-1.2L87.8,389.5z"></path> <path class="st1" d="M102.3,458.9c-2.9-0.1-13.2,0.4-14.7,12c-1.4,11.4,6.7,15.9,13.1,16.2c6.4,0.3,15.1-3.5,14.8-14.4 C115.3,461.1,106.6,459.1,102.3,458.9z"></path> <path class="st1" d="M101.4,508.4c-2.9-0.1-13.2,0.4-14.7,12c-1.4,11.4,6.7,15.9,13.1,16.2s15.1-3.5,14.8-14.4 C114.4,510.5,105.8,508.6,101.4,508.4z"></path> <path class="st1" d="M103.5,451.6c0,0-23.2-2.3-23.9,20.1c-0.7,22.2,18.5,22.8,23.1,23.1c5.9,0.3,19.7-2.6,21.1-19 C125.3,457.9,110.7,451.1,103.5,451.6z"></path> <path class="st1" d="M106.3,494.6c0,0,11.9,0.2,16.1-1.7c4.2-1.9,9.9-8.1,10.5-18.9c0.7-11.7-5.2-19.9-12.3-23.3"></path> <line class="st1" x1="90.6" y1="493.4" x2="90.6" y2="502.1"></line> <path class="st2" d="M102.9,544.3c0,0,25.3,2.6,28.3-19.3c2-14.7-8.3-22.3-8.3-22.3"></path> <polyline class="st2" points="115,495.1 114.8,503.8 123.2,502.1 123.4,493.2 "></polyline> <polyline class="st3" points="113.1,541.9 120.1,551.9 127.4,549.2 132.4,543.2 125.3,532.9 120.8,534.2 "></polyline> <polyline class="st2" points="120.1,551.7 126,544.8 131.1,542.3 "></polyline> <line class="st2" x1="126" y1="544.8" x2="119.6" y2="535.9"></line> <polyline class="st2" points="80.4,466 70.7,458.5 75.8,449.1 82.6,446.9 91.3,453.1 "></polyline> <line class="st2" x1="75.8" y1="449.1" x2="85.4" y2="457.1"></line> <line class="st2" x1="95.7" y1="440.4" x2="95.8" y2="451.5"></line> <polygon class="st2" points="112.3,452.4 121.5,450.6 121.7,419.1 112.5,422 "></polygon> <polyline class="st2" points="111.2,422.4 101.9,425.3 101.5,441.3 "></polyline> <line class="st2" x1="101.9" y1="424.8" x2="77.2" y2="419.1"></line> <polyline class="st2" points="85.9,394 86,410.3 91.9,412.2 "></polyline> <polyline class="st2" points="91.9,412.2 76.8,418 76.5,435.1 101.5,441.3 111.6,437.8 "></polyline> <polyline class="st2" points="123.7,408.2 123.4,419.4 91.9,412.2 "></polyline> <path class="st2" d="M143.1,413c-3.2,0.8-11.5,4-19.3,6.4"></path> <polygon class="st4" points="23.6,185.1 139.8,99.2 312.4,138.7 204.4,233.9 "></polygon> <polygon class="st4" points="23.6,185.1 27.4,375.2 200.7,430.2 204.4,233.9 "></polygon> <polyline class="st4" points="231.8,397.6 306.4,314.6 312.4,138.7 204.4,233.9 200.7,430.2 206.5,424.1 "></polyline> <path class="st5" d="M81,265c20.6-11.3,40-10.9,64.2,15.6c21.5,23.6,17.1,61.2,1.3,71.4"></path> <ellipse transform="matrix(0.8042 -0.5943 0.5943 0.8042 -164.1016 125.9265)" class="st5" cx="109.1" cy="312.1" rx="41.7" ry="55"></ellipse> <polygon class="st4" points="42.5,368.8 41.3,377.8 38.4,373.1 "></polygon> <polygon class="st4" points="33.7,366 42.5,368.8 38.4,373.1 30.4,370.6 "></polygon> <polygon class="st4" points="41.3,377.8 31.5,374.2 30.4,370.6 38.4,373.1 "></polygon> <polygon class="st4" points="192.6,416.5 191.4,425.4 188.5,420.7 "></polygon> <ellipse transform="matrix(0.8042 -0.5943 0.5943 0.8042 -164.1016 125.9265)" class="st5" cx="109.1" cy="312.1" rx="36.8" ry="48.6"></ellipse> <polygon class="st4" points="183.8,413.6 192.6,416.5 188.5,420.7 180.4,418.3 "></polygon> <polygon class="st4" points="191.4,425.4 181.6,421.9 180.4,418.3 188.5,420.7 "></polygon> <polygon class="st4" points="195.3,235.2 194.7,244.9 191.3,240.1 "></polygon> <polygon class="st4" points="185.7,232.8 195.3,235.2 191.3,240.1 182.4,238.1 "></polygon> <polygon class="st4" points="194.7,244.9 183.9,241.8 182.4,238.1 191.3,240.1 "></polygon> <polygon class="st4" points="40.1,193.5 39.1,203.3 35.8,198.3 "></polygon> <polygon class="st4" points="30.5,190.7 40.1,193.5 35.8,198.3 26.9,195.9 "></polygon> <polygon class="st4" points="39.1,203.3 28.3,199.8 26.9,195.9 35.8,198.3 "></polygon> <polygon class="st4" points="215.7,239.5 214.9,274.3 236.1,252.6 237.1,220.9 "></polygon> <polygon class="st4" points="209.1,237.7 215.7,239.5 237.1,220.9 229.1,219.1 "></polygon> <polygon class="st4" points="208,273 214.9,274.3 215.7,239.5 209.1,237.7 "></polygon> <line class="st4" x1="215.1" y1="251.3" x2="236.4" y2="233.4"></line> <line class="st4" x1="236.9" y1="236.8" x2="215.6" y2="256.1"></line> <polygon class="st4" points="262.4,230.8 261.6,262.6 281.3,242.4 283.8,212.3 "></polygon> <polygon class="st4" points="255.8,229.1 262.4,230.8 283.8,212.3 275.8,210.5 "></polygon> <polygon class="st4" points="254.7,261.2 261.6,262.6 262.4,230.8 255.8,229.1 "></polygon> <line class="st4" x1="261.8" y1="242.7" x2="282.5" y2="222.9"></line> <line class="st4" x1="282.4" y1="227.5" x2="261.7" y2="248.7"></line> <polygon class="st4" points="214.7,293.8 213.9,328.7 235.1,306.9 236.1,275.2 "></polygon> <polygon class="st4" points="208.1,292 214.7,293.8 236.1,275.2 228.1,273.4 "></polygon> <polygon class="st4" points="207,327.3 213.9,328.7 214.7,293.8 208.1,292 "></polygon> <line class="st4" x1="214.4" y1="306.6" x2="235.4" y2="287.7"></line> <line class="st4" x1="235.3" y1="292.3" x2="214.3" y2="312.6"></line> <polygon class="st4" points="214.2,336.8 213.1,367.6 233.4,346.2 234.7,318.2 "></polygon> <polygon class="st4" points="207.6,335.1 214.2,336.8 234.7,318.2 226.6,316.4 "></polygon> <polygon class="st4" points="207.1,367.1 213.1,367.6 214.2,336.8 207.6,335.1 "></polygon> <line class="st4" x1="214" y1="346.5" x2="233.6" y2="328"></line> <line class="st4" x1="233.5" y1="332.6" x2="213.8" y2="352.5"></line> <polygon class="st4" points="211.3,394.5 210.9,424 231.2,402.5 231.5,374.9 "></polygon> <polygon class="st4" points="205.4,392.5 211.3,394.5 231.5,374.9 224.7,373.8 "></polygon> <polygon class="st4" points="205.2,423.3 210.9,424 211.3,394.5 205.4,392.5 "></polygon> <line class="st4" x1="212" y1="403.9" x2="231.4" y2="384.3"></line> <line class="st4" x1="231.2" y1="389" x2="211.9" y2="409.8"></line> <polyline class="st3" points="102.2,173.5 102.5,188 138.9,197.6 161.3,178.3 160.8,157.2 137,152.5 "></polyline> <path class="st0" d="M105.5,84.4V98c0,0,16.7-5.3,23.1,2.7s10.2-4.5,10.2-4.5L138.7,80L105.5,84.4z"></path> <path class="st5" d="M126.7,40.6c-1.8-0.1-8.1,1-11.8,1.6c-7,1.2-12.7,3.6-17.1,9.6c-7.1,9.6-3.7,21.1-3.7,21.7 c0,0.5,3.9,15.8,21.3,15.5c14.6-0.3,24-3.2,28.1-10.9c1.9-3.4,5-10.5,1.6-20.9C141.3,45.2,131.8,40.8,126.7,40.6z"></path> <polygon class="st0" points="110.4,140.4 110.2,146.6 127.1,151.2 129,172 135.9,165.7 135.9,138.2 "></polygon> <polyline class="st3" points="93.8,128.1 87.3,133.8 92.9,141.6 98.3,140.8 101.9,137.4 "></polyline> <line class="st2" x1="93.4" y1="139.6" x2="98.4" y2="134.9"></line> <path class="st1" d="M108.3,43.9c0,0,10.6-2.7,18.2,3.3c17.1,13.5,12.2,39.6-4.1,41.4"></path> <path class="st1" d="M115.7,52.6c-2.9-0.4-13.4-0.3-14.8,11.4c-1.4,11.4,6.2,16.7,12.6,16.9s14.3-2.8,14-13.6 C127.3,55.6,120.2,53.2,115.7,52.6z"></path> <path class="st5" d="M107.9,96.8c-4,1.5-7.5,3.8-10.1,7.9c-6.6,10.4-3.7,21.1-3.7,21.7c0,0.5,4,14,21.3,15.5 c9.3,0.8,27.6-2,32.3-14.1c6.2-16.1-3.2-30.5-10.2-33.3"></path> <path class="st1" d="M107.7,96.8c0,0,12.1-3.3,20.1,2.2c17.7,12.1,12.2,40.9-4.4,42.6"></path> <path class="st1" d="M115.7,105c-2.9-0.4-12.6-0.2-14.1,11.4c-1.4,11.4,5.7,16.4,12.1,16.7c6.4,0.3,15-2.4,14.8-13.3 C128.2,108.2,120.1,105.6,115.7,105z"></path> <line class="st1" x1="105.7" y1="96.7" x2="105.7" y2="87.5"></line> <polyline class="st1" points="128.1,87.2 128.5,97.9 138.1,93.7 138.3,83.7 "></polyline> <polyline class="st3" points="136.8,50.4 141.8,50.6 147.4,42.8 143.6,40.4 "></polyline> <polygon class="st3" points="127.1,151.2 110.1,148.3 94.9,154.9 95.2,175.8 116.3,182.4 127.8,173.3 "></polygon> <line class="st2" x1="110.1" y1="148.3" x2="109.9" y2="142.1"></line> <line class="st2" x1="127" y1="141.5" x2="127" y2="154.4"></line> <polyline class="st2" points="135.8,139.8 135.9,165.7 127.7,173.2 "></polyline> <path class="st2" d="M115.4,180.4c-0.6-0.2-0.4-21.1-0.4-21.1l10.1-5.9"></path> <line class="st2" x1="94.9" y1="154.9" x2="115" y2="159.3"></line> <polyline class="st2" points="138.8,197.1 138.3,174.1 159.4,157.1 "></polyline> <line class="st2" x1="130.1" y1="173.1" x2="137.4" y2="174.6"></line> <path class="st3" d="M129.6,44.4c0,0,2.3,1.2,3.6,2.3c1.3,1,2.9,3.2,2.9,3.2l7.1-9.9l-6.8-5.2L129.6,44.4z"></path> <path class="st1" d="M102,500.7c-1.5,0-22.6-2.7-23.3,19.7c-0.7,22.2,18.3,23.8,22.9,23.9c4.5,0.2,19.9-3.5,21.3-19.9 C124.4,506.6,111.1,500.6,102,500.7z"></path> </svg> 