<?xml version="1.0" encoding="UTF-8"?> <svg xmlns="http://www.w3.org/2000/svg" id="Layer_1" data-name="Layer 1" viewBox="0 0 90 90"> <defs> <style>.cls-1{fill:#ccc;}</style> </defs> <title>Artboard 1</title> <path class="cls-1" d="M45 0a45 45 0 1 0 45 45A45.05 45.05 0 0 0 45 0zm0 85a40 40 0 1 1 40-40 40 40 0 0 1-40 40z"></path> <path class="cls-1" d="M70.05 27.7l-22.6-13a4.91 4.91 0 0 0-4.91 0l-22.6 13A4.91 4.91 0 0 0 17.5 32v26a4.9 4.9 0 0 0 2.45 4.25l22.6 13a4.91 4.91 0 0 0 4.91 0l22.6-13A4.91 4.91 0 0 0 72.51 58V32a4.91 4.91 0 0 0-2.46-4.3zM21.79 59.11a1.23 1.23 0 0 1-.61-1.11V33.61l21.88 12.46.09 25.37zm23.1-16.23L22.81 30.3l21.58-12.46a1.23 1.23 0 0 1 1.23 0L67 30.19zM68.82 58a1.23 1.23 0 0 1-.61 1.06L46.83 71.45l-.09-25.39 22.08-12.68z"></path> </svg> 