<?xml version="1.0" encoding="utf-8"?>
<!-- Generator: Adobe Illustrator 21.1.0, SVG Export Plug-In . SVG Version: 6.00 Build 0)  -->
<svg version="1.1" id="Layer_1" xmlns="http://www.w3.org/2000/svg" xmlns:xlink="http://www.w3.org/1999/xlink" x="0px" y="0px"
	 width="396.62px" height="359.76px" viewBox="0 0 396.62 359.76" style="enable-background:new 0 0 396.62 359.76;"
	 xml:space="preserve">
<style type="text/css">
	.st0{fill:#302144;}
	.st1{fill:#EF5966;}
	.st2{fill:#FFFFFF;}
</style>
<circle class="st0" cx="179.88" cy="179.88" r="179.88"/>
<path class="st1" d="M31.7,130.37c30.81,1.93,61.68,2.8,92.49,4.49c31.15,1.71,62.39,3.16,93.59,3.85
	c7.16,0.16,14.34,0.37,21.49,0.77c1.52,0.09,3.75,0.55,5.26,0.13c2-0.56,2.57-2.47,3.85-4.23c2.75-3.81,5.36-2.9,9.36-1.8
	c0.08-3.78-1.82-7.55,1.54-10.39s7.48-1.21,11.16,0.26c0.82-3.18,1.21-6.77,4.5-8.05c2.77-1.08,5.48-1,8.11-2.52
	s4.67-1.81,7.33-0.14c1.11,0.7,2.42,2.45,3.6,2.34s1.84-1.49,3.13-1.5c-0.13,5.88,0.7,11.75,2.45,17.37c0.62,2,2.64,4.65,2.68,6.68
	c0,0.88-1,1.3-0.65,2.21c0.52,1.31,2.53,1,3.47,1.51c1.13,0.66,1.3,2.28,2.05,2.89c0.42,0.34,3.59,1.6,4.11,1.41
	c1.51-0.56,2.49-4.41,4.75-5.39c4.1-1.78,1.37,2.17,2.37,3.85s4.61-0.68,3.53,3c-0.54,1.82-0.5,0.29-1.72,1.22
	c-1.38,1.05-1.14,1-1.91,2.62c-0.87,1.81-2.51,6-4.57,5c-0.34-0.17,0.07-1.52-0.64-1.67c-1-0.19-0.68,0.58-1.25,1
	c-1.36,1-1.39,1.63-3.18,2c-1.19,0.14-2.39,0.19-3.59,0.14c-2.53,0.22-5.18,2-7.38,2.89c-1.41,0.58-5.51,0.28-6.16,1.7
	c0.02,1.01,0.24,2,0.64,2.92c0.64,0.7,1.9-0.06,2.69,0.51c0.58,0.76,0.96,1.65,1.11,2.59c0,2.53-1,1.29-2,1.68
	c-1.25,0.34-2.39,1-3.29,1.93c-0.34,0.42-0.77,2.08-1.07,2.21c-1.81,0.76-4.32-2.13-4.81,1.86c-0.27,2.2,0.82,2.22,2,3.24
	c1,0.83,2.19,1,0.75,1.77c-4,2.13-3.21-4.37-4.11-5.77c-1,0.69-3.15,3.63-3.85,4.75c-0.94,1.28-0.92,3.02,0.06,4.27
	c0.32,0.5,1.13,0.5,1.35,1c0.06,0.14-0.4,1.15-0.26,1.54c0.6,1.62,2.24,3.11,2.18,4.88c-2.16-0.35-1.84-2-4.11-1.41
	c-1.63,0.59-2.7,2.17-2.63,3.91c0,1.23,0.56,1.64,0.86,2.68c0.19,0.76,0.31,1.54,0.36,2.32c0.15,1.18-0.39,2,0.8,3.11
	c1.4,1.26,2.63,0.2,4.33,0.29c1.16,0.06,0.82,0.39,1.92,0.64c0.51,0.23,1.05,0.36,1.61,0.37c1.7-0.4,2.96-1.84,3.13-3.58
	c0-1.91-1.51-1.31-2.44-2.69c0.73-0.18,2.94-0.83,3.57-0.49s0,0.73,0.41,1.26c0.79,1.14,1.15,2.62,2.18,3.59
	c2.33,2.2,7.2,1.63,10,3.85c1.28,1,1.68,3,2.82,4.23c1.62,1.7,2.28,1.53,2.82,4c0.82,3.73,2.5,6.61,4.62,10
	c1,1.61,2.77,3.06,3.66,4.69c1.06,1.92-0.1,1.73-0.33,3.58c-0.11,0.89,1,2.07,0.58,3c-0.34,0.7-0.64,0-1.13,0.59
	c-1.23,1.42-1.62,0.77-1.88,2.88c-0.07,0.57,0.68,1.55,0.51,1.92c-1,2.3-2.24-1-4.11,0.32c-1.53,1.11-0.25,2.35,1,3.72
	c0.89,1,2.43,3,3.66,3.53c1.55,0.71,1.46-0.14,3.09,1.17c2.12,1.7,1.47,1.46,3.79,0.9c2-0.49,3.32,0,4.79,1.91
	c0.92,1.19,0.74,2.26,1.22,3.53c0.7,1.87,1.54,2.74,1.91,4.73c0.81,4.28-2.86,7,0,10.86c1.78,2.47,4.07,4.54,6.71,6.07
	c3.42,1.68,7.11,2.75,10.9,3.16c3.94,0.42,7.8-0.46,10.84,2.12c1.81,1.53,1.13,1.58,2.89-0.19c0.98-1.09,2.1-2.04,3.34-2.82
	c2.93-1.69,6.55-2,9.78-2.57c2.88-0.62,5.68-1.59,8.33-2.88c4.35-2,5.36-4.11,5-8.92c-0.16-2.07-0.17-4.43-0.26-6.29
	c0-0.62,0.71-0.47,0.45-1.15s-1.15-0.1-1.55-0.65c-0.92-1.29-0.68-1-1.08-2.68c-0.23-0.92-0.33-2.27-1-2.6
	c-1.51-0.69-2.47,0.65-3,1.79c-0.85,1.82-0.23,4-0.32,5.94c-2-1.81-1-8.18-1.19-10.81c-0.25-3.4-0.19-7.58-1.71-10.72
	c-1.17-2.42-4.85-5.59-7.58-5.49c-2.16,0.01-3.9,1.77-3.89,3.93c0,0.83,0.27,1.64,0.77,2.31c-1.1-0.23-2.05-0.91-2.62-1.88
	c-0.76-1-2.84-3.05-3.28-4c-1-2.16,2.55-3.33,5.09-3.32c5.57,0,12,3.09,15.78,7.06c7.67,8.08,11.36,22,13,32.79
	c0.89,5.78,1.81,12.44,1.08,18.26c-0.29,2.33-1.1,4.57-2.37,6.54c-1.55,2.34-2.57,4.99-3,7.77c-0.27,1.5-0.12,6.95-2.67,6.7
	s0.89-3.84,1.25-5.33c0.93-3.9,4.22-11.32-0.93-13.24c-2.09-0.78-5.12,0.56-7.44,0.81c-2.92,0.32-5.4,1.63-8.21,2.14
	c-2.98,0.4-5.89,1.16-8.68,2.28c-1.35,0.45-2.59,1.2-3.61,2.19c-0.4,0.44-0.25,2.3-1.43,1.56c-0.76-0.48,0.08-2.5-1-3.3
	c-1.32-1-3.19,0.43-4.6,0.38c-2.66-0.1-3.19-1-5.21,1.25s-3.42,2-6.29,2.57c-2.6,0.53-2.56,2.8-4,4.94c-3,4.35-7.51,3.39-12.25,3.91
	c-1.69,0.17-3.36,0.47-5,0.9c-2.85,0.79-2.72,2.14-4.75,3.72s-4.78,2.68-7,4c-2.77,1.64-3.48,4.21-6.11,5.68
	c-1.64,0.91-2.68,0.59-4.49,1s-2.16,1.15-3.55,2.25c-2.34,1.85-5.63,1.23-8.49,2.21c-1,0.33-2.55,1.75-2.44,0
	c0-0.33,1.51-1.59,1.81-1.71c1.25-0.51,0.49,0,1.4-0.09c1.08-0.1,1.79,0.42,3.33-0.33s2.48-2,3.9-2.81
	c1.18-0.57,2.43-0.99,3.71-1.27c2.35-0.69,2.27-1.2,4-2.7c1-0.86,2.37-1.31,3.45-2.44c1-1.14,2.13-2.14,3.37-3
	c1.84-1.24,5.49-2.76,6.85-4.55c0.63-0.83,0.3-1.33,0.64-2.31S317.85,305,318,304s-0.55-1.89-0.77-2.69c-0.57-2-0.1-1.56,0.26-3.4
	c0.26-1.33,0.09-0.95-0.06-2.25c-0.08-0.63-0.77-0.29-0.61-1.22c0.11-0.6,0.93-0.5,1.06-1c0.33-1.29,0.19-5.37-2.31-4.84
	c1.2-1.2,4.87-2.33,4-4.23c-0.34-0.77-1.48-1.1-2.25-1.28c-0.26-0.06-0.54,0.61-1,0.51c-0.64-0.26-1.26-0.56-1.86-0.9
	c-1.38-0.52-5-2.27-5.9-1.67c-1.19,0.82,1.07,5.43,0.51,7.18c-1.35-0.62-2.55-2.43-4-1.28c-0.62,0.5-0.66,3-0.64,3.85
	c0,1.56,1,3.5-1,3.59c0,0-1-1.17-1.06-1.22c-0.84-0.38-1.74-0.6-2.66-0.64c-3.44,0.91,3.67,4-1.51,4.6c-1.46,0.18-3.27-1.05-4,0.24
	s1,3.72,0.22,5.36c-1.6-1.13-0.79-4-1.7-5.36c-1.53-2.27-3.28-0.49-5,0.61c1.04,1.06,1.56,2.52,1.41,4c-1.1-0.27-1.69-3.4-2.92-2.63
	c-0.67,0.42,0,3.68-1.19,4.81c-0.89-0.85-1.14-0.48-1,0.64c0,0.18,1,1,1.19,1.36c0.32,1.15,0.52,2.32,0.61,3.51
	c-1.95,0.02-3.84,0.69-5.36,1.91c-0.79,0.62-0.71,1.35-2,2c-0.72,0.39-1.6,0.42-2.29,0.81s-1.2,1.32-1.8,1.41s-2.35-0.89-3.14-1.09
	c-2.57-0.66-3.87,0.25-6.22,1.35c-0.23-3.28-0.59-6.54-0.91-9.81c-0.04-1.59-0.21-3.17-0.53-4.73c-0.36-1.25-1-1.27-1-2.74
	c0-1.66,2-5.28,0.69-6.71c-1.13-1.27-4.62-1-6-2c-3.75-2.68-5.17-9.57-9.6-12.4c-0.92-0.59-1.93-1-2.89-1.56
	c-1.19-0.59-2.22-1.46-3-2.53c-1-1.28-0.88-1.88-1.15-3.34c-0.16-0.86-0.68-1.53-0.64-2.37c0-0.47,0.75-0.76,0.77-1.09
	c0-0.69,0-1.85,0-2.84c0.06-1.12,0.06-2.23,0-3.35c-0.15-1.14-0.15-2.29,0-3.43c-1.6,0.14-3.19,0.4-4.75,0.77
	c0-5.45,0.6-11.24,0-16.65c-0.29-2.6-1-1.86-3.79-1.83c-1.56,0-3.12,0.1-4.68,0.13c-2,0-3.82,0.15-5.77,0.26
	c-5.31,0.29-10.59,0.29-15.91,0.5c-3.34,0.13-6.69,0.26-10,0.36c-1,0-4.69,0.73-5.35,0.27s0-1.39-0.48-1.93s-0.36-0.11-1.16-0.39
	c-2-0.69-5.11-0.06-7.22-0.1c-2.93-0.06-5.86-0.15-8.79-0.32c-6-0.36-12.11-0.48-18.1-0.66c-12.28-0.35-24.58-0.54-36.87-0.95
	c-2.55-0.08-5.14-0.25-7.7-0.13c-1.52,0.02-3.04,0.18-4.54,0.48c-1.44,0.35-2.29,1.3-4.05,0.8c-0.27-0.08,0.13-0.79-0.38-0.93
	c-0.34-0.09-0.74,0-1.06-0.11c-0.92-0.14-1.84-0.18-2.77-0.14c-1.76-0.15-3.5-0.59-5.25-0.74s-5.77-0.58-7.09,0.39
	c0.82,0.46,0.6,1.22,0,1.92l-0.38-0.26c0.48,3.44-3.17,3.15-6.16,3.46l0.38-5.65c-11.71-0.65-23.43-0.79-35.14-1.45
	c-11-0.62-22-1.68-33-1.88c-1.55,0-3.41,0.34-4.92,0c-2-0.45-1.81-0.48-2.3-2.77c-0.65-3,0.07-4.82,1-7.75
	c1.8-6,3.62-11.94,5.31-17.93c3.3-11.66,6.86-23.25,10.27-34.88C24,156.14,28.21,143.35,31.7,130.37z M316.75,321.37
	c0.94-0.68,4.76-3.72,5.64-3.59s0.54,1.22,1.35,1.67c0.83,0.47,1.85,0.42,2.63-0.13c1.71,1.56,1.33,3.28,1.5,5.4
	c-0.06,1.34,0.52,2.64,1.57,3.48c1.09,0.87,2.62,0.59,3.58,1.45c1.15,1,0.42,3.42,2.72,2.12s-0.06-5.36,3.72-5.13
	c0.27,1.87,1.28,8.48,0.19,10.07s-6.65,0.83-8.79,0.71c-6.05-0.25-12.11,0.08-18.09,1c-2.57,0.35-5,0.78-7,2.75
	c-0.76,0.76-1,2.6-1.39,2.9c-1.05,0.81-2.44-0.26-3.53-1.09c-1.53-1.16-5.42-4.62-3.34-6c2.33-1.5,4.31,1.44,6.51,0.1
	c1.29-0.78,2.3-3.26,3.13-4.54c1-1.52,2.12-2.19,3.1-3.59c0.85-1.2,1-2.93,2.14-4.22c1.34-1.25,2.8-2.36,4.36-3.31V321.37z
	 M376,344.77c3.91-0.65,6.53-1.41,8.87-4.8c1.31-1.74,1.73-4,1.14-6.1c-0.48-1.36-2.18-2.1-2.05-3.59
	c4.36,1.41,6.78,10.26,8.69,13.88c3.06,5.79-0.44,9.12-6.65,8.38c-5.4-0.64-9.64,0.3-14.88-1.86c-2.9-1.2-12.06-4.29-12.19-8
	c3.49-0.56,3.78,3.27,7.26,2.82C369.25,345.15,373,345.46,376,344.77z M297,299.86c0.94,0.89,1.32,2.21,1,3.46
	C296.54,302.94,295.81,300.7,297,299.86z"/>
<path class="st2" d="M96.73,178.64l1.62,5l1.75-5h1.57v10h-1.23v-4l0.1-4.16l-1.84,5.36H98l-1.69-5.22l0.1,4v4h-1.25v-10
	L96.73,178.64z"/>
<path class="st2" d="M108.32,188.59c-0.06-0.11-0.1-0.24-0.12-0.36c-0.03-0.15-0.05-0.3-0.06-0.45c-0.13,0.13-0.28,0.25-0.43,0.36
	c-0.16,0.12-0.34,0.22-0.52,0.3c-0.19,0.09-0.39,0.16-0.6,0.21c-0.22,0.05-0.45,0.08-0.68,0.08c-0.36,0.01-0.72-0.05-1.06-0.17
	c-0.3-0.1-0.57-0.26-0.81-0.46c-0.22-0.19-0.39-0.43-0.51-0.69c-0.12-0.27-0.18-0.57-0.18-0.87c-0.01-0.37,0.07-0.74,0.24-1.07
	c0.16-0.31,0.4-0.57,0.69-0.76c0.33-0.22,0.69-0.37,1.07-0.46c0.46-0.1,0.93-0.16,1.4-0.15h1.38v-0.58c0-0.21-0.04-0.41-0.12-0.6
	c-0.08-0.17-0.2-0.33-0.35-0.45c-0.16-0.13-0.35-0.23-0.55-0.29c-0.24-0.07-0.48-0.1-0.73-0.1c-0.23,0-0.45,0.03-0.67,0.1
	c-0.18,0.05-0.35,0.14-0.5,0.25c-0.13,0.1-0.24,0.22-0.32,0.37c-0.07,0.14-0.11,0.29-0.11,0.45h-1.27c0.01-0.28,0.08-0.55,0.21-0.79
	c0.14-0.27,0.34-0.51,0.58-0.7c0.27-0.22,0.59-0.39,0.92-0.5c0.4-0.13,0.81-0.2,1.23-0.19c0.4,0,0.79,0.05,1.17,0.15
	c0.34,0.09,0.65,0.25,0.93,0.46c0.26,0.21,0.48,0.48,0.62,0.78c0.16,0.34,0.24,0.71,0.23,1.09V187c0,0.26,0.03,0.52,0.07,0.78
	c0.04,0.25,0.1,0.49,0.19,0.72v0.11L108.32,188.59z M106.08,187.59c0.23,0,0.47-0.03,0.69-0.1c0.2-0.06,0.4-0.14,0.58-0.25
	c0.17-0.1,0.32-0.22,0.45-0.36c0.12-0.12,0.22-0.27,0.3-0.42V185h-1.18c-0.59-0.03-1.18,0.08-1.72,0.33c-0.38,0.18-0.63,0.57-0.62,1
	c0,0.17,0.03,0.35,0.09,0.51c0.06,0.15,0.16,0.29,0.28,0.4c0.13,0.12,0.29,0.21,0.46,0.26c0.21,0.08,0.44,0.13,0.67,0.13V187.59z"/>
<path class="st2" d="M116.5,186.63c0.01-0.3-0.14-0.58-0.39-0.74c-0.17-0.12-0.36-0.21-0.56-0.28c-0.28-0.1-0.57-0.18-0.87-0.23
	c-0.39-0.08-0.78-0.18-1.16-0.31c-0.32-0.11-0.62-0.25-0.9-0.44c-0.23-0.16-0.43-0.36-0.58-0.6c-0.14-0.24-0.21-0.52-0.21-0.8
	c0-0.29,0.07-0.58,0.21-0.84c0.15-0.27,0.35-0.5,0.59-0.69c0.27-0.2,0.58-0.36,0.91-0.46c0.38-0.12,0.77-0.17,1.17-0.17
	c0.42,0,0.83,0.06,1.23,0.18c0.34,0.1,0.65,0.27,0.93,0.49c0.25,0.2,0.45,0.45,0.59,0.74c0.14,0.28,0.21,0.59,0.21,0.91h-1.26
	c0-0.16-0.04-0.33-0.12-0.47c-0.08-0.16-0.2-0.3-0.34-0.41c-0.16-0.13-0.34-0.22-0.53-0.29c-0.23-0.08-0.46-0.11-0.7-0.11
	c-0.24,0-0.48,0.03-0.71,0.09c-0.18,0.05-0.36,0.13-0.51,0.24c-0.13,0.09-0.23,0.21-0.3,0.35c-0.12,0.25-0.12,0.55,0,0.8
	c0.06,0.13,0.16,0.23,0.28,0.31c0.17,0.11,0.35,0.19,0.54,0.25c0.28,0.09,0.57,0.16,0.86,0.21c0.41,0.08,0.82,0.19,1.22,0.33
	c0.32,0.11,0.63,0.26,0.91,0.45c0.23,0.16,0.42,0.37,0.56,0.61c0.13,0.25,0.2,0.53,0.19,0.81c0.01,0.31-0.07,0.62-0.22,0.9
	c-0.15,0.27-0.36,0.51-0.62,0.69c-0.3,0.21-0.64,0.36-1,0.44c-0.39,0.11-0.8,0.16-1.21,0.16c-0.45,0.01-0.91-0.06-1.34-0.2
	c-0.36-0.12-0.7-0.3-1-0.53c-0.26-0.21-0.47-0.47-0.62-0.77c-0.14-0.28-0.22-0.59-0.22-0.91h1.26c0.01,0.23,0.08,0.46,0.21,0.66
	c0.12,0.17,0.27,0.32,0.45,0.43c0.19,0.11,0.39,0.19,0.6,0.23c0.21,0.05,0.43,0.07,0.65,0.07c0.44,0.02,0.88-0.08,1.26-0.29
	C116.28,187.3,116.49,186.98,116.5,186.63z"/>
<path class="st2" d="M124.62,186.63c0.01-0.3-0.14-0.58-0.39-0.74c-0.17-0.12-0.36-0.21-0.56-0.28c-0.28-0.1-0.57-0.18-0.87-0.23
	c-0.39-0.08-0.78-0.18-1.16-0.31c-0.32-0.11-0.62-0.25-0.9-0.44c-0.23-0.16-0.43-0.36-0.58-0.6c-0.14-0.24-0.21-0.52-0.21-0.8
	c0-0.29,0.07-0.58,0.21-0.84c0.15-0.27,0.35-0.5,0.59-0.69c0.27-0.2,0.58-0.36,0.91-0.46c0.38-0.12,0.77-0.17,1.17-0.17
	c0.42,0,0.83,0.06,1.23,0.18c0.34,0.1,0.65,0.27,0.93,0.49c0.25,0.2,0.45,0.45,0.59,0.74c0.14,0.28,0.21,0.59,0.21,0.91h-1.26
	c0-0.16-0.04-0.33-0.12-0.47c-0.08-0.16-0.2-0.3-0.34-0.41c-0.16-0.13-0.34-0.22-0.53-0.29c-0.23-0.08-0.46-0.11-0.7-0.11
	c-0.24,0-0.48,0.03-0.71,0.09c-0.18,0.05-0.36,0.13-0.51,0.24c-0.13,0.09-0.23,0.21-0.3,0.35c-0.12,0.25-0.12,0.55,0,0.8
	c0.06,0.13,0.16,0.23,0.28,0.31c0.17,0.11,0.35,0.19,0.54,0.25c0.28,0.09,0.57,0.16,0.86,0.21c0.41,0.08,0.82,0.19,1.22,0.33
	c0.32,0.11,0.63,0.26,0.91,0.45c0.23,0.16,0.42,0.37,0.56,0.61c0.13,0.25,0.2,0.53,0.19,0.81c0.01,0.31-0.07,0.62-0.22,0.9
	c-0.15,0.27-0.36,0.51-0.62,0.69c-0.3,0.21-0.64,0.36-1,0.44c-0.39,0.11-0.8,0.16-1.21,0.16c-0.45,0.01-0.91-0.06-1.34-0.2
	c-0.36-0.12-0.7-0.3-1-0.53c-0.26-0.21-0.47-0.47-0.62-0.77c-0.14-0.28-0.22-0.59-0.22-0.91H121c0.01,0.23,0.08,0.46,0.21,0.66
	c0.12,0.17,0.27,0.32,0.45,0.43c0.19,0.11,0.39,0.19,0.6,0.23c0.21,0.05,0.43,0.07,0.65,0.07c0.44,0.02,0.88-0.08,1.26-0.29
	C124.46,187.27,124.63,186.96,124.62,186.63z"/>
<path class="st2" d="M132.68,188.59c-0.06-0.11-0.1-0.24-0.12-0.36c-0.03-0.15-0.05-0.3-0.06-0.45c-0.13,0.13-0.28,0.25-0.43,0.36
	c-0.16,0.12-0.34,0.22-0.52,0.3c-0.19,0.09-0.39,0.16-0.6,0.21c-0.22,0.05-0.45,0.08-0.68,0.08c-0.36,0.01-0.72-0.05-1.06-0.17
	c-0.3-0.1-0.57-0.26-0.81-0.46c-0.22-0.19-0.39-0.43-0.51-0.69c-0.12-0.27-0.18-0.57-0.18-0.87c-0.01-0.37,0.07-0.74,0.24-1.07
	c0.16-0.31,0.4-0.57,0.69-0.76c0.33-0.22,0.69-0.37,1.07-0.46c0.46-0.1,0.93-0.16,1.4-0.15h1.38v-0.58c0-0.21-0.04-0.41-0.12-0.6
	c-0.08-0.17-0.2-0.33-0.35-0.45c-0.16-0.13-0.35-0.23-0.55-0.29c-0.24-0.07-0.48-0.1-0.73-0.1c-0.23,0-0.45,0.03-0.67,0.1
	c-0.18,0.05-0.35,0.14-0.5,0.25c-0.13,0.1-0.24,0.22-0.32,0.37c-0.07,0.14-0.11,0.29-0.11,0.45h-1.27c0.01-0.28,0.08-0.55,0.21-0.79
	c0.14-0.27,0.34-0.51,0.58-0.7c0.27-0.22,0.59-0.39,0.92-0.5c0.4-0.13,0.81-0.2,1.23-0.19c0.4,0,0.79,0.05,1.17,0.15
	c0.34,0.09,0.65,0.25,0.93,0.46c0.26,0.21,0.48,0.48,0.62,0.78c0.16,0.34,0.24,0.71,0.23,1.09V187c0,0.26,0.03,0.52,0.07,0.78
	c0.04,0.25,0.1,0.49,0.19,0.72v0.11L132.68,188.59z M130.44,187.59c0.23,0,0.47-0.03,0.69-0.1c0.2-0.06,0.4-0.14,0.58-0.25
	c0.17-0.1,0.32-0.22,0.45-0.36c0.12-0.12,0.22-0.27,0.3-0.42V185h-1.16c-0.59-0.03-1.18,0.08-1.72,0.33c-0.38,0.18-0.63,0.57-0.62,1
	c0,0.17,0.03,0.35,0.09,0.51c0.06,0.15,0.16,0.29,0.28,0.4c0.13,0.12,0.29,0.21,0.46,0.26c0.21,0.08,0.43,0.12,0.66,0.13
	L130.44,187.59z"/>
<path class="st2" d="M139.1,187.71c0.23,0,0.45-0.04,0.67-0.11c0.21-0.07,0.4-0.17,0.58-0.3c0.17-0.13,0.3-0.28,0.41-0.46
	c0.1-0.17,0.16-0.37,0.16-0.57h1.2c-0.01,0.33-0.1,0.65-0.26,0.94c-0.17,0.3-0.4,0.57-0.67,0.79c-0.3,0.23-0.64,0.42-1,0.54
	c-0.36,0.13-0.74,0.2-1.13,0.2c-0.51,0.01-1.01-0.09-1.47-0.3c-0.39-0.19-0.73-0.47-1-0.81c-0.28-0.35-0.5-0.75-0.63-1.18
	c-0.14-0.46-0.21-0.93-0.21-1.41v-0.29c0-0.47,0.07-0.95,0.21-1.4c0.13-0.43,0.35-0.83,0.63-1.18c0.27-0.34,0.61-0.62,1-0.81
	c0.85-0.37,1.81-0.4,2.68-0.09c0.37,0.12,0.71,0.32,1,0.57c0.27,0.24,0.48,0.53,0.63,0.85c0.15,0.33,0.23,0.69,0.23,1.05h-1.2
	c0-0.22-0.06-0.43-0.15-0.63c-0.09-0.2-0.22-0.37-0.38-0.52c-0.17-0.16-0.36-0.28-0.57-0.36c-0.23-0.09-0.47-0.13-0.71-0.13
	c-0.66-0.03-1.28,0.29-1.63,0.85c-0.17,0.26-0.28,0.55-0.35,0.85c-0.08,0.33-0.11,0.66-0.11,1v0.2c0,0.34,0.04,0.67,0.11,1
	c0.07,0.3,0.18,0.59,0.35,0.85c0.16,0.25,0.38,0.47,0.64,0.62C138.43,187.63,138.76,187.72,139.1,187.71z"/>
<path class="st2" d="M145.33,182.3c0.26-0.38,0.6-0.69,1-0.91c0.4-0.22,0.85-0.33,1.31-0.33c0.36,0,0.72,0.05,1.06,0.17
	c0.31,0.1,0.59,0.28,0.81,0.52c0.24,0.26,0.41,0.57,0.52,0.9c0.13,0.42,0.19,0.85,0.18,1.29v4.66h-1.26v-4.67
	c0.04-0.49-0.12-0.97-0.43-1.35c-0.33-0.31-0.78-0.47-1.24-0.44c-0.39,0-0.77,0.1-1.1,0.3c-0.33,0.2-0.6,0.47-0.8,0.79v5.37h-1.26
	v-10.5h1.26L145.33,182.3z"/>
<path class="st2" d="M157,187.58c-0.48,0.74-1.31,1.18-2.2,1.16c-0.36,0-0.71-0.06-1.05-0.18c-0.31-0.12-0.59-0.31-0.81-0.56
	c-0.24-0.29-0.42-0.63-0.52-1c-0.13-0.46-0.19-0.94-0.18-1.42v-4.4h1.26v4.41c-0.01,0.34,0.03,0.67,0.1,1
	c0.05,0.23,0.15,0.44,0.29,0.63c0.12,0.15,0.28,0.27,0.47,0.33c0.21,0.07,0.42,0.1,0.64,0.1c0.44,0.02,0.87-0.09,1.25-0.31
	c0.32-0.21,0.56-0.5,0.71-0.85v-5.3h1.27v7.4h-1.15L157,187.58z"/>
<path class="st2" d="M165.22,186.63c0.01-0.3-0.14-0.58-0.39-0.74c-0.17-0.12-0.36-0.21-0.56-0.28c-0.28-0.1-0.57-0.18-0.87-0.23
	c-0.39-0.08-0.78-0.18-1.16-0.31c-0.32-0.11-0.62-0.25-0.9-0.44c-0.23-0.16-0.43-0.36-0.58-0.6c-0.14-0.24-0.21-0.52-0.21-0.8
	c0-0.29,0.07-0.58,0.21-0.84c0.15-0.27,0.35-0.5,0.59-0.69c0.27-0.2,0.58-0.36,0.91-0.46c0.38-0.12,0.77-0.17,1.17-0.17
	c0.42,0,0.83,0.06,1.23,0.18c0.34,0.1,0.65,0.27,0.93,0.49c0.25,0.2,0.45,0.45,0.59,0.74c0.14,0.28,0.21,0.59,0.21,0.91h-1.26
	c0-0.16-0.04-0.33-0.12-0.47c-0.08-0.16-0.2-0.3-0.34-0.41c-0.16-0.13-0.34-0.22-0.53-0.29c-0.23-0.08-0.46-0.11-0.7-0.11
	c-0.24,0-0.48,0.03-0.71,0.09c-0.18,0.05-0.36,0.13-0.51,0.24c-0.13,0.09-0.23,0.21-0.3,0.35c-0.12,0.25-0.12,0.55,0,0.8
	c0.06,0.13,0.16,0.23,0.28,0.31c0.17,0.11,0.35,0.19,0.54,0.25c0.28,0.09,0.57,0.16,0.86,0.21c0.41,0.08,0.82,0.19,1.22,0.33
	c0.32,0.11,0.63,0.26,0.91,0.45c0.23,0.16,0.42,0.37,0.56,0.61c0.13,0.25,0.2,0.53,0.19,0.81c0.01,0.31-0.07,0.62-0.22,0.9
	c-0.15,0.27-0.36,0.51-0.62,0.69c-0.3,0.21-0.64,0.36-1,0.44c-0.39,0.11-0.8,0.16-1.21,0.16c-0.45,0.01-0.91-0.06-1.34-0.2
	c-0.36-0.12-0.7-0.3-1-0.53c-0.26-0.21-0.47-0.47-0.62-0.77c-0.14-0.28-0.22-0.59-0.22-0.91h1.26c0.01,0.23,0.08,0.46,0.21,0.66
	c0.12,0.17,0.27,0.32,0.45,0.43c0.19,0.11,0.39,0.19,0.6,0.23c0.21,0.05,0.43,0.07,0.65,0.07c0.44,0.02,0.88-0.08,1.26-0.29
	C165,187.3,165.21,186.98,165.22,186.63z"/>
<path class="st2" d="M171.7,188.73c-0.49,0-0.98-0.09-1.43-0.27c-0.42-0.17-0.8-0.42-1.12-0.75c-0.31-0.33-0.56-0.71-0.72-1.13
	c-0.18-0.46-0.27-0.94-0.26-1.43v-0.29c-0.01-0.55,0.09-1.09,0.29-1.6c0.17-0.45,0.43-0.85,0.76-1.2c0.31-0.32,0.67-0.57,1.08-0.75
	c0.39-0.17,0.81-0.26,1.24-0.26c0.48-0.01,0.96,0.09,1.4,0.28c0.39,0.18,0.73,0.44,1,0.77c0.27,0.34,0.47,0.73,0.59,1.15
	c0.13,0.47,0.2,0.95,0.19,1.44v0.57h-5.28c0,0.34,0.07,0.68,0.19,1c0.11,0.29,0.27,0.55,0.48,0.78c0.21,0.22,0.45,0.4,0.73,0.52
	c0.3,0.13,0.62,0.2,0.94,0.19c0.42,0.01,0.83-0.08,1.2-0.27c0.34-0.17,0.64-0.42,0.88-0.72l0.77,0.6c-0.13,0.2-0.29,0.38-0.46,0.54
	c-0.19,0.18-0.41,0.33-0.64,0.45c-0.26,0.14-0.53,0.25-0.82,0.32C172.38,188.73,172.04,188.75,171.7,188.73z M171.54,182.1
	c-0.25,0-0.49,0.05-0.72,0.14c-0.23,0.09-0.44,0.23-0.62,0.41c-0.19,0.19-0.35,0.41-0.46,0.66c-0.13,0.29-0.22,0.6-0.26,0.91h4v-0.1
	c-0.01-0.25-0.06-0.49-0.14-0.73c-0.08-0.24-0.19-0.46-0.35-0.65c-0.16-0.19-0.36-0.35-0.58-0.46
	C172.14,182.15,171.83,182.09,171.54,182.1L171.54,182.1z"/>
<path class="st2" d="M179.55,179.41v1.79h2.82v1h-2.82v4c-0.01,0.24,0.03,0.48,0.11,0.71c0.06,0.17,0.17,0.33,0.3,0.45
	c0.13,0.11,0.28,0.19,0.44,0.24c0.17,0.05,0.35,0.07,0.53,0.07h0.42l0.43-0.06l0.39-0.07l0.3-0.07l0.18,0.9
	c-0.12,0.07-0.25,0.13-0.38,0.17c-0.16,0.05-0.32,0.09-0.49,0.12l-0.56,0.08h-0.59c-0.31,0-0.62-0.05-0.92-0.14
	c-0.28-0.09-0.53-0.24-0.74-0.44c-0.22-0.22-0.39-0.49-0.5-0.79c-0.13-0.38-0.19-0.77-0.18-1.17v-4h-1.94v-1h1.94v-1.79H179.55z"/>
<path class="st2" d="M187.67,179.41v1.79h2.82v1h-2.82v4c-0.01,0.24,0.03,0.48,0.11,0.71c0.06,0.17,0.17,0.33,0.3,0.45
	c0.13,0.11,0.28,0.19,0.44,0.24c0.17,0.05,0.35,0.07,0.53,0.07h0.42l0.43-0.06l0.39-0.07l0.3-0.07l0.18,0.9
	c-0.12,0.07-0.25,0.13-0.38,0.17c-0.16,0.05-0.32,0.09-0.49,0.12l-0.56,0.08h-0.59c-0.31,0-0.62-0.05-0.92-0.14
	c-0.28-0.09-0.53-0.24-0.74-0.44c-0.22-0.22-0.39-0.49-0.5-0.79c-0.13-0.38-0.19-0.77-0.18-1.17v-4h-1.94v-1h1.94v-1.79H187.67z"/>
<path class="st2" d="M197.71,186.63c0.01-0.3-0.14-0.58-0.39-0.74c-0.17-0.12-0.36-0.21-0.56-0.28c-0.28-0.1-0.57-0.18-0.87-0.23
	c-0.39-0.08-0.78-0.18-1.16-0.31c-0.32-0.11-0.62-0.25-0.9-0.44c-0.23-0.16-0.43-0.36-0.58-0.6c-0.14-0.24-0.21-0.52-0.21-0.8
	c0-0.29,0.07-0.58,0.21-0.84c0.15-0.27,0.35-0.5,0.59-0.69c0.27-0.2,0.58-0.36,0.91-0.46c0.38-0.12,0.77-0.17,1.17-0.17
	c0.42,0,0.83,0.06,1.23,0.18c0.34,0.1,0.65,0.27,0.93,0.49c0.25,0.2,0.45,0.45,0.59,0.74c0.14,0.28,0.21,0.59,0.21,0.91h-1.26
	c0-0.16-0.04-0.33-0.12-0.47c-0.08-0.16-0.2-0.3-0.34-0.41c-0.16-0.13-0.34-0.22-0.53-0.29c-0.23-0.08-0.46-0.11-0.7-0.11
	c-0.24,0-0.48,0.03-0.71,0.09c-0.18,0.05-0.36,0.13-0.51,0.24c-0.13,0.09-0.23,0.21-0.3,0.35c-0.12,0.25-0.12,0.55,0,0.8
	c0.06,0.13,0.16,0.23,0.28,0.31c0.17,0.11,0.35,0.19,0.54,0.25c0.28,0.09,0.57,0.16,0.86,0.21c0.41,0.08,0.82,0.19,1.22,0.33
	c0.32,0.11,0.63,0.26,0.91,0.45c0.23,0.16,0.42,0.37,0.56,0.61c0.13,0.25,0.2,0.53,0.19,0.81c0.01,0.31-0.07,0.62-0.22,0.9
	c-0.15,0.27-0.36,0.51-0.62,0.69c-0.3,0.21-0.64,0.36-1,0.44c-0.39,0.11-0.8,0.16-1.21,0.16c-0.45,0.01-0.91-0.06-1.34-0.2
	c-0.36-0.12-0.7-0.3-1-0.53c-0.26-0.21-0.47-0.47-0.62-0.77c-0.14-0.28-0.22-0.59-0.22-0.91H194c0.01,0.23,0.08,0.46,0.21,0.66
	c0.12,0.17,0.27,0.32,0.45,0.43c0.19,0.11,0.39,0.19,0.6,0.23c0.21,0.05,0.43,0.07,0.65,0.07c0.44,0.02,0.88-0.08,1.26-0.29
	C197.49,187.3,197.7,186.98,197.71,186.63z"/>
<path class="st2" d="M114.72,69.6v4h-1.26v-10h3.23c0.43,0.01,0.86,0.08,1.27,0.21c0.36,0.13,0.7,0.32,1,0.57
	c0.3,0.25,0.54,0.57,0.71,0.93c0.35,0.81,0.35,1.73,0,2.54c-0.17,0.36-0.41,0.68-0.71,0.93c-0.3,0.25-0.63,0.44-1,0.57
	c-0.41,0.14-0.84,0.21-1.27,0.21L114.72,69.6z M114.72,68.6h2c0.28,0,0.55-0.05,0.81-0.14c0.24-0.08,0.45-0.21,0.64-0.38
	c0.19-0.17,0.33-0.37,0.43-0.6c0.1-0.25,0.16-0.53,0.15-0.8c0.01-0.28-0.05-0.55-0.15-0.81c-0.09-0.23-0.24-0.45-0.42-0.62
	c-0.19-0.17-0.4-0.3-0.64-0.39c-0.26-0.09-0.53-0.14-0.81-0.14h-2L114.72,68.6z"/>
<path class="st2" d="M126.37,71.63c0.01-0.3-0.14-0.58-0.39-0.74c-0.17-0.12-0.36-0.21-0.56-0.28c-0.28-0.1-0.57-0.18-0.87-0.23
	c-0.39-0.08-0.78-0.18-1.16-0.31c-0.32-0.11-0.62-0.25-0.9-0.44c-0.23-0.16-0.43-0.36-0.58-0.6c-0.14-0.24-0.21-0.52-0.21-0.8
	c0-0.29,0.07-0.58,0.21-0.84c0.15-0.27,0.35-0.5,0.59-0.69c0.27-0.2,0.58-0.36,0.91-0.46c0.38-0.12,0.77-0.17,1.17-0.17
	c0.42,0,0.83,0.06,1.23,0.18c0.34,0.1,0.65,0.27,0.93,0.49c0.25,0.2,0.45,0.45,0.59,0.74c0.14,0.28,0.21,0.59,0.21,0.91h-1.24
	c0-0.16-0.04-0.33-0.12-0.47c-0.08-0.16-0.2-0.3-0.34-0.41c-0.16-0.13-0.34-0.22-0.53-0.29c-0.23-0.08-0.46-0.11-0.7-0.11
	c-0.24,0-0.48,0.03-0.71,0.09c-0.18,0.05-0.36,0.13-0.51,0.24c-0.13,0.09-0.23,0.21-0.3,0.35c-0.12,0.25-0.12,0.55,0,0.8
	c0.06,0.13,0.16,0.23,0.28,0.31c0.17,0.11,0.35,0.19,0.54,0.25c0.28,0.09,0.57,0.16,0.86,0.21c0.41,0.08,0.82,0.19,1.22,0.33
	c0.32,0.11,0.63,0.26,0.91,0.45c0.23,0.16,0.42,0.37,0.56,0.61c0.13,0.25,0.2,0.53,0.19,0.81c0.01,0.31-0.07,0.62-0.22,0.9
	c-0.15,0.27-0.36,0.51-0.62,0.69c-0.3,0.21-0.64,0.36-1,0.44c-0.39,0.11-0.8,0.16-1.21,0.16c-0.45,0.01-0.91-0.06-1.34-0.2
	c-0.36-0.12-0.7-0.3-1-0.53c-0.26-0.21-0.47-0.47-0.62-0.77c-0.14-0.28-0.22-0.59-0.22-0.91h1.26c0.01,0.23,0.08,0.46,0.21,0.66
	c0.12,0.17,0.27,0.32,0.45,0.43c0.19,0.11,0.39,0.19,0.6,0.23c0.21,0.05,0.43,0.07,0.65,0.07c0.44,0.02,0.88-0.08,1.26-0.29
	C126.17,72.29,126.37,71.98,126.37,71.63z"/>
<path class="st2" d="M132.3,71l0.33,0.9l2.26-5.67h1.42l-3.75,8.54c-0.1,0.21-0.21,0.41-0.33,0.61c-0.14,0.22-0.3,0.42-0.49,0.59
	c-0.2,0.19-0.42,0.34-0.67,0.46c-0.28,0.13-0.58,0.19-0.88,0.18H130h-0.22h-0.21h-0.16l0.21-1h0.6c0.17,0,0.34-0.05,0.48-0.14
	c0.14-0.09,0.27-0.21,0.38-0.34c0.11-0.13,0.21-0.26,0.29-0.41l0.19-0.35l0.51-1l-3.19-7h1.42L132.3,71z"/>
<path class="st2" d="M140.85,72.71c0.23,0,0.45-0.04,0.67-0.11c0.21-0.07,0.4-0.17,0.58-0.3c0.17-0.13,0.3-0.28,0.41-0.46
	c0.1-0.17,0.16-0.37,0.16-0.57h1.2c-0.01,0.33-0.1,0.65-0.26,0.94c-0.17,0.3-0.4,0.57-0.67,0.79c-0.3,0.23-0.64,0.42-1,0.54
	c-0.36,0.13-0.74,0.2-1.13,0.2c-0.51,0.01-1.01-0.09-1.47-0.3c-0.39-0.19-0.73-0.47-1-0.81c-0.28-0.35-0.5-0.75-0.63-1.18
	c-0.14-0.46-0.21-0.93-0.21-1.41v-0.29c0-0.47,0.07-0.95,0.21-1.4c0.13-0.43,0.35-0.83,0.63-1.18c0.27-0.34,0.61-0.62,1-0.81
	c0.85-0.37,1.81-0.4,2.68-0.09c0.37,0.12,0.71,0.32,1,0.57c0.27,0.24,0.48,0.53,0.63,0.85c0.15,0.33,0.23,0.69,0.23,1.05h-1.2
	c0-0.22-0.06-0.43-0.15-0.63c-0.09-0.2-0.22-0.37-0.38-0.52c-0.17-0.16-0.36-0.28-0.57-0.36c-0.23-0.09-0.47-0.13-0.71-0.13
	c-0.66-0.03-1.28,0.29-1.63,0.85c-0.17,0.26-0.28,0.55-0.35,0.85c-0.08,0.33-0.11,0.66-0.11,1V70c0,0.34,0.04,0.67,0.11,1
	c0.07,0.3,0.18,0.59,0.35,0.85c0.16,0.25,0.38,0.47,0.64,0.62C140.18,72.63,140.51,72.72,140.85,72.71z"/>
<path class="st2" d="M147.09,67.3c0.26-0.38,0.6-0.69,1-0.91c0.4-0.22,0.85-0.33,1.31-0.33c0.36,0,0.72,0.05,1.06,0.17
	c0.31,0.1,0.59,0.28,0.81,0.52c0.24,0.26,0.41,0.57,0.52,0.9c0.13,0.42,0.19,0.85,0.18,1.29v4.66h-1.26v-4.67
	c0.04-0.49-0.12-0.97-0.43-1.35c-0.33-0.31-0.78-0.47-1.24-0.44c-0.39,0-0.77,0.1-1.1,0.3c-0.33,0.2-0.6,0.47-0.8,0.79v5.37h-1.26
	V63.09h1.26L147.09,67.3z"/>
<path class="st2" d="M157.21,73.73c-0.49,0-0.98-0.09-1.43-0.27c-0.42-0.17-0.8-0.42-1.12-0.75c-0.31-0.33-0.56-0.71-0.72-1.13
	c-0.18-0.46-0.27-0.94-0.26-1.43v-0.29c-0.01-0.55,0.09-1.09,0.29-1.6c0.17-0.45,0.43-0.85,0.76-1.2c0.31-0.32,0.67-0.57,1.08-0.75
	c0.39-0.17,0.81-0.26,1.24-0.26c0.48-0.01,0.96,0.09,1.4,0.28c0.39,0.18,0.73,0.44,1,0.77c0.27,0.34,0.47,0.73,0.59,1.15
	c0.13,0.47,0.2,0.95,0.19,1.44v0.57h-5.28c0,0.34,0.07,0.68,0.19,1c0.11,0.29,0.27,0.55,0.48,0.78c0.21,0.22,0.45,0.4,0.73,0.52
	c0.3,0.13,0.62,0.2,0.94,0.19c0.42,0.01,0.83-0.08,1.2-0.27c0.34-0.17,0.64-0.42,0.88-0.72l0.77,0.6c-0.13,0.2-0.29,0.38-0.46,0.54
	c-0.19,0.18-0.41,0.33-0.64,0.45c-0.26,0.14-0.53,0.25-0.82,0.32C157.89,73.73,157.55,73.75,157.21,73.73z M157,67.1
	c-0.25,0-0.49,0.05-0.72,0.14c-0.23,0.09-0.44,0.23-0.62,0.41c-0.19,0.19-0.35,0.41-0.46,0.66c-0.13,0.29-0.22,0.6-0.26,0.91h4v-0.1
	c-0.01-0.25-0.06-0.49-0.14-0.73c-0.08-0.24-0.19-0.46-0.35-0.65c-0.16-0.19-0.36-0.35-0.58-0.46C157.6,67.15,157.3,67.09,157,67.1z
	"/>
<path class="st2" d="M174.94,71h-3.32l-0.8,2.58h-1.26l3.21-10h1.06l3.16,10h-1.26L174.94,71z M171.94,69.9h2.65l-1.31-4.32
	L171.94,69.9z"/>
<path class="st2" d="M183.22,71.63c0.01-0.3-0.14-0.58-0.39-0.74c-0.17-0.12-0.36-0.21-0.56-0.28c-0.28-0.1-0.57-0.18-0.87-0.23
	c-0.39-0.08-0.78-0.18-1.16-0.31c-0.32-0.11-0.62-0.25-0.9-0.44c-0.23-0.16-0.43-0.36-0.58-0.6c-0.14-0.24-0.21-0.52-0.21-0.8
	c0-0.29,0.07-0.58,0.21-0.84c0.15-0.27,0.35-0.5,0.59-0.69c0.27-0.2,0.58-0.36,0.91-0.46c0.38-0.12,0.77-0.17,1.17-0.17
	c0.42,0,0.83,0.06,1.23,0.18c0.34,0.1,0.65,0.27,0.93,0.49c0.25,0.2,0.45,0.45,0.59,0.74c0.14,0.28,0.21,0.59,0.21,0.91h-1.26
	c0-0.16-0.04-0.33-0.12-0.47c-0.08-0.16-0.2-0.3-0.34-0.41c-0.16-0.13-0.34-0.22-0.53-0.29c-0.23-0.08-0.46-0.11-0.7-0.11
	c-0.24,0-0.48,0.03-0.71,0.09c-0.18,0.05-0.36,0.13-0.51,0.24c-0.13,0.09-0.23,0.21-0.3,0.35c-0.12,0.25-0.12,0.55,0,0.8
	c0.06,0.13,0.16,0.23,0.28,0.31c0.17,0.11,0.35,0.19,0.54,0.25c0.28,0.09,0.57,0.16,0.86,0.21c0.41,0.08,0.82,0.19,1.22,0.33
	c0.32,0.11,0.63,0.26,0.91,0.45c0.23,0.16,0.42,0.37,0.56,0.61c0.13,0.25,0.2,0.53,0.19,0.81c0.01,0.31-0.07,0.62-0.22,0.9
	c-0.15,0.27-0.36,0.51-0.62,0.69c-0.3,0.21-0.64,0.36-1,0.44c-0.39,0.11-0.8,0.16-1.21,0.16c-0.45,0.01-0.91-0.06-1.34-0.2
	c-0.36-0.12-0.7-0.3-1-0.53c-0.26-0.21-0.47-0.47-0.62-0.77c-0.14-0.28-0.22-0.59-0.22-0.91h1.26c0.01,0.23,0.08,0.46,0.21,0.66
	c0.12,0.17,0.27,0.32,0.45,0.43c0.19,0.11,0.39,0.19,0.6,0.23c0.21,0.05,0.43,0.07,0.65,0.07c0.44,0.02,0.88-0.08,1.26-0.29
	C183,72.3,183.21,71.98,183.22,71.63z"/>
<path class="st2" d="M189.42,64.41v1.79h2.82v1h-2.82v4c-0.01,0.24,0.03,0.48,0.11,0.71c0.06,0.17,0.17,0.33,0.3,0.45
	c0.13,0.11,0.28,0.19,0.44,0.24c0.17,0.05,0.35,0.07,0.53,0.07h0.42l0.43-0.06l0.39-0.07l0.3-0.07l0.18,0.9
	c-0.12,0.07-0.25,0.13-0.38,0.17c-0.16,0.05-0.32,0.09-0.49,0.12l-0.56,0.08h-0.59c-0.31,0-0.62-0.05-0.92-0.14
	c-0.28-0.09-0.53-0.24-0.74-0.44c-0.22-0.22-0.39-0.49-0.5-0.79c-0.13-0.38-0.19-0.77-0.18-1.17v-4h-1.94v-1h1.94v-1.79H189.42z"/>
<path class="st2" d="M197.82,73.73c-0.49,0-0.98-0.09-1.43-0.27c-0.42-0.17-0.8-0.42-1.12-0.75c-0.31-0.33-0.56-0.71-0.72-1.13
	c-0.18-0.46-0.27-0.94-0.26-1.43v-0.29c-0.01-0.55,0.09-1.09,0.29-1.6c0.17-0.45,0.43-0.85,0.76-1.2c0.31-0.32,0.67-0.57,1.08-0.75
	c0.39-0.17,0.81-0.26,1.24-0.26c0.48-0.01,0.96,0.09,1.4,0.28c0.39,0.18,0.73,0.44,1,0.77c0.27,0.34,0.47,0.73,0.59,1.15
	c0.13,0.47,0.2,0.95,0.19,1.44v0.57h-5.28c0,0.34,0.07,0.68,0.19,1c0.11,0.29,0.27,0.55,0.48,0.78c0.21,0.22,0.45,0.4,0.73,0.52
	c0.3,0.13,0.62,0.2,0.94,0.19c0.42,0.01,0.83-0.08,1.2-0.27c0.34-0.17,0.64-0.42,0.88-0.72l0.77,0.6c-0.13,0.2-0.29,0.38-0.46,0.54
	c-0.19,0.18-0.41,0.33-0.64,0.45c-0.26,0.14-0.53,0.25-0.82,0.32C198.5,73.73,198.16,73.75,197.82,73.73z M197.66,67.1
	c-0.25,0-0.49,0.05-0.72,0.14c-0.23,0.09-0.44,0.23-0.62,0.41c-0.19,0.19-0.35,0.41-0.46,0.66c-0.13,0.29-0.22,0.6-0.26,0.91h4v-0.1
	c-0.01-0.25-0.06-0.49-0.14-0.73c-0.08-0.24-0.19-0.46-0.35-0.65c-0.16-0.19-0.36-0.35-0.58-0.46
	C198.26,67.15,197.96,67.09,197.66,67.1z"/>
<path class="st2" d="M207.52,66.06h0.37h0.37l0.32,0.06l0.24,0.08l-0.17,1.24c-0.23-0.05-0.46-0.09-0.7-0.12
	c-0.23-0.01-0.46-0.01-0.69,0c-0.51-0.02-1.02,0.12-1.44,0.4c-0.38,0.29-0.66,0.68-0.81,1.13v4.74h-1.27V66.2h1.2l0.06,1.18
	c0.28-0.41,0.65-0.75,1.08-1C206.52,66.15,207.02,66.04,207.52,66.06z"/>
<path class="st2" d="M210.44,69.83c-0.01-0.51,0.07-1.01,0.23-1.49c0.14-0.44,0.37-0.84,0.67-1.19c0.29-0.34,0.65-0.61,1.06-0.8
	c0.44-0.2,0.92-0.3,1.4-0.29c0.49-0.01,0.97,0.09,1.41,0.29c0.41,0.19,0.77,0.46,1.06,0.8c0.3,0.35,0.53,0.75,0.67,1.19
	c0.16,0.48,0.24,0.98,0.23,1.49V70c0.01,0.5-0.07,1-0.23,1.48c-0.14,0.44-0.37,0.84-0.67,1.19c-0.29,0.34-0.65,0.61-1.06,0.79
	c-0.44,0.2-0.92,0.3-1.4,0.29c-0.49,0.01-0.97-0.09-1.41-0.29c-0.41-0.18-0.77-0.45-1.06-0.79c-0.3-0.35-0.53-0.75-0.67-1.19
	c-0.16-0.48-0.24-0.98-0.23-1.48V69.83z M211.7,69.98c0,0.34,0.05,0.67,0.13,1c0.08,0.31,0.21,0.61,0.39,0.87
	c0.17,0.25,0.4,0.45,0.66,0.59c0.28,0.15,0.6,0.23,0.92,0.22c0.32,0.01,0.63-0.07,0.91-0.22c0.26-0.14,0.49-0.35,0.66-0.59
	c0.18-0.26,0.31-0.56,0.39-0.87c0.08-0.33,0.13-0.66,0.13-1v-0.15c0-0.34-0.04-0.67-0.13-1c-0.08-0.31-0.22-0.61-0.4-0.87
	c-0.17-0.25-0.4-0.45-0.66-0.6c-0.28-0.15-0.6-0.23-0.92-0.22c-0.32-0.01-0.64,0.07-0.92,0.22c-0.26,0.15-0.48,0.35-0.65,0.6
	c-0.18,0.26-0.31,0.56-0.39,0.87c-0.08,0.33-0.13,0.66-0.13,1L211.7,69.98z"/>
<path class="st2" d="M219.11,66.2h3.78v6.3h2.41v1.09h-6.19V72.5h2.52v-5.2h-2.52V66.2z M221.46,64.26c0-0.19,0.06-0.38,0.19-0.53
	c0.33-0.29,0.81-0.29,1.14,0c0.13,0.15,0.2,0.34,0.19,0.53c0.01,0.19-0.06,0.37-0.19,0.51c-0.33,0.28-0.81,0.28-1.14,0
	C221.53,64.63,221.46,64.45,221.46,64.26L221.46,64.26z"/>
<path class="st2" d="M226.8,69.83c0-0.51,0.07-1.03,0.21-1.52c0.12-0.43,0.32-0.83,0.59-1.19c0.25-0.33,0.57-0.59,0.93-0.78
	c0.38-0.19,0.8-0.29,1.22-0.28c0.4-0.01,0.79,0.07,1.16,0.22c0.33,0.15,0.63,0.37,0.86,0.65v-3.84H233v10.5h-1.16l-0.05-0.78
	c-0.24,0.29-0.54,0.53-0.88,0.68c-0.38,0.16-0.79,0.24-1.2,0.23c-0.42,0-0.84-0.1-1.21-0.29c-0.36-0.19-0.68-0.46-0.93-0.79
	c-0.26-0.36-0.46-0.76-0.59-1.19c-0.13-0.47-0.19-0.96-0.18-1.45V69.83z M228.06,69.97c0,0.34,0.04,0.67,0.12,1
	c0.07,0.3,0.19,0.59,0.36,0.85c0.16,0.24,0.37,0.44,0.62,0.58c0.28,0.15,0.59,0.22,0.9,0.21c0.2,0,0.39-0.03,0.58-0.08
	c0.17-0.05,0.32-0.12,0.47-0.21c0.14-0.09,0.27-0.2,0.38-0.33c0.11-0.13,0.21-0.28,0.29-0.43v-3.39c-0.16-0.29-0.39-0.55-0.66-0.74
	c-0.3-0.19-0.65-0.3-1-0.29c-0.62-0.02-1.2,0.29-1.53,0.81c-0.17,0.26-0.29,0.55-0.36,0.86c-0.08,0.33-0.12,0.66-0.12,1
	L228.06,69.97z"/>
</svg>
