<?xml version="1.0" encoding="utf-8"?>
<!-- Generator: Adobe Illustrator 21.1.0, SVG Export Plug-In . SVG Version: 6.00 Build 0)  -->
<svg version="1.1" id="Layer_1" xmlns="http://www.w3.org/2000/svg" xmlns:xlink="http://www.w3.org/1999/xlink" x="0px" y="0px"
	 width="538.16px" height="430.64px" viewBox="0 0 538.16 430.64" style="enable-background:new 0 0 538.16 430.64;"
	 xml:space="preserve">
<style type="text/css">
	.st0{enable-background:new    ;}
	.st1{clip-path:url(#SVGID_2_);}
	.st2{fill:#302144;}
	.st3{fill:#FFFFFF;}
	.st4{fill:#B5687E;}
	.st5{fill:#A6405C;}
</style>
<g>
	<g>
		<g class="st0">
			<defs>
				<polygon id="SVGID_1_" class="st0" points="0,399.67 101.48,245.42 436.68,245.42 538.16,399.67 				"/>
			</defs>
			<clipPath id="SVGID_2_">
				<use xlink:href="#SVGID_1_"  style="overflow:visible;"/>
			</clipPath>
			<g class="st1">
				<g>
					<polyline class="st2" points="440.64,255.3 356.99,255.3 373.44,304.78 397.28,376.55 519.26,376.55 440.64,255.3 					"/>
				</g>
				<g>
					<path class="st3" d="M442.72,254.62c0.03,0.04,0.05,0.09,0.06,0.13c0.01,0.04,0.02,0.09,0.01,0.13c0,0.04-0.02,0.08-0.04,0.12
						s-0.05,0.07-0.09,0.1c-0.04,0.03-0.08,0.06-0.14,0.09c-0.05,0.02-0.11,0.05-0.18,0.06c-0.07,0.02-0.14,0.03-0.21,0.04
						s-0.16,0.01-0.24,0.01h-1.27l78.62,121.26h1.85c0.12,0,0.25,0.01,0.38,0.03c0.13,0.02,0.27,0.05,0.4,0.08s0.27,0.08,0.41,0.13
						c0.14,0.05,0.27,0.11,0.4,0.18c0.13,0.07,0.26,0.14,0.38,0.22c0.12,0.08,0.23,0.16,0.34,0.25c0.1,0.09,0.2,0.18,0.29,0.27
						c0.09,0.09,0.16,0.19,0.23,0.29L442.72,254.62"/>
				</g>
				<g>
					<polyline class="st2" points="181.16,255.3 97.51,255.3 18.89,376.55 140.87,376.55 164.72,304.78 181.16,255.3 					"/>
				</g>
				<g>
					<path class="st3" d="M101.06,246.06L1.43,397.5l12.82-19.48c0.06-0.1,0.14-0.19,0.23-0.29c0.09-0.09,0.18-0.19,0.29-0.27
						c0.1-0.09,0.22-0.17,0.34-0.25c0.12-0.08,0.25-0.15,0.38-0.22c0.13-0.07,0.26-0.13,0.4-0.18c0.14-0.05,0.27-0.1,0.41-0.13
						c0.14-0.04,0.27-0.06,0.4-0.08c0.13-0.02,0.26-0.03,0.38-0.03h1.84L97.51,255.3h-1.26c-0.08,0-0.16,0-0.24-0.01
						s-0.15-0.02-0.21-0.04c-0.07-0.02-0.12-0.04-0.18-0.06c-0.05-0.02-0.1-0.05-0.14-0.09c-0.04-0.03-0.07-0.07-0.09-0.1
						s-0.03-0.08-0.04-0.12s0-0.08,0.01-0.13c0.01-0.04,0.03-0.09,0.06-0.13L101.06,246.06"/>
				</g>
				<g>
					<polyline class="st2" points="435.06,246.7 103.09,246.7 98.4,253.93 182.87,253.93 269.07,253.93 355.28,253.93 
						439.75,253.93 435.06,246.7 					"/>
				</g>
				<g>
					<path class="st3" d="M435.46,245.42H102.7c-0.08,0-0.16,0-0.25,0.01c-0.08,0.01-0.17,0.02-0.25,0.04
						c-0.08,0.02-0.17,0.04-0.25,0.06c-0.08,0.02-0.16,0.05-0.24,0.08c-0.08,0.03-0.15,0.06-0.22,0.1
						c-0.07,0.03-0.13,0.07-0.18,0.11c-0.06,0.04-0.11,0.08-0.15,0.12c-0.04,0.04-0.08,0.08-0.11,0.12l-5.63,8.55
						c-0.03,0.04-0.05,0.09-0.06,0.13c-0.01,0.04-0.02,0.09-0.01,0.13s0.02,0.08,0.04,0.12s0.05,0.07,0.09,0.1
						c0.04,0.03,0.08,0.06,0.14,0.09c0.05,0.02,0.11,0.05,0.18,0.06c0.07,0.02,0.14,0.03,0.21,0.04s0.16,0.01,0.24,0.01h1.26h83.65
						l0.23-0.68c0.01-0.04,0.04-0.09,0.07-0.13c0.03-0.04,0.07-0.09,0.11-0.13c0.05-0.04,0.1-0.08,0.16-0.12
						c0.06-0.04,0.12-0.07,0.19-0.1c0.07-0.03,0.14-0.06,0.22-0.08c0.08-0.02,0.16-0.05,0.24-0.06c0.08-0.02,0.16-0.03,0.25-0.04
						c0.08-0.01,0.17-0.01,0.25-0.01H98.4l4.69-7.24h331.98l4.69,7.24h-84.47c0.08,0,0.17,0,0.25,0.01s0.17,0.02,0.25,0.04
						c0.08,0.02,0.16,0.04,0.24,0.06c0.08,0.02,0.15,0.05,0.22,0.08c0.07,0.03,0.13,0.07,0.19,0.1s0.11,0.08,0.16,0.12
						s0.08,0.08,0.11,0.13c0.03,0.04,0.05,0.09,0.07,0.13l0.23,0.68h83.64h1.27c0.08,0,0.16,0,0.24-0.01s0.15-0.02,0.21-0.04
						c0.07-0.02,0.12-0.04,0.18-0.06c0.05-0.02,0.1-0.05,0.14-0.09c0.04-0.03,0.07-0.07,0.09-0.1s0.03-0.08,0.04-0.12
						c0-0.04,0-0.08-0.01-0.13c-0.01-0.04-0.03-0.09-0.06-0.13h-1.26l-0.44-0.68l0.44,0.68h1.26l-5.63-8.55
						c-0.03-0.04-0.06-0.08-0.11-0.12c-0.04-0.04-0.09-0.08-0.15-0.12c-0.06-0.04-0.12-0.08-0.18-0.11
						c-0.07-0.03-0.14-0.07-0.21-0.1c-0.08-0.03-0.16-0.06-0.24-0.08c-0.08-0.02-0.16-0.04-0.25-0.06
						c-0.08-0.02-0.17-0.03-0.25-0.04C435.62,245.43,435.54,245.42,435.46,245.42"/>
				</g>
				<g>
					<polyline class="st2" points="521.16,379.49 16.99,379.49 6.01,396.42 532.14,396.42 521.16,379.49 					"/>
				</g>
				<g>
					<path class="st3" d="M6.01,396.42l10.98-16.94h504.17l10.98,16.94H6.01 M521.1,376.55h-1.85H397.28l0.32,0.97
						c0.03,0.1,0.05,0.19,0.06,0.29c0.01,0.09,0,0.19-0.02,0.27s-0.05,0.17-0.09,0.25c-0.04,0.08-0.09,0.16-0.16,0.22
						c-0.06,0.07-0.14,0.13-0.22,0.18c-0.08,0.05-0.18,0.1-0.28,0.14c-0.1,0.04-0.21,0.07-0.32,0.08c-0.11,0.02-0.23,0.03-0.35,0.03
						H269.07H141.92c-0.12,0-0.24-0.01-0.35-0.03c-0.11-0.02-0.22-0.05-0.32-0.08c-0.1-0.04-0.19-0.08-0.28-0.14
						c-0.08-0.05-0.16-0.11-0.22-0.18c-0.06-0.07-0.12-0.14-0.16-0.22c-0.04-0.08-0.07-0.17-0.09-0.25
						c-0.02-0.09-0.02-0.18-0.02-0.27c0.01-0.09,0.03-0.19,0.06-0.29l0.32-0.97H18.89h-1.84c-0.12,0-0.25,0.01-0.38,0.03
						c-0.13,0.02-0.27,0.05-0.4,0.08c-0.14,0.04-0.27,0.08-0.41,0.13c-0.14,0.05-0.27,0.11-0.4,0.18c-0.13,0.07-0.26,0.14-0.38,0.22
						c-0.12,0.08-0.23,0.16-0.34,0.25c-0.1,0.09-0.2,0.18-0.29,0.27c-0.09,0.09-0.16,0.19-0.23,0.29L1.43,397.5l-0.36,0.54
						c-0.07,0.11-0.13,0.21-0.17,0.32c-0.04,0.1-0.07,0.2-0.09,0.3c-0.02,0.1-0.02,0.19,0,0.28c0.01,0.09,0.04,0.17,0.08,0.25
						c0.04,0.08,0.1,0.14,0.16,0.2c0.07,0.06,0.15,0.11,0.24,0.15c0.09,0.04,0.19,0.07,0.31,0.09c0.11,0.02,0.23,0.03,0.36,0.03
						H536.2c0.13,0,0.25-0.01,0.36-0.03c0.11-0.02,0.22-0.05,0.31-0.09c0.09-0.04,0.17-0.09,0.24-0.15c0.07-0.06,0.12-0.13,0.16-0.2
						c0.04-0.08,0.07-0.16,0.08-0.25c0.01-0.09,0.01-0.18,0-0.28c-0.02-0.1-0.04-0.2-0.09-0.3c-0.04-0.1-0.1-0.21-0.17-0.32h-1.95
						l-1.06-1.62l1.06,1.62h1.95l-13.17-20.02c-0.06-0.1-0.14-0.19-0.23-0.29c-0.09-0.09-0.18-0.19-0.29-0.27
						c-0.1-0.09-0.22-0.17-0.34-0.25c-0.12-0.08-0.24-0.15-0.38-0.22c-0.13-0.07-0.26-0.13-0.4-0.18c-0.14-0.05-0.27-0.1-0.41-0.13
						s-0.27-0.06-0.4-0.08C521.35,376.56,521.23,376.55,521.1,376.55"/>
				</g>
				<g>
					<polyline class="st2" points="354.46,255.3 270.34,255.3 270.57,303.82 370.12,303.82 354.46,255.3 					"/>
				</g>
				<g>
					<path class="st3" d="M355.28,253.93h-86.21c0.08,0,0.17,0,0.25,0.01c0.08,0.01,0.16,0.02,0.24,0.04s0.15,0.04,0.22,0.06
						c0.07,0.02,0.13,0.05,0.19,0.08s0.11,0.07,0.16,0.1c0.05,0.04,0.08,0.08,0.12,0.12s0.06,0.08,0.07,0.13
						c0.02,0.04,0.03,0.09,0.03,0.13l0,0.68h84.12l15.66,48.52h1.5c0.1,0,0.2,0.01,0.3,0.02c0.1,0.01,0.2,0.03,0.3,0.06
						c0.1,0.02,0.19,0.05,0.29,0.09c0.09,0.03,0.18,0.07,0.27,0.12c0.08,0.04,0.16,0.09,0.23,0.15c0.07,0.05,0.14,0.11,0.19,0.17
						c0.06,0.06,0.11,0.12,0.15,0.18c0.04,0.06,0.07,0.13,0.09,0.19l-16.44-49.49l-0.23-0.68c-0.01-0.04-0.04-0.09-0.07-0.13
						c-0.03-0.04-0.07-0.09-0.11-0.13s-0.1-0.08-0.16-0.12s-0.12-0.07-0.19-0.1c-0.07-0.03-0.14-0.06-0.22-0.08
						c-0.08-0.02-0.16-0.05-0.24-0.06c-0.08-0.02-0.16-0.03-0.25-0.04S355.37,253.93,355.28,253.93"/>
				</g>
				<g>
					<polyline class="st2" points="370.74,305.75 270.58,305.75 270.92,376.07 393.43,376.07 370.74,305.75 					"/>
				</g>
				<g>
					<path class="st3" d="M371.62,303.82h-1.5h-99.55l0,0.96l0,0.97h100.16l22.69,70.32H270.92l0.01,1.45c0,0.1-0.01,0.19-0.04,0.29
						c-0.02,0.09-0.06,0.19-0.11,0.27s-0.1,0.17-0.17,0.25c-0.07,0.08-0.14,0.16-0.23,0.22c-0.09,0.07-0.18,0.13-0.28,0.18
						c-0.1,0.05-0.21,0.1-0.32,0.14c-0.11,0.04-0.23,0.07-0.35,0.08c-0.12,0.02-0.24,0.03-0.36,0.03h127.16
						c0.12,0,0.24-0.01,0.35-0.03c0.11-0.02,0.22-0.05,0.32-0.08c0.1-0.04,0.19-0.08,0.28-0.14c0.08-0.05,0.16-0.11,0.22-0.18
						c0.06-0.07,0.12-0.14,0.16-0.22c0.04-0.08,0.07-0.17,0.09-0.25s0.02-0.18,0.02-0.27c-0.01-0.09-0.03-0.19-0.06-0.29h-1.85
						l-0.48-1.45l0.48,1.45h1.85l-0.32-0.97l-23.85-71.77c-0.02-0.06-0.05-0.13-0.09-0.19c-0.04-0.06-0.09-0.12-0.15-0.18
						c-0.06-0.06-0.12-0.11-0.19-0.17c-0.07-0.05-0.15-0.1-0.23-0.15c-0.08-0.04-0.17-0.08-0.27-0.12
						c-0.09-0.03-0.19-0.06-0.29-0.09c-0.1-0.02-0.2-0.04-0.3-0.06C371.82,303.83,371.72,303.82,371.62,303.82"/>
				</g>
				<g>
					<polyline class="st2" points="267.82,255.3 183.69,255.3 168.03,303.82 267.58,303.82 267.82,255.3 					"/>
				</g>
				<g>
					<path class="st3" d="M269.07,253.93h-86.2c-0.08,0-0.17,0-0.25,0.01c-0.08,0.01-0.17,0.02-0.25,0.04
						c-0.08,0.02-0.16,0.04-0.24,0.06c-0.08,0.02-0.15,0.05-0.22,0.08c-0.07,0.03-0.13,0.07-0.19,0.1
						c-0.06,0.04-0.11,0.08-0.16,0.12c-0.05,0.04-0.08,0.08-0.11,0.13c-0.03,0.04-0.05,0.09-0.07,0.13l-0.23,0.68l-16.44,49.49
						c0.02-0.06,0.05-0.13,0.09-0.19c0.04-0.06,0.09-0.12,0.15-0.18c0.06-0.06,0.12-0.11,0.19-0.17c0.07-0.05,0.15-0.1,0.23-0.15
						c0.08-0.04,0.17-0.08,0.27-0.12c0.09-0.03,0.19-0.06,0.29-0.09c0.1-0.02,0.2-0.04,0.3-0.06c0.1-0.01,0.2-0.02,0.3-0.02h1.49
						l15.66-48.52h84.13l-0.23,48.52h1.49c0.1,0,0.2,0.01,0.29,0.02c0.1,0.01,0.19,0.03,0.28,0.06c0.09,0.02,0.18,0.05,0.26,0.09
						c0.08,0.03,0.16,0.07,0.23,0.12s0.13,0.09,0.19,0.15c0.05,0.05,0.1,0.11,0.14,0.17s0.07,0.12,0.09,0.18
						c0.02,0.06,0.03,0.13,0.03,0.19l0-0.96l-0.23-48.52l0-0.68c0-0.04-0.01-0.09-0.03-0.13c-0.02-0.04-0.04-0.09-0.07-0.13
						s-0.07-0.08-0.12-0.12c-0.05-0.04-0.1-0.07-0.16-0.1s-0.12-0.06-0.19-0.08c-0.07-0.02-0.14-0.05-0.22-0.06
						s-0.15-0.03-0.24-0.04C269.24,253.94,269.16,253.93,269.07,253.93"/>
				</g>
				<g>
					<polyline class="st2" points="267.57,305.75 167.4,305.75 144.71,376.07 267.24,376.07 267.57,305.75 					"/>
				</g>
				<g>
					<path class="st3" d="M144.71,376.07l22.69-70.32h100.17l-0.34,70.32H144.71 M269.07,303.82h-1.49h-99.56h-1.49
						c-0.1,0-0.2,0.01-0.3,0.02c-0.1,0.01-0.2,0.03-0.3,0.06c-0.1,0.02-0.19,0.05-0.29,0.09c-0.09,0.03-0.18,0.07-0.27,0.12
						c-0.08,0.04-0.16,0.09-0.23,0.15c-0.07,0.05-0.14,0.11-0.19,0.17c-0.06,0.06-0.11,0.12-0.15,0.18
						c-0.04,0.06-0.07,0.13-0.09,0.19l-23.85,71.77l-0.32,0.97c-0.03,0.1-0.05,0.19-0.06,0.29c-0.01,0.09,0,0.19,0.02,0.27
						c0.02,0.09,0.05,0.17,0.09,0.25c0.04,0.08,0.09,0.16,0.16,0.22c0.06,0.07,0.14,0.13,0.22,0.18c0.08,0.05,0.18,0.1,0.28,0.14
						c0.1,0.04,0.21,0.07,0.32,0.08c0.11,0.02,0.23,0.03,0.35,0.03h127.15c0.12,0,0.24-0.01,0.36-0.03
						c0.12-0.02,0.24-0.05,0.35-0.08c0.11-0.04,0.22-0.08,0.32-0.14c0.1-0.05,0.2-0.11,0.28-0.18c0.09-0.07,0.16-0.14,0.23-0.22
						c0.07-0.08,0.12-0.17,0.17-0.25s0.08-0.18,0.11-0.27c0.02-0.09,0.04-0.19,0.04-0.29h-1.85v-1.45v1.45h1.85l-0.01-1.45
						l-0.34-70.32l0-0.97c0-0.06-0.01-0.13-0.03-0.19c-0.02-0.06-0.05-0.12-0.09-0.18s-0.08-0.11-0.14-0.17
						c-0.05-0.05-0.12-0.1-0.19-0.15s-0.15-0.08-0.23-0.12c-0.08-0.03-0.17-0.06-0.26-0.09c-0.09-0.02-0.18-0.04-0.28-0.06
						C269.27,303.83,269.17,303.82,269.07,303.82"/>
				</g>
			</g>
		</g>
	</g>
	<g>
		<path class="st2" d="M210.74,6.51v3.99h-1.26V0.55h3.23c0.45,0.01,0.87,0.08,1.27,0.21s0.75,0.32,1.05,0.57s0.54,0.56,0.71,0.93
			s0.26,0.79,0.26,1.27s-0.09,0.9-0.26,1.27s-0.41,0.68-0.71,0.93s-0.65,0.44-1.05,0.57s-0.82,0.2-1.27,0.21H210.74z M210.74,5.47
			h1.96c0.29,0,0.56-0.05,0.81-0.14s0.46-0.22,0.64-0.38s0.32-0.36,0.43-0.6s0.15-0.5,0.15-0.8s-0.05-0.57-0.15-0.81
			s-0.24-0.45-0.42-0.62s-0.39-0.3-0.64-0.39s-0.52-0.14-0.81-0.14h-1.96V5.47z"/>
		<path class="st2" d="M222.39,8.54c0-0.15-0.03-0.29-0.09-0.41S222.14,7.9,222,7.8s-0.33-0.19-0.56-0.28s-0.52-0.16-0.87-0.23
			c-0.42-0.09-0.81-0.19-1.16-0.31s-0.65-0.27-0.9-0.44s-0.44-0.37-0.58-0.6s-0.21-0.5-0.21-0.8c0-0.3,0.07-0.58,0.21-0.84
			s0.34-0.49,0.59-0.69s0.56-0.35,0.91-0.46s0.74-0.17,1.17-0.17c0.46,0,0.87,0.06,1.23,0.18s0.67,0.28,0.93,0.49
			s0.45,0.45,0.59,0.73s0.21,0.58,0.21,0.91h-1.26c0-0.16-0.04-0.32-0.12-0.47s-0.2-0.29-0.34-0.41s-0.32-0.21-0.53-0.29
			s-0.44-0.11-0.7-0.11c-0.27,0-0.5,0.03-0.71,0.09s-0.37,0.14-0.51,0.24s-0.24,0.22-0.3,0.35S219,4.95,219,5.09
			c0,0.15,0.03,0.28,0.08,0.39s0.15,0.22,0.28,0.31s0.31,0.17,0.54,0.25s0.51,0.14,0.86,0.21c0.46,0.1,0.86,0.21,1.22,0.33
			s0.66,0.28,0.91,0.45s0.43,0.38,0.56,0.61s0.19,0.5,0.19,0.81c0,0.33-0.07,0.63-0.22,0.9s-0.35,0.5-0.62,0.69
			s-0.58,0.34-0.95,0.44s-0.77,0.16-1.21,0.16c-0.5,0-0.95-0.07-1.34-0.2s-0.72-0.31-0.99-0.53s-0.48-0.48-0.62-0.77
			s-0.22-0.59-0.22-0.91h1.26c0.02,0.26,0.09,0.48,0.21,0.66s0.27,0.32,0.45,0.43s0.38,0.19,0.6,0.23s0.44,0.07,0.65,0.07
			c0.53,0,0.95-0.1,1.26-0.29S222.39,8.86,222.39,8.54z"/>
		<path class="st2" d="M228.32,7.88l0.33,0.9l2.26-5.67h1.42l-3.75,8.54c-0.09,0.19-0.2,0.39-0.33,0.61s-0.3,0.41-0.49,0.59
			s-0.41,0.33-0.67,0.46s-0.55,0.18-0.88,0.18c-0.06,0-0.13,0-0.2-0.01s-0.15-0.02-0.22-0.03s-0.14-0.02-0.21-0.04
			s-0.12-0.02-0.16-0.03l0.21-1.03c0.03,0,0.08,0,0.13,0.01s0.11,0.01,0.17,0.01s0.12,0.01,0.17,0.01s0.1,0,0.13,0
			c0.17,0,0.33-0.05,0.48-0.14s0.27-0.21,0.38-0.34s0.21-0.27,0.29-0.41s0.14-0.26,0.19-0.35l0.51-0.98l-3.19-7.05h1.42L228.32,7.88
			z"/>
		<path class="st2" d="M236.87,9.61c0.23,0,0.45-0.04,0.67-0.11s0.41-0.17,0.58-0.3s0.3-0.28,0.41-0.46s0.16-0.37,0.16-0.57h1.2
			c0,0.33-0.09,0.64-0.26,0.94s-0.39,0.56-0.67,0.79s-0.6,0.41-0.96,0.54s-0.74,0.2-1.13,0.2c-0.56,0-1.05-0.1-1.47-0.3
			s-0.77-0.47-1.05-0.81s-0.49-0.73-0.63-1.18s-0.21-0.91-0.21-1.4V6.66c0-0.49,0.07-0.95,0.21-1.4s0.35-0.84,0.63-1.18
			s0.63-0.61,1.05-0.81s0.91-0.3,1.47-0.3c0.44,0,0.84,0.07,1.21,0.21s0.68,0.33,0.95,0.57s0.48,0.52,0.63,0.85s0.23,0.68,0.23,1.05
			h-1.2c0-0.22-0.05-0.43-0.15-0.63s-0.22-0.37-0.38-0.52s-0.35-0.27-0.57-0.36s-0.46-0.13-0.71-0.13c-0.39,0-0.72,0.08-0.99,0.24
			s-0.48,0.36-0.65,0.62s-0.28,0.54-0.35,0.85s-0.11,0.63-0.11,0.95v0.29c0,0.32,0.04,0.64,0.11,0.96s0.19,0.6,0.35,0.85
			s0.38,0.46,0.64,0.62S236.48,9.61,236.87,9.61z"/>
		<path class="st2" d="M243.11,4.2c0.26-0.39,0.59-0.69,0.98-0.91s0.82-0.33,1.31-0.33c0.39,0,0.74,0.06,1.06,0.17
			s0.59,0.29,0.81,0.52s0.4,0.54,0.52,0.9s0.18,0.79,0.18,1.29v4.66h-1.26V5.83c0-0.61-0.14-1.06-0.43-1.35s-0.7-0.44-1.24-0.44
			c-0.41,0-0.77,0.1-1.1,0.3s-0.6,0.46-0.8,0.79v5.37h-1.26V0h1.26V4.2z"/>
		<path class="st2" d="M253.23,10.64c-0.52,0-1-0.09-1.43-0.27s-0.81-0.43-1.12-0.75s-0.55-0.7-0.72-1.13s-0.26-0.91-0.26-1.43V6.77
			c0-0.6,0.1-1.13,0.29-1.6s0.45-0.87,0.76-1.2s0.68-0.58,1.08-0.75s0.82-0.26,1.24-0.26c0.53,0,1,0.09,1.4,0.28
			s0.73,0.44,0.99,0.77s0.46,0.71,0.59,1.15s0.19,0.92,0.19,1.44v0.57h-5.28c0.01,0.34,0.08,0.65,0.19,0.95s0.28,0.55,0.48,0.78
			s0.45,0.4,0.73,0.52s0.59,0.19,0.94,0.19c0.45,0,0.85-0.09,1.2-0.27s0.64-0.42,0.88-0.72l0.77,0.6c-0.12,0.19-0.28,0.37-0.46,0.54
			s-0.4,0.32-0.64,0.45s-0.52,0.24-0.82,0.32S253.59,10.64,253.23,10.64z M253.07,4.01c-0.26,0-0.5,0.05-0.72,0.14
			s-0.43,0.23-0.62,0.41s-0.34,0.4-0.46,0.66s-0.21,0.56-0.26,0.91h3.98v-0.1c-0.01-0.25-0.06-0.49-0.14-0.73s-0.2-0.46-0.35-0.65
			s-0.35-0.35-0.58-0.46S253.39,4.01,253.07,4.01z"/>
		<path class="st2" d="M267.59,0.55l1.62,4.98l1.75-4.98h1.57v9.95h-1.23V6.53l0.1-4.16l-1.84,5.36h-0.72l-1.69-5.22l0.1,4.01v3.97
			h-1.23V0.55H267.59z"/>
		<path class="st2" d="M274.53,3.1h3.78v6.3h2.41v1.09h-6.19V9.41h2.52V4.2h-2.52V3.1z M276.88,1.16c0-0.21,0.06-0.39,0.19-0.53
			s0.32-0.22,0.57-0.22c0.25,0,0.44,0.07,0.57,0.22s0.19,0.32,0.19,0.53c0,0.21-0.06,0.38-0.19,0.51s-0.32,0.21-0.57,0.21
			c-0.26,0-0.45-0.07-0.57-0.21S276.88,1.37,276.88,1.16z"/>
		<path class="st2" d="M287.36,8.54c0-0.15-0.03-0.29-0.09-0.41s-0.16-0.23-0.3-0.33s-0.33-0.19-0.56-0.28s-0.52-0.16-0.87-0.23
			c-0.42-0.09-0.81-0.19-1.16-0.31s-0.65-0.27-0.9-0.44s-0.44-0.37-0.58-0.6s-0.21-0.5-0.21-0.8c0-0.3,0.07-0.58,0.21-0.84
			s0.34-0.49,0.59-0.69s0.56-0.35,0.91-0.46s0.74-0.17,1.17-0.17c0.46,0,0.87,0.06,1.23,0.18s0.67,0.28,0.93,0.49
			s0.45,0.45,0.59,0.73s0.21,0.58,0.21,0.91h-1.26c0-0.16-0.04-0.32-0.12-0.47s-0.2-0.29-0.34-0.41s-0.32-0.21-0.53-0.29
			s-0.44-0.11-0.7-0.11c-0.27,0-0.5,0.03-0.71,0.09s-0.37,0.14-0.51,0.24s-0.24,0.22-0.3,0.35s-0.1,0.27-0.1,0.41
			c0,0.15,0.03,0.28,0.08,0.39s0.15,0.22,0.28,0.31s0.31,0.17,0.54,0.25s0.51,0.14,0.86,0.21c0.46,0.1,0.86,0.21,1.22,0.33
			s0.66,0.28,0.91,0.45s0.43,0.38,0.56,0.61s0.19,0.5,0.19,0.81c0,0.33-0.07,0.63-0.22,0.9s-0.35,0.5-0.62,0.69
			s-0.58,0.34-0.95,0.44s-0.77,0.16-1.21,0.16c-0.5,0-0.95-0.07-1.34-0.2s-0.72-0.31-0.99-0.53s-0.48-0.48-0.62-0.77
			s-0.22-0.59-0.22-0.91h1.26c0.02,0.26,0.09,0.48,0.21,0.66s0.27,0.32,0.45,0.43s0.38,0.19,0.6,0.23s0.44,0.07,0.65,0.07
			c0.53,0,0.95-0.1,1.26-0.29S287.36,8.86,287.36,8.54z"/>
		<path class="st2" d="M295.49,8.54c0-0.15-0.03-0.29-0.09-0.41s-0.16-0.23-0.3-0.33s-0.33-0.19-0.56-0.28s-0.52-0.16-0.87-0.23
			c-0.42-0.09-0.81-0.19-1.16-0.31s-0.65-0.27-0.9-0.44s-0.44-0.37-0.58-0.6s-0.21-0.5-0.21-0.8c0-0.3,0.07-0.58,0.21-0.84
			s0.34-0.49,0.59-0.69s0.56-0.35,0.91-0.46s0.74-0.17,1.17-0.17c0.46,0,0.87,0.06,1.23,0.18s0.67,0.28,0.93,0.49
			s0.45,0.45,0.59,0.73s0.21,0.58,0.21,0.91h-1.26c0-0.16-0.04-0.32-0.12-0.47s-0.2-0.29-0.34-0.41s-0.32-0.21-0.53-0.29
			s-0.44-0.11-0.7-0.11c-0.27,0-0.5,0.03-0.71,0.09s-0.37,0.14-0.51,0.24s-0.24,0.22-0.3,0.35s-0.1,0.27-0.1,0.41
			c0,0.15,0.03,0.28,0.08,0.39s0.15,0.22,0.28,0.31s0.31,0.17,0.54,0.25s0.51,0.14,0.86,0.21c0.46,0.1,0.86,0.21,1.22,0.33
			s0.66,0.28,0.91,0.45s0.43,0.38,0.56,0.61s0.19,0.5,0.19,0.81c0,0.33-0.07,0.63-0.22,0.9s-0.35,0.5-0.62,0.69
			s-0.58,0.34-0.95,0.44s-0.77,0.16-1.21,0.16c-0.5,0-0.95-0.07-1.34-0.2s-0.72-0.31-0.99-0.53s-0.48-0.48-0.62-0.77
			s-0.22-0.59-0.22-0.91h1.26c0.02,0.26,0.09,0.48,0.21,0.66s0.27,0.32,0.45,0.43s0.38,0.19,0.6,0.23s0.44,0.07,0.65,0.07
			c0.53,0,0.95-0.1,1.26-0.29S295.48,8.86,295.49,8.54z"/>
		<path class="st2" d="M298.89,3.1h3.78v6.3h2.41v1.09h-6.19V9.41h2.52V4.2h-2.52V3.1z M301.24,1.16c0-0.21,0.06-0.39,0.19-0.53
			s0.32-0.22,0.57-0.22c0.25,0,0.44,0.07,0.57,0.22s0.19,0.32,0.19,0.53c0,0.21-0.06,0.38-0.19,0.51s-0.32,0.21-0.57,0.21
			c-0.26,0-0.45-0.07-0.57-0.21S301.24,1.37,301.24,1.16z"/>
		<path class="st2" d="M306.46,6.73c0-0.53,0.08-1.03,0.23-1.49s0.38-0.86,0.67-1.19s0.64-0.6,1.06-0.8s0.88-0.29,1.4-0.29
			c0.52,0,0.99,0.1,1.41,0.29s0.77,0.46,1.06,0.8s0.51,0.73,0.67,1.19s0.23,0.95,0.23,1.49v0.15c0,0.53-0.08,1.03-0.23,1.48
			s-0.38,0.85-0.67,1.19s-0.64,0.6-1.06,0.79s-0.88,0.29-1.4,0.29c-0.52,0-0.99-0.1-1.41-0.29s-0.77-0.46-1.06-0.79
			s-0.51-0.73-0.67-1.19s-0.23-0.95-0.23-1.48V6.73z M307.72,6.88c0,0.36,0.04,0.71,0.13,1.04s0.22,0.62,0.39,0.87
			s0.4,0.45,0.66,0.59s0.57,0.22,0.92,0.22c0.35,0,0.65-0.07,0.91-0.22s0.48-0.34,0.66-0.59s0.31-0.54,0.39-0.87
			s0.13-0.68,0.13-1.04V6.73c0-0.36-0.04-0.71-0.13-1.04s-0.22-0.62-0.4-0.87s-0.39-0.45-0.66-0.6s-0.57-0.22-0.92-0.22
			s-0.66,0.07-0.92,0.22s-0.48,0.35-0.65,0.6s-0.31,0.54-0.39,0.87s-0.13,0.68-0.13,1.04V6.88z"/>
		<path class="st2" d="M316.07,3.1l0.09,1.09c0.27-0.38,0.6-0.68,0.99-0.9s0.83-0.33,1.31-0.33c0.39,0,0.74,0.05,1.06,0.16
			s0.59,0.28,0.81,0.51s0.4,0.53,0.52,0.89s0.18,0.78,0.18,1.27v4.7h-1.26V5.83c0-0.33-0.04-0.61-0.11-0.83s-0.18-0.41-0.32-0.55
			s-0.32-0.24-0.53-0.31s-0.45-0.1-0.71-0.1c-0.42,0-0.8,0.11-1.12,0.32s-0.58,0.49-0.77,0.84v5.3h-1.26V3.1H316.07z"/>
		<path class="st2" d="M234.87,29.98c0-0.31-0.07-0.56-0.21-0.77s-0.32-0.39-0.54-0.53s-0.46-0.26-0.72-0.36s-0.51-0.18-0.76-0.26
			c-0.35-0.11-0.71-0.25-1.07-0.41s-0.69-0.36-0.99-0.59s-0.54-0.51-0.73-0.82s-0.28-0.69-0.28-1.12s0.09-0.81,0.28-1.15
			s0.44-0.62,0.74-0.85s0.65-0.41,1.04-0.53s0.78-0.18,1.17-0.18c0.43,0,0.85,0.07,1.25,0.22s0.76,0.35,1.07,0.6
			s0.56,0.57,0.75,0.94s0.28,0.78,0.29,1.24h-1.3c-0.04-0.29-0.11-0.55-0.21-0.78s-0.24-0.44-0.42-0.6s-0.38-0.3-0.62-0.39
			s-0.51-0.14-0.81-0.14c-0.24,0-0.48,0.03-0.71,0.1s-0.44,0.17-0.62,0.31s-0.32,0.31-0.43,0.51s-0.16,0.43-0.16,0.7
			c0,0.29,0.08,0.53,0.22,0.73s0.32,0.37,0.54,0.5s0.45,0.25,0.7,0.34s0.49,0.17,0.71,0.24c0.25,0.08,0.49,0.17,0.75,0.26
			s0.49,0.21,0.72,0.34s0.45,0.27,0.65,0.43s0.38,0.34,0.53,0.54s0.27,0.43,0.35,0.67s0.13,0.51,0.13,0.81c0,0.45-0.1,0.84-0.3,1.17
			s-0.45,0.61-0.77,0.83s-0.67,0.39-1.07,0.5s-0.79,0.17-1.19,0.17c-0.44,0-0.88-0.07-1.3-0.21s-0.8-0.33-1.14-0.59
			s-0.61-0.57-0.82-0.94s-0.32-0.79-0.33-1.27h1.29c0.04,0.31,0.13,0.58,0.25,0.82s0.29,0.44,0.49,0.61s0.43,0.29,0.69,0.38
			s0.55,0.13,0.86,0.13c0.25,0,0.49-0.03,0.73-0.09s0.45-0.16,0.64-0.29s0.34-0.29,0.46-0.49S234.87,30.26,234.87,29.98z"/>
		<path class="st2" d="M244.02,28.88c0,0.53-0.06,1.02-0.19,1.48s-0.31,0.86-0.56,1.19s-0.55,0.6-0.91,0.79s-0.78,0.29-1.24,0.29
			c-0.45,0-0.85-0.07-1.19-0.22s-0.64-0.36-0.89-0.63v3.55h-1.26V25.1h1.16l0.06,0.81c0.25-0.31,0.54-0.54,0.89-0.7
			s0.75-0.24,1.21-0.24c0.47,0,0.89,0.09,1.26,0.28s0.67,0.45,0.92,0.78s0.43,0.73,0.56,1.19s0.19,0.97,0.19,1.52V28.88z
			 M242.75,28.74c0-0.36-0.04-0.7-0.12-1.03s-0.2-0.61-0.37-0.86s-0.38-0.45-0.63-0.59s-0.56-0.22-0.92-0.22
			c-0.41,0-0.75,0.09-1.02,0.28s-0.5,0.43-0.66,0.73v3.56c0.16,0.29,0.38,0.53,0.66,0.71s0.62,0.28,1.04,0.28
			c0.35,0,0.65-0.07,0.91-0.22s0.46-0.35,0.63-0.6s0.29-0.54,0.37-0.87s0.12-0.67,0.12-1.03V28.74z"/>
		<path class="st2" d="M250.76,32.5c-0.05-0.1-0.09-0.22-0.12-0.36s-0.05-0.29-0.06-0.45c-0.13,0.13-0.27,0.25-0.43,0.36
			s-0.33,0.21-0.52,0.3s-0.39,0.15-0.6,0.21s-0.44,0.08-0.68,0.08c-0.39,0-0.75-0.06-1.06-0.17s-0.59-0.27-0.81-0.46
			s-0.39-0.42-0.51-0.69s-0.18-0.55-0.18-0.86c0-0.41,0.08-0.76,0.24-1.07s0.39-0.56,0.69-0.76s0.65-0.35,1.07-0.45
			s0.88-0.15,1.4-0.15h1.38v-0.58c0-0.22-0.04-0.42-0.12-0.6s-0.2-0.33-0.35-0.45s-0.33-0.22-0.55-0.29s-0.46-0.1-0.73-0.1
			c-0.25,0-0.48,0.03-0.67,0.1s-0.37,0.15-0.5,0.25s-0.24,0.23-0.32,0.37s-0.11,0.29-0.11,0.45h-1.27c0-0.27,0.07-0.53,0.21-0.79
			s0.33-0.49,0.58-0.7s0.56-0.38,0.92-0.5s0.77-0.19,1.23-0.19c0.42,0,0.81,0.05,1.17,0.15s0.67,0.26,0.93,0.46s0.47,0.47,0.62,0.78
			s0.23,0.67,0.23,1.09v3.44c0,0.25,0.02,0.51,0.07,0.78s0.11,0.52,0.19,0.72v0.11H250.76z M248.52,31.54c0.25,0,0.48-0.03,0.69-0.1
			s0.41-0.15,0.58-0.25s0.33-0.22,0.45-0.36s0.23-0.27,0.3-0.42v-1.5h-1.18c-0.74,0-1.31,0.11-1.72,0.33s-0.62,0.56-0.62,1.03
			c0,0.18,0.03,0.35,0.09,0.51s0.15,0.29,0.28,0.4s0.28,0.2,0.46,0.26S248.28,31.54,248.52,31.54z"/>
		<path class="st2" d="M257.17,31.61c0.23,0,0.45-0.04,0.67-0.11s0.41-0.17,0.58-0.3s0.3-0.28,0.41-0.46s0.16-0.37,0.16-0.57h1.2
			c0,0.33-0.09,0.64-0.26,0.94s-0.39,0.56-0.67,0.79s-0.6,0.41-0.96,0.54s-0.74,0.2-1.13,0.2c-0.56,0-1.05-0.1-1.47-0.3
			s-0.77-0.47-1.05-0.81s-0.49-0.73-0.63-1.18s-0.21-0.91-0.21-1.4v-0.29c0-0.49,0.07-0.95,0.21-1.4s0.35-0.84,0.63-1.18
			s0.63-0.61,1.05-0.81s0.91-0.3,1.47-0.3c0.44,0,0.84,0.07,1.21,0.21s0.68,0.33,0.95,0.57s0.48,0.52,0.63,0.85s0.23,0.68,0.23,1.05
			h-1.2c0-0.22-0.05-0.43-0.15-0.63s-0.22-0.37-0.38-0.52s-0.35-0.27-0.57-0.36s-0.46-0.13-0.71-0.13c-0.39,0-0.72,0.08-0.99,0.24
			s-0.48,0.36-0.65,0.62s-0.28,0.54-0.35,0.85s-0.11,0.63-0.11,0.95v0.29c0,0.32,0.04,0.64,0.11,0.96s0.19,0.6,0.35,0.85
			s0.38,0.46,0.64,0.62S256.78,31.61,257.17,31.61z"/>
		<path class="st2" d="M265.41,32.64c-0.52,0-1-0.09-1.43-0.27s-0.81-0.43-1.12-0.75s-0.55-0.7-0.72-1.13s-0.26-0.91-0.26-1.43
			v-0.29c0-0.6,0.1-1.13,0.29-1.6s0.45-0.87,0.76-1.2s0.68-0.58,1.08-0.75s0.82-0.26,1.24-0.26c0.53,0,1,0.09,1.4,0.28
			s0.73,0.44,0.99,0.77s0.46,0.71,0.59,1.15s0.19,0.92,0.19,1.44v0.57h-5.28c0.01,0.34,0.08,0.65,0.19,0.95s0.28,0.55,0.48,0.78
			s0.45,0.4,0.73,0.52s0.59,0.19,0.94,0.19c0.45,0,0.85-0.09,1.2-0.27s0.64-0.42,0.88-0.72l0.77,0.6c-0.12,0.19-0.28,0.37-0.46,0.54
			s-0.4,0.32-0.64,0.45s-0.52,0.24-0.82,0.32S265.77,32.64,265.41,32.64z M265.25,26.01c-0.26,0-0.5,0.05-0.72,0.14
			s-0.43,0.23-0.62,0.41s-0.34,0.4-0.46,0.66s-0.21,0.56-0.26,0.91h3.98v-0.1c-0.01-0.25-0.06-0.49-0.14-0.73s-0.2-0.46-0.35-0.65
			s-0.35-0.35-0.58-0.46S265.57,26.01,265.25,26.01z"/>
		<path class="st2" d="M273.41,31.61c0.23,0,0.45-0.04,0.67-0.11s0.41-0.17,0.58-0.3s0.3-0.28,0.41-0.46s0.16-0.37,0.16-0.57h1.2
			c0,0.33-0.09,0.64-0.26,0.94s-0.39,0.56-0.67,0.79s-0.6,0.41-0.96,0.54s-0.74,0.2-1.13,0.2c-0.56,0-1.05-0.1-1.47-0.3
			s-0.77-0.47-1.05-0.81s-0.49-0.73-0.63-1.18s-0.21-0.91-0.21-1.4v-0.29c0-0.49,0.07-0.95,0.21-1.4s0.35-0.84,0.63-1.18
			s0.63-0.61,1.05-0.81s0.91-0.3,1.47-0.3c0.44,0,0.84,0.07,1.21,0.21s0.68,0.33,0.95,0.57s0.48,0.52,0.63,0.85s0.23,0.68,0.23,1.05
			h-1.2c0-0.22-0.05-0.43-0.15-0.63s-0.22-0.37-0.38-0.52s-0.35-0.27-0.57-0.36s-0.46-0.13-0.71-0.13c-0.39,0-0.72,0.08-0.99,0.24
			s-0.48,0.36-0.65,0.62s-0.28,0.54-0.35,0.85s-0.11,0.63-0.11,0.95v0.29c0,0.32,0.04,0.64,0.11,0.96s0.19,0.6,0.35,0.85
			s0.38,0.46,0.64,0.62S273.02,31.61,273.41,31.61z"/>
		<path class="st2" d="M283.23,24.97c0.12,0,0.24,0,0.37,0.01s0.25,0.02,0.37,0.03s0.22,0.04,0.32,0.06s0.18,0.05,0.24,0.08
			l-0.17,1.24c-0.25-0.05-0.48-0.09-0.7-0.12s-0.45-0.04-0.69-0.04c-0.59,0-1.07,0.13-1.44,0.4s-0.64,0.65-0.81,1.13v4.74h-1.27
			v-7.4h1.2l0.06,1.18c0.3-0.41,0.66-0.73,1.08-0.96S282.69,24.97,283.23,24.97z"/>
		<path class="st2" d="M291.37,32.5c-0.05-0.1-0.09-0.22-0.12-0.36s-0.05-0.29-0.06-0.45c-0.13,0.13-0.27,0.25-0.43,0.36
			s-0.33,0.21-0.52,0.3s-0.39,0.15-0.6,0.21s-0.44,0.08-0.68,0.08c-0.39,0-0.75-0.06-1.06-0.17s-0.59-0.27-0.81-0.46
			s-0.39-0.42-0.51-0.69s-0.18-0.55-0.18-0.86c0-0.41,0.08-0.76,0.24-1.07s0.39-0.56,0.69-0.76s0.65-0.35,1.07-0.45
			s0.88-0.15,1.4-0.15h1.38v-0.58c0-0.22-0.04-0.42-0.12-0.6s-0.2-0.33-0.35-0.45s-0.33-0.22-0.55-0.29s-0.46-0.1-0.73-0.1
			c-0.25,0-0.48,0.03-0.67,0.1s-0.37,0.15-0.5,0.25s-0.24,0.23-0.32,0.37s-0.11,0.29-0.11,0.45h-1.27c0-0.27,0.07-0.53,0.21-0.79
			s0.33-0.49,0.58-0.7s0.56-0.38,0.92-0.5s0.77-0.19,1.23-0.19c0.42,0,0.81,0.05,1.17,0.15s0.67,0.26,0.93,0.46s0.47,0.47,0.62,0.78
			s0.23,0.67,0.23,1.09v3.44c0,0.25,0.02,0.51,0.07,0.78s0.11,0.52,0.19,0.72v0.11H291.37z M289.13,31.54c0.25,0,0.48-0.03,0.69-0.1
			s0.41-0.15,0.58-0.25s0.33-0.22,0.45-0.36s0.23-0.27,0.3-0.42v-1.5h-1.18c-0.74,0-1.31,0.11-1.72,0.33s-0.62,0.56-0.62,1.03
			c0,0.18,0.03,0.35,0.09,0.51s0.15,0.29,0.28,0.4s0.28,0.2,0.46,0.26S288.89,31.54,289.13,31.54z"/>
		<path class="st2" d="M296.51,32.5v-6.42h-2.04V25.1h2.04v-0.52c0-0.47,0.07-0.89,0.21-1.25s0.33-0.66,0.59-0.9
			s0.56-0.42,0.91-0.55s0.75-0.18,1.19-0.18c0.3,0,0.59,0.02,0.88,0.08s0.58,0.11,0.88,0.19l-0.15,1.05
			c-0.19-0.06-0.4-0.12-0.65-0.17s-0.51-0.07-0.8-0.07c-0.59,0-1.04,0.15-1.34,0.45s-0.45,0.75-0.45,1.35v0.52h2.85v0.98h-2.85v6.42
			H296.51z"/>
		<path class="st2" d="M305.75,23.31v1.79h2.82v0.98h-2.82v4.02c0,0.29,0.04,0.52,0.11,0.71s0.17,0.34,0.3,0.45s0.27,0.19,0.44,0.24
			s0.34,0.07,0.53,0.07c0.14,0,0.28-0.01,0.42-0.02s0.29-0.04,0.43-0.06s0.27-0.05,0.39-0.07s0.22-0.05,0.3-0.06l0.18,0.9
			c-0.1,0.06-0.23,0.12-0.38,0.17s-0.31,0.09-0.49,0.12s-0.37,0.06-0.56,0.08s-0.4,0.03-0.59,0.03c-0.33,0-0.63-0.05-0.92-0.14
			s-0.53-0.24-0.74-0.44s-0.38-0.46-0.5-0.79s-0.18-0.71-0.18-1.17v-4.02h-1.94V25.1h1.94v-1.79H305.75z"/>
	</g>
	<g>
		<path class="st2" d="M228.25,421.63h-3.08v8.87h-1.23v-8.87h-3.08v-1.08h7.38V421.63z"/>
		<path class="st2" d="M232.93,430.64c-0.52,0-1-0.09-1.43-0.27s-0.81-0.43-1.12-0.75s-0.55-0.7-0.72-1.13s-0.26-0.91-0.26-1.43
			v-0.29c0-0.6,0.1-1.13,0.29-1.6s0.45-0.87,0.76-1.2s0.68-0.58,1.08-0.75s0.82-0.26,1.24-0.26c0.53,0,1,0.09,1.4,0.28
			s0.73,0.44,0.99,0.77s0.46,0.71,0.59,1.15s0.19,0.92,0.19,1.44v0.57h-5.28c0.01,0.34,0.08,0.65,0.19,0.95s0.28,0.55,0.48,0.78
			s0.45,0.4,0.73,0.52s0.59,0.19,0.94,0.19c0.45,0,0.85-0.09,1.2-0.27s0.64-0.42,0.88-0.72l0.77,0.6c-0.12,0.19-0.28,0.37-0.46,0.54
			s-0.4,0.32-0.64,0.45s-0.52,0.24-0.82,0.32S233.29,430.64,232.93,430.64z M232.76,424.01c-0.26,0-0.5,0.05-0.72,0.14
			s-0.43,0.23-0.62,0.41s-0.34,0.4-0.46,0.66s-0.21,0.56-0.26,0.91h3.98v-0.1c-0.01-0.25-0.06-0.49-0.14-0.73s-0.2-0.46-0.35-0.65
			s-0.35-0.35-0.58-0.46S233.09,424.01,232.76,424.01z"/>
		<path class="st2" d="M238.92,423.1l0.09,1.09c0.27-0.38,0.6-0.68,0.99-0.9s0.83-0.33,1.31-0.33c0.39,0,0.74,0.05,1.06,0.16
			s0.59,0.28,0.81,0.51s0.4,0.53,0.52,0.89s0.18,0.78,0.18,1.27v4.7h-1.26v-4.67c0-0.33-0.04-0.61-0.11-0.83s-0.18-0.41-0.32-0.55
			s-0.32-0.24-0.53-0.31s-0.45-0.1-0.71-0.1c-0.42,0-0.8,0.11-1.12,0.32s-0.58,0.49-0.77,0.84v5.3h-1.26v-7.4H238.92z"/>
		<path class="st2" d="M247.04,423.1l0.09,1.09c0.27-0.38,0.6-0.68,0.99-0.9s0.83-0.33,1.31-0.33c0.39,0,0.74,0.05,1.06,0.16
			s0.59,0.28,0.81,0.51s0.4,0.53,0.52,0.89s0.18,0.78,0.18,1.27v4.7h-1.26v-4.67c0-0.33-0.04-0.61-0.11-0.83s-0.18-0.41-0.32-0.55
			s-0.32-0.24-0.53-0.31s-0.45-0.1-0.71-0.1c-0.42,0-0.8,0.11-1.12,0.32s-0.58,0.49-0.77,0.84v5.3h-1.26v-7.4H247.04z"/>
		<path class="st2" d="M254.22,423.1H258v6.3h2.41v1.09h-6.19v-1.09h2.52v-5.2h-2.52V423.1z M256.57,421.16
			c0-0.21,0.06-0.39,0.19-0.53s0.32-0.22,0.57-0.22c0.25,0,0.44,0.07,0.57,0.22s0.19,0.32,0.19,0.53c0,0.21-0.06,0.38-0.19,0.51
			s-0.32,0.21-0.57,0.21c-0.26,0-0.45-0.07-0.57-0.21S256.57,421.37,256.57,421.16z"/>
		<path class="st2" d="M267.06,428.54c0-0.15-0.03-0.29-0.09-0.41s-0.16-0.23-0.3-0.33s-0.33-0.19-0.56-0.28s-0.52-0.16-0.87-0.23
			c-0.42-0.09-0.81-0.19-1.16-0.31s-0.65-0.27-0.9-0.44s-0.44-0.37-0.58-0.6s-0.21-0.5-0.21-0.8c0-0.3,0.07-0.58,0.21-0.84
			s0.34-0.49,0.59-0.69s0.56-0.35,0.91-0.46s0.74-0.17,1.17-0.17c0.46,0,0.87,0.06,1.23,0.18s0.67,0.28,0.93,0.49
			s0.45,0.45,0.59,0.73s0.21,0.58,0.21,0.91h-1.26c0-0.16-0.04-0.32-0.12-0.47s-0.2-0.29-0.34-0.41s-0.32-0.21-0.53-0.29
			s-0.44-0.11-0.7-0.11c-0.27,0-0.5,0.03-0.71,0.09s-0.37,0.14-0.51,0.24s-0.24,0.22-0.3,0.35s-0.1,0.27-0.1,0.41
			c0,0.15,0.03,0.28,0.08,0.39s0.15,0.22,0.28,0.31s0.31,0.17,0.54,0.25s0.51,0.14,0.86,0.21c0.46,0.1,0.86,0.21,1.22,0.33
			s0.66,0.28,0.91,0.45s0.43,0.38,0.56,0.61s0.19,0.5,0.19,0.81c0,0.33-0.07,0.63-0.22,0.9s-0.35,0.5-0.62,0.69
			s-0.58,0.34-0.95,0.44s-0.77,0.16-1.21,0.16c-0.5,0-0.95-0.07-1.34-0.2s-0.72-0.31-0.99-0.53s-0.48-0.48-0.62-0.77
			s-0.22-0.59-0.22-0.91h1.26c0.02,0.26,0.09,0.48,0.21,0.66s0.27,0.32,0.45,0.43s0.38,0.19,0.6,0.23s0.44,0.07,0.65,0.07
			c0.53,0,0.95-0.1,1.26-0.29S267.06,428.86,267.06,428.54z"/>
		<path class="st2" d="M284.83,427.51c-0.06,0.46-0.18,0.88-0.36,1.27s-0.41,0.72-0.69,0.99s-0.62,0.49-1.01,0.64
			s-0.82,0.23-1.3,0.23c-0.41,0-0.78-0.06-1.12-0.17s-0.63-0.28-0.9-0.48s-0.49-0.45-0.68-0.72s-0.35-0.58-0.47-0.91
			s-0.22-0.67-0.28-1.03s-0.09-0.72-0.1-1.09v-1.39c0-0.37,0.04-0.73,0.1-1.09s0.15-0.7,0.28-1.03s0.28-0.63,0.47-0.91
			s0.41-0.52,0.68-0.73s0.56-0.37,0.89-0.48s0.71-0.17,1.12-0.17c0.5,0,0.94,0.08,1.33,0.23s0.73,0.37,1.01,0.65
			s0.51,0.62,0.68,1.01s0.28,0.82,0.34,1.3h-1.26c-0.04-0.3-0.11-0.58-0.21-0.84s-0.23-0.49-0.4-0.68s-0.38-0.35-0.62-0.46
			s-0.53-0.17-0.86-0.17c-0.3,0-0.57,0.05-0.8,0.15s-0.43,0.23-0.59,0.4s-0.31,0.36-0.42,0.59s-0.2,0.46-0.27,0.71
			s-0.12,0.51-0.15,0.77s-0.04,0.52-0.04,0.76v1.4c0,0.25,0.01,0.5,0.04,0.76s0.08,0.52,0.15,0.77s0.16,0.49,0.27,0.71
			s0.25,0.42,0.42,0.59s0.37,0.31,0.59,0.4s0.49,0.15,0.8,0.15c0.33,0,0.62-0.05,0.86-0.16s0.45-0.25,0.62-0.44s0.3-0.41,0.4-0.67
			s0.17-0.54,0.21-0.84H284.83z"/>
		<path class="st2" d="M286.15,426.73c0-0.53,0.08-1.03,0.23-1.49s0.38-0.86,0.67-1.19s0.64-0.6,1.06-0.8s0.88-0.29,1.4-0.29
			c0.52,0,0.99,0.1,1.41,0.29s0.77,0.46,1.06,0.8s0.51,0.73,0.67,1.19s0.23,0.95,0.23,1.49v0.15c0,0.53-0.08,1.03-0.23,1.48
			s-0.38,0.85-0.67,1.19s-0.64,0.6-1.06,0.79s-0.88,0.29-1.4,0.29c-0.52,0-0.99-0.1-1.41-0.29s-0.77-0.46-1.06-0.79
			s-0.51-0.73-0.67-1.19s-0.23-0.95-0.23-1.48V426.73z M287.42,426.88c0,0.36,0.04,0.71,0.13,1.04s0.22,0.62,0.39,0.87
			s0.4,0.45,0.66,0.59s0.57,0.22,0.92,0.22c0.35,0,0.65-0.07,0.91-0.22s0.48-0.34,0.66-0.59s0.31-0.54,0.39-0.87
			s0.13-0.68,0.13-1.04v-0.15c0-0.36-0.04-0.71-0.13-1.04s-0.22-0.62-0.4-0.87s-0.39-0.45-0.66-0.6s-0.57-0.22-0.92-0.22
			s-0.66,0.07-0.92,0.22s-0.48,0.35-0.65,0.6s-0.31,0.54-0.39,0.87s-0.13,0.68-0.13,1.04V426.88z"/>
		<path class="st2" d="M299.43,429.48c-0.25,0.36-0.55,0.65-0.92,0.85s-0.8,0.3-1.28,0.3c-0.39,0-0.74-0.06-1.05-0.18
			s-0.58-0.31-0.81-0.56s-0.4-0.58-0.52-0.97s-0.18-0.87-0.18-1.42v-4.4h1.26v4.41c0,0.4,0.03,0.73,0.1,1s0.16,0.48,0.29,0.63
			s0.28,0.27,0.47,0.33s0.4,0.1,0.64,0.1c0.52,0,0.93-0.1,1.25-0.31s0.55-0.49,0.71-0.85v-5.3h1.27v7.4h-1.15L299.43,429.48z"/>
		<path class="st2" d="M307.6,422.97c0.12,0,0.24,0,0.37,0.01s0.25,0.02,0.37,0.03s0.22,0.04,0.32,0.06s0.18,0.05,0.24,0.08
			l-0.17,1.24c-0.25-0.05-0.48-0.09-0.7-0.12s-0.45-0.04-0.69-0.04c-0.59,0-1.07,0.13-1.44,0.4s-0.64,0.65-0.81,1.13v4.74h-1.27
			v-7.4h1.2l0.06,1.18c0.3-0.41,0.66-0.73,1.08-0.96S307.06,422.97,307.6,422.97z"/>
		<path class="st2" d="M313.87,421.31v1.79h2.82v0.98h-2.82v4.02c0,0.29,0.04,0.52,0.11,0.71s0.17,0.34,0.3,0.45
			s0.27,0.19,0.44,0.24s0.34,0.07,0.53,0.07c0.14,0,0.28-0.01,0.42-0.02s0.29-0.04,0.43-0.06s0.27-0.05,0.39-0.07
			s0.22-0.05,0.3-0.06l0.18,0.9c-0.1,0.06-0.23,0.12-0.38,0.17s-0.31,0.09-0.49,0.12s-0.37,0.06-0.56,0.08s-0.4,0.03-0.59,0.03
			c-0.33,0-0.63-0.05-0.92-0.14s-0.53-0.24-0.74-0.44s-0.38-0.46-0.5-0.79s-0.18-0.71-0.18-1.17v-4.02h-1.94v-0.98h1.94v-1.79
			H313.87z"/>
	</g>
	<g>
		<g>
			<rect x="243.89" y="84.65" class="st4" width="50.7" height="50.7"/>
			<path class="st5" d="M294.57,136.88C294.57,136.88,294.57,136.88,294.57,136.88l-50.71-0.04c-0.83,0-1.5-0.67-1.5-1.5l0.04-50.7
				c0-0.4,0.16-0.78,0.44-1.06c0.28-0.28,0.66-0.44,1.06-0.44c0,0,0,0,0,0l50.7,0.04c0.83,0,1.5,0.67,1.5,1.5l-0.04,50.7
				c0,0.4-0.16,0.78-0.44,1.06C295.35,136.72,294.97,136.88,294.57,136.88z M245.37,133.84l47.7,0.03l0.03-47.7l-47.7-0.03
				L245.37,133.84z"/>
		</g>
		<g>
			<polygon class="st4" points="294.57,84.67 243.86,84.64 259.63,54.94 278.84,54.95 			"/>
			<path class="st5" d="M294.57,86.17C294.57,86.17,294.57,86.17,294.57,86.17l-50.71-0.04c-0.53,0-1.01-0.28-1.28-0.73
				s-0.29-1.01-0.04-1.48l15.77-29.7c0.26-0.49,0.77-0.8,1.32-0.8c0,0,0,0,0,0l19.21,0.01c0.56,0,1.07,0.31,1.32,0.8l15.73,29.72
				c0.25,0.47,0.23,1.03-0.04,1.48C295.58,85.9,295.09,86.17,294.57,86.17z M246.36,83.14l45.72,0.03l-14.14-26.72l-17.4-0.01
				L246.36,83.14z"/>
		</g>
		<g>
			<rect x="330.59" y="82.32" class="st4" width="65.98" height="54.76"/>
			<path class="st5" d="M396.55,138.61C396.55,138.61,396.55,138.61,396.55,138.61l-65.98-0.05c-0.83,0-1.5-0.67-1.5-1.5l0.04-54.76
				c0-0.4,0.16-0.78,0.44-1.06c0.28-0.28,0.66-0.44,1.06-0.44c0,0,0,0,0,0l65.98,0.05c0.83,0,1.5,0.67,1.5,1.5l-0.04,54.76
				c0,0.4-0.16,0.78-0.44,1.06C397.33,138.45,396.95,138.61,396.55,138.61z M332.08,135.56l62.98,0.04l0.04-51.76l-62.98-0.04
				L332.08,135.56z"/>
		</g>
		<g>
			<rect x="396.57" y="82.37" class="st4" width="65.98" height="54.76"/>
			<path class="st5" d="M462.53,138.65C462.53,138.65,462.53,138.65,462.53,138.65l-65.98-0.05c-0.4,0-0.78-0.16-1.06-0.44
				c-0.28-0.28-0.44-0.66-0.44-1.06l0.04-54.76c0-0.4,0.16-0.78,0.44-1.06c0.28-0.28,0.66-0.44,1.06-0.44c0,0,0,0,0,0l65.98,0.05
				c0.83,0,1.5,0.67,1.5,1.5l-0.04,54.76C464.03,137.98,463.36,138.65,462.53,138.65z M398.05,135.61l62.98,0.04l0.04-51.76
				l-62.98-0.04L398.05,135.61z"/>
		</g>
		<g>
			<rect x="396.61" y="27.61" class="st4" width="65.98" height="54.76"/>
			<path class="st5" d="M462.57,83.89C462.57,83.89,462.57,83.89,462.57,83.89l-65.98-0.05c-0.83,0-1.5-0.67-1.5-1.5l0.04-54.76
				c0-0.4,0.16-0.78,0.44-1.06c0.28-0.28,0.66-0.44,1.06-0.44c0,0,0,0,0,0l65.98,0.05c0.83,0,1.5,0.67,1.5,1.5l-0.04,54.76
				c0,0.4-0.16,0.78-0.44,1.06C463.35,83.73,462.97,83.89,462.57,83.89z M398.09,80.85l62.98,0.04l0.04-51.76l-62.98-0.04
				L398.09,80.85z"/>
		</g>
		<g>
			<rect x="396.53" y="137.13" class="st4" width="65.98" height="54.76"/>
			<path class="st5" d="M462.49,193.41C462.49,193.41,462.49,193.41,462.49,193.41l-65.98-0.05c-0.83,0-1.5-0.67-1.5-1.5l0.04-54.76
				c0-0.83,0.67-1.5,1.5-1.5c0,0,0,0,0,0l65.98,0.05c0.4,0,0.78,0.16,1.06,0.44c0.28,0.28,0.44,0.66,0.44,1.06l-0.04,54.76
				c0,0.4-0.16,0.78-0.44,1.06C463.27,193.26,462.89,193.41,462.49,193.41z M398.01,190.37l62.98,0.04l0.04-51.76l-62.98-0.04
				L398.01,190.37z"/>
		</g>
		<g>
			<rect x="462.55" y="82.42" class="st4" width="65.98" height="54.76"/>
			<path class="st5" d="M528.51,138.7C528.51,138.7,528.51,138.7,528.51,138.7l-65.98-0.05c-0.83,0-1.5-0.67-1.5-1.5l0.04-54.76
				c0-0.83,0.67-1.5,1.5-1.5c0,0,0,0,0,0l65.98,0.05c0.4,0,0.78,0.16,1.06,0.44c0.28,0.28,0.44,0.66,0.44,1.06l-0.04,54.76
				c0,0.4-0.16,0.78-0.44,1.06C529.29,138.54,528.91,138.7,528.51,138.7z M464.03,135.65l62.98,0.04l0.04-51.76l-62.98-0.04
				L464.03,135.65z"/>
		</g>
		<g>
			<path class="st5" d="M294.55,104.69c-0.42,0-0.84-0.17-1.13-0.52c-0.54-0.63-0.48-1.57,0.15-2.12l24.06-20.89
				c0.63-0.54,1.57-0.48,2.12,0.15c0.54,0.63,0.48,1.57-0.15,2.12l-24.06,20.89C295.25,104.57,294.9,104.69,294.55,104.69z"/>
		</g>
		<g>
			<path class="st5" d="M318.57,138.56c-0.38,0-0.76-0.15-1.06-0.44l-24.03-23.87c-0.59-0.58-0.59-1.53-0.01-2.12
				c0.58-0.59,1.53-0.59,2.12-0.01L319.63,136c0.59,0.58,0.59,1.53,0.01,2.12C319.35,138.41,318.96,138.56,318.57,138.56z"/>
		</g>
		<g>
			
				<rect x="141.82" y="80.21" transform="matrix(-1 -7.078148e-04 7.078148e-04 -1 349.5426 215.2961)" class="st4" width="65.98" height="54.76"/>
			<path class="st5" d="M207.78,136.49C207.78,136.49,207.78,136.49,207.78,136.49l-65.98-0.05c-0.83,0-1.5-0.67-1.5-1.5l0.04-54.76
				c0-0.4,0.16-0.78,0.44-1.06c0.28-0.28,0.66-0.44,1.06-0.44c0,0,0,0,0,0l65.98,0.05c0.83,0,1.5,0.67,1.5,1.5l-0.04,54.76
				c0,0.4-0.16,0.78-0.44,1.06C208.56,136.33,208.18,136.49,207.78,136.49z M143.3,133.44l62.98,0.04l0.04-51.76l-62.98-0.04
				L143.3,133.44z"/>
		</g>
		<g>
			
				<rect x="75.84" y="80.16" transform="matrix(-1 -7.078148e-04 7.078148e-04 -1 217.5871 215.156)" class="st4" width="65.98" height="54.76"/>
			<path class="st5" d="M141.8,136.44C141.8,136.44,141.8,136.44,141.8,136.44l-65.98-0.05c-0.83,0-1.5-0.67-1.5-1.5l0.04-54.76
				c0-0.83,0.67-1.5,1.5-1.5c0,0,0,0,0,0l65.98,0.05c0.4,0,0.78,0.16,1.06,0.44c0.28,0.28,0.44,0.66,0.44,1.06l-0.04,54.76
				c0,0.4-0.16,0.78-0.44,1.06C142.58,136.29,142.2,136.44,141.8,136.44z M77.32,133.4l62.98,0.04l0.04-51.76l-62.98-0.04
				L77.32,133.4z"/>
		</g>
		<g>
			
				<rect x="75.8" y="134.92" transform="matrix(-1 -7.078148e-04 7.078148e-04 -1 217.4708 324.6782)" class="st4" width="65.98" height="54.76"/>
			<path class="st5" d="M141.76,191.2C141.76,191.2,141.76,191.2,141.76,191.2l-65.98-0.05c-0.83,0-1.5-0.67-1.5-1.5l0.04-54.76
				c0-0.4,0.16-0.78,0.44-1.06c0.28-0.28,0.66-0.44,1.06-0.44c0,0,0,0,0,0l65.98,0.05c0.83,0,1.5,0.67,1.5,1.5l-0.04,54.76
				c0,0.4-0.16,0.78-0.44,1.06C142.54,191.05,142.16,191.2,141.76,191.2z M77.29,188.16l62.98,0.04l0.04-51.76l-62.98-0.04
				L77.29,188.16z"/>
		</g>
		<g>
			
				<rect x="75.88" y="25.4" transform="matrix(-1 -7.078148e-04 7.078148e-04 -1 217.7034 105.6339)" class="st4" width="65.98" height="54.76"/>
			<path class="st5" d="M141.84,81.68C141.84,81.68,141.84,81.68,141.84,81.68l-65.98-0.05c-0.4,0-0.78-0.16-1.06-0.44
				c-0.28-0.28-0.44-0.66-0.44-1.06l0.04-54.76c0-0.4,0.16-0.78,0.44-1.06c0.28-0.28,0.66-0.44,1.06-0.44c0,0,0,0,0,0l65.98,0.05
				c0.83,0,1.5,0.67,1.5,1.5l-0.04,54.76C143.34,81.01,142.67,81.68,141.84,81.68z M77.36,78.64l62.98,0.04l0.04-51.76L77.4,26.88
				L77.36,78.64z"/>
		</g>
		<g>
			
				<rect x="9.86" y="80.11" transform="matrix(-1 -7.078148e-04 7.078148e-04 -1 85.6316 215.0159)" class="st4" width="65.98" height="54.76"/>
			<path class="st5" d="M75.82,136.4C75.82,136.4,75.82,136.4,75.82,136.4l-65.98-0.05c-0.4,0-0.78-0.16-1.06-0.44
				c-0.28-0.28-0.44-0.66-0.44-1.06l0.04-54.76c0-0.4,0.16-0.78,0.44-1.06c0.28-0.28,0.66-0.44,1.06-0.44c0,0,0,0,0,0l65.98,0.05
				c0.83,0,1.5,0.67,1.5,1.5l-0.04,54.76C77.32,135.73,76.65,136.4,75.82,136.4z M11.35,133.35l62.98,0.04l0.04-51.76l-62.98-0.04
				L11.35,133.35z"/>
		</g>
		<g>
			<path class="st5" d="M219.78,136.49c-0.42,0-0.84-0.17-1.13-0.52c-0.54-0.63-0.48-1.57,0.15-2.12l24.06-20.89
				c0.63-0.54,1.57-0.48,2.12,0.15c0.54,0.63,0.48,1.57-0.15,2.12l-24.06,20.89C220.48,136.37,220.13,136.49,219.78,136.49z"/>
		</g>
		<g>
			<path class="st5" d="M243.84,105.6c-0.38,0-0.76-0.15-1.06-0.44l-24.03-23.87c-0.59-0.58-0.59-1.53-0.01-2.12
				c0.58-0.59,1.53-0.59,2.12-0.01l24.03,23.87c0.59,0.58,0.59,1.53,0.01,2.12C244.61,105.45,244.23,105.6,243.84,105.6z"/>
		</g>
		<g>
			<path class="st5" d="M141.85,62.93C141.85,62.93,141.85,62.93,141.85,62.93l-65.98-0.05c-0.55,0-1-0.45-1-1l0.01-18.25
				c0-0.27,0.11-0.52,0.29-0.71c0.19-0.19,0.44-0.29,0.71-0.29c0,0,0,0,0,0l65.98,0.05c0.55,0,1,0.45,1,1l-0.01,18.25
				c0,0.27-0.11,0.52-0.29,0.71C142.37,62.82,142.12,62.93,141.85,62.93z M76.87,60.88l63.98,0.05l0.01-16.25l-63.98-0.05
				L76.87,60.88z"/>
		</g>
		<g>
			<path class="st5" d="M141.77,172.36C141.77,172.36,141.77,172.36,141.77,172.36l-65.98-0.05c-0.27,0-0.52-0.11-0.71-0.29
				c-0.19-0.19-0.29-0.44-0.29-0.71l0.01-18.07c0-0.55,0.41-0.98,1-1l65.98,0.05c0.27,0,0.52,0.11,0.71,0.29
				c0.19,0.19,0.29,0.44,0.29,0.71l-0.01,18.07C142.77,171.91,142.33,172.36,141.77,172.36z M76.8,170.31l63.98,0.05l0.01-16.07
				l-63.98-0.05L76.8,170.31z"/>
		</g>
		<g>
			<path class="st5" d="M207.79,117.65C207.79,117.65,207.79,117.65,207.79,117.65l-65.98-0.05c-0.55,0-1-0.45-1-1l0.01-18.07
				c0-0.27,0.11-0.52,0.29-0.71c0.19-0.19,0.44-0.29,0.71-0.29c0,0,0,0,0,0l65.98,0.05c0.55,0,1,0.45,1,1l-0.01,18.07
				c0,0.27-0.11,0.52-0.29,0.71C208.31,117.54,208.05,117.65,207.79,117.65z M142.81,115.6l63.98,0.05l0.01-16.07l-63.98-0.05
				L142.81,115.6z"/>
		</g>
		<g>
			<path class="st5" d="M141.69,117.65C141.69,117.65,141.69,117.65,141.69,117.65l-65.98-0.05c-0.27,0-0.52-0.11-0.71-0.29
				c-0.19-0.19-0.29-0.44-0.29-0.71l0.01-18.07c0-0.55,0.45-1,1-1c0,0,0,0,0,0l65.98,0.05c0.27,0,0.52,0.11,0.71,0.29
				c0.19,0.19,0.29,0.44,0.29,0.71l-0.01,18.07C142.69,117.2,142.24,117.65,141.69,117.65z M76.71,115.6l63.98,0.05l0.01-16.07
				l-63.98-0.05L76.71,115.6z"/>
		</g>
		<g>
			<path class="st5" d="M75.59,117.65C75.59,117.65,75.59,117.65,75.59,117.65L9.61,117.6c-0.55,0-1-0.45-1-1l0.01-18.07
				c0-0.27,0.11-0.52,0.29-0.71c0.19-0.19,0.44-0.29,0.71-0.29c0,0,0,0,0,0l65.98,0.05c0.55,0,1,0.45,1,1l-0.01,18.07
				c0,0.27-0.11,0.52-0.29,0.71C76.11,117.54,75.85,117.65,75.59,117.65z M10.61,115.6l63.98,0.05l0.01-16.07l-63.98-0.05
				L10.61,115.6z"/>
		</g>
		<g>
			<path class="st5" d="M462.39,64.93C462.39,64.93,462.39,64.93,462.39,64.93l-65.98-0.05c-0.55,0-1-0.45-1-1l0.01-18.25
				c0-0.55,0.45-1,1-1c0,0,0,0,0,0l65.98,0.05c0.27,0,0.52,0.11,0.71,0.29c0.19,0.19,0.29,0.44,0.29,0.71l-0.01,18.25
				c0,0.27-0.11,0.52-0.29,0.71C462.91,64.82,462.66,64.93,462.39,64.93z M397.41,62.88l63.98,0.05l0.01-16.25l-63.98-0.05
				L397.41,62.88z"/>
		</g>
		<g>
			<path class="st5" d="M462.31,174.36C462.31,174.36,462.31,174.36,462.31,174.36l-65.98-0.05c-0.55,0-1-0.45-1-1l0.01-18.07
				c0-0.27,0.11-0.52,0.29-0.71c0.19-0.19,0.44-0.29,0.71-0.29c0,0,0,0,0,0l65.98,0.05c0.55,0,1,0.45,1,1l-0.01,18.07
				c0,0.27-0.11,0.52-0.29,0.71C462.83,174.25,462.58,174.36,462.31,174.36z M397.34,172.31l63.98,0.05l0.01-16.07l-63.98-0.05
				L397.34,172.31z"/>
		</g>
		<g>
			<path class="st5" d="M528.33,119.65C528.33,119.65,528.33,119.65,528.33,119.65l-65.98-0.05c-0.55,0-1-0.45-1-1l0.01-18.07
				c0-0.27,0.11-0.52,0.29-0.71c0.19-0.19,0.44-0.29,0.71-0.29c0,0,0,0,0,0l65.98,0.05c0.55,0,1,0.45,1,1l-0.01,18.07
				c0,0.27-0.11,0.52-0.29,0.71C528.85,119.54,528.59,119.65,528.33,119.65z M463.35,117.6l63.98,0.05l0.01-16.07l-63.98-0.05
				L463.35,117.6z"/>
		</g>
		<g>
			<path class="st5" d="M462.23,119.65C462.23,119.65,462.23,119.65,462.23,119.65l-65.98-0.05c-0.55,0-1-0.45-1-1l0.01-18.07
				c0-0.27,0.11-0.52,0.29-0.71s0.45-0.26,0.71-0.29l65.98,0.05c0.55,0,1,0.45,1,1l-0.01,18.07c0,0.27-0.11,0.52-0.29,0.71
				C462.75,119.54,462.49,119.65,462.23,119.65z M397.25,117.6l63.98,0.05l0.01-16.07l-63.98-0.05L397.25,117.6z"/>
		</g>
		<g>
			<path class="st5" d="M396.13,119.65C396.13,119.65,396.13,119.65,396.13,119.65l-65.98-0.05c-0.27,0-0.52-0.11-0.71-0.29
				c-0.19-0.19-0.29-0.44-0.29-0.71l0.01-18.07c0-0.55,0.45-1,1-1c0,0,0,0,0,0l65.98,0.05c0.27,0,0.52,0.11,0.71,0.29
				c0.19,0.19,0.29,0.44,0.29,0.71l-0.01,18.07C397.13,119.2,396.68,119.65,396.13,119.65z M331.15,117.6l63.98,0.05l0.01-16.07
				l-63.98-0.05L331.15,117.6z"/>
		</g>
		<g>
			<rect x="264.19" y="110.17" class="st4" width="10.1" height="18.36"/>
			<path class="st5" d="M274.29,130.03h-10.1c-0.83,0-1.5-0.67-1.5-1.5v-18.36c0-0.83,0.67-1.5,1.5-1.5h10.1
				c0.83,0,1.5,0.67,1.5,1.5v18.36C275.79,129.36,275.12,130.03,274.29,130.03z M265.69,127.03h7.1v-15.36h-7.1V127.03z"/>
		</g>
		<g>
			<path class="st5" d="M330.57,138.56C330.57,138.56,330.57,138.56,330.57,138.56l-11.57-0.01c-0.83,0-1.5-0.67-1.5-1.5l0.04-54.76
				c0-0.4,0.16-0.78,0.44-1.06c0.28-0.28,0.66-0.44,1.06-0.44c0,0,0,0,0,0l11.57,0.01c0.83,0,1.5,0.67,1.5,1.5l-0.04,54.76
				c0,0.4-0.16,0.78-0.44,1.06C331.35,138.4,330.97,138.56,330.57,138.56z M320.51,135.55l8.57,0.01l0.04-51.76l-8.57-0.01
				L320.51,135.55z"/>
		</g>
		<g>
			<path class="st5" d="M220,136.5C220,136.5,220,136.5,220,136.5l-12.23-0.01c-0.83,0-1.5-0.67-1.5-1.5l0.04-54.76
				c0-0.4,0.16-0.78,0.44-1.06c0.28-0.28,0.66-0.44,1.06-0.44c0,0,0,0,0,0l12.22,0.01c0.83,0,1.5,0.67,1.5,1.5L221.5,135
				c0,0.4-0.16,0.78-0.44,1.06C220.78,136.34,220.4,136.5,220,136.5z M209.28,133.49l9.22,0.01l0.04-51.76l-9.22-0.01L209.28,133.49
				z"/>
		</g>
	</g>
</g>
</svg>
